<svg width="1024" height="1024" viewBox="0 0 1024 1024" fill="none" xmlns="http://www.w3.org/2000/svg">
<path d="M492.032 117.169C496.913 95.9815 527.087 95.9815 531.968 117.169L534.768 129.323C560.125 130.819 584.814 134.798 608.596 141.02L615.018 130.323C626.208 111.681 654.905 121.005 653 142.664L651.899 155.19C675.215 164.411 697.402 175.868 718.196 189.298L727.92 180.838C744.323 166.566 768.734 184.301 760.23 204.312L755.092 216.398C774.13 232.22 791.601 249.862 807.237 269.06L819.687 263.77C839.698 255.265 857.433 279.676 843.161 296.079L834.12 306.469C847.157 327.137 858.259 349.147 867.173 372.244L881.335 370.999C902.995 369.095 912.318 397.792 893.676 408.982L881.189 416.477C887.016 439.749 890.699 463.87 892.019 488.618L906.83 492.032C928.018 496.913 928.018 527.086 906.83 531.968L891.677 535.458C890.01 559.94 886.03 583.786 879.95 606.779L893.676 615.018C912.318 626.208 902.995 654.905 881.335 653L865.052 651.568C856.039 673.901 844.969 695.183 832.076 715.179L843.161 727.92C857.433 744.323 839.698 768.734 819.687 760.23L803.839 753.495C788.598 771.684 771.688 788.426 753.345 803.488L760.23 819.687C768.734 839.698 744.323 857.433 727.92 843.161L714.511 831.494C694.645 844.003 673.542 854.728 651.426 863.441L653 881.335C654.905 902.995 626.208 912.318 615.018 893.676L605.707 878.166C583.224 883.859 559.943 887.552 536.066 889.042L531.968 906.83C527.086 928.018 496.913 928.018 492.032 906.83L487.933 889.042C464.055 887.552 440.774 883.86 418.29 878.166L408.982 893.676C397.792 912.318 369.095 902.995 370.999 881.335L372.573 863.441C350.456 854.728 329.354 844.003 309.488 831.494L296.079 843.161C279.676 857.433 255.265 839.698 263.77 819.687L270.654 803.489C252.311 788.427 235.4 771.684 220.16 753.495L204.312 760.23C184.301 768.734 166.566 744.323 180.838 727.92L191.923 715.179C179.03 695.183 167.96 673.901 158.947 651.568L142.664 653C121.005 654.905 111.681 626.208 130.323 615.018L144.049 606.778C137.969 583.785 133.988 559.94 132.321 535.458L117.169 531.968C95.9815 527.087 95.9815 496.913 117.169 492.032L131.98 488.618C133.3 463.87 136.982 439.748 142.81 416.477L130.323 408.982C111.681 397.792 121.005 369.095 142.664 370.999L156.826 372.244C165.739 349.147 176.842 327.137 189.878 306.469L180.838 296.079C166.566 279.676 184.301 255.266 204.312 263.77L216.762 269.061C232.397 249.863 249.868 232.22 268.907 216.398L263.77 204.312C255.266 184.301 279.676 166.566 296.079 180.838L305.803 189.298C326.597 175.868 348.784 164.411 372.1 155.19L370.999 142.664C369.095 121.005 397.792 111.681 408.982 130.323L415.403 141.02C439.185 134.798 463.874 130.819 489.231 129.323L492.032 117.169Z" fill="url(#paint0_linear_3605_1120)" style=""/>
<defs>
<linearGradient id="paint0_linear_3605_1120" x1="512" y1="100.881" x2="512" y2="912.934" gradientUnits="userSpaceOnUse">
<stop stop-color="#EFAC3D" style="stop-color:#EFAC3D;stop-color:color(display-p3 0.9373 0.6745 0.2392);stop-opacity:1;"/>
<stop offset="1" stop-color="#B36123" style="stop-color:#B36123;stop-color:color(display-p3 0.7020 0.3804 0.1373);stop-opacity:1;"/>
</linearGradient>
</defs>
</svg>
