<svg width="1024" height="1024" viewBox="0 0 1024 1024" fill="none" xmlns="http://www.w3.org/2000/svg">
<g filter="url(#filter0_di_3605_1123)">
<path fill-rule="evenodd" clip-rule="evenodd" d="M363.152 708.958C360.1 706.679 358.863 702.719 359.962 699.072L429.969 466.699C432.797 457.311 441.443 450.887 451.247 450.887H572.755C582.559 450.887 591.205 457.312 594.033 466.699L664.04 699.071C665.138 702.718 663.902 706.679 660.85 708.957C619.323 739.954 567.805 758.306 512 758.306C456.196 758.306 404.678 739.955 363.152 708.958ZM401.811 410.745C401.811 403.307 401.811 399.589 402.145 396.459C405.102 368.698 427.034 346.766 454.795 343.808C457.925 343.475 461.644 343.475 469.081 343.475H554.92C562.358 343.475 566.076 343.475 569.206 343.808C596.967 346.766 618.899 368.698 621.857 396.459C622.19 399.589 622.19 403.307 622.19 410.745C622.19 411.907 622.19 412.488 622.138 412.977C621.676 417.315 618.249 420.742 613.911 421.204C613.422 421.256 612.841 421.256 611.679 421.256H412.322C411.16 421.256 410.579 421.256 410.09 421.204C405.752 420.742 402.325 417.315 401.863 412.977C401.811 412.488 401.811 411.907 401.811 410.745Z" fill="url(#paint0_linear_3605_1123)" style=""/>
</g>
<defs>
<filter id="filter0_di_3605_1123" x="354.937" y="343.475" width="314.127" height="428.72" filterUnits="userSpaceOnUse" color-interpolation-filters="sRGB">
<feFlood flood-opacity="0" result="BackgroundImageFix"/>
<feColorMatrix in="SourceAlpha" type="matrix" values="0 0 0 0 0 0 0 0 0 0 0 0 0 0 0 0 0 0 127 0" result="hardAlpha"/>
<feOffset dy="9.25961"/>
<feGaussianBlur stdDeviation="2.3149"/>
<feComposite in2="hardAlpha" operator="out"/>
<feColorMatrix type="matrix" values="0 0 0 0 1 0 0 0 0 1 0 0 0 0 1 0 0 0 0.4 0"/>
<feBlend mode="normal" in2="BackgroundImageFix" result="effect1_dropShadow_3605_1123"/>
<feBlend mode="normal" in="SourceGraphic" in2="effect1_dropShadow_3605_1123" result="shape"/>
<feColorMatrix in="SourceAlpha" type="matrix" values="0 0 0 0 0 0 0 0 0 0 0 0 0 0 0 0 0 0 127 0" result="hardAlpha"/>
<feOffset dy="9.25961"/>
<feGaussianBlur stdDeviation="2.3149"/>
<feComposite in2="hardAlpha" operator="arithmetic" k2="-1" k3="1"/>
<feColorMatrix type="matrix" values="0 0 0 0 0 0 0 0 0 0 0 0 0 0 0 0 0 0 0.24 0"/>
<feBlend mode="normal" in2="shape" result="effect2_innerShadow_3605_1123"/>
</filter>
<linearGradient id="paint0_linear_3605_1123" x1="512.001" y1="343.475" x2="512.001" y2="758.306" gradientUnits="userSpaceOnUse">
<stop stop-color="#FE7D0B" style="stop-color:#FE7D0B;stop-color:color(display-p3 0.9962 0.4883 0.0438);stop-opacity:1;"/>
<stop offset="0.890625" stop-color="#F06800" style="stop-color:#F06800;stop-color:color(display-p3 0.9400 0.4073 0.0000);stop-opacity:1;"/>
</linearGradient>
</defs>
</svg>
