<?xml version="1.0" encoding="UTF-8"?>
<!--Generator: Apple Native CoreSVG 341-->
<!DOCTYPE svg
PUBLIC "-//W3C//DTD SVG 1.1//EN"
       "http://www.w3.org/Graphics/SVG/1.1/DTD/svg11.dtd">
<svg version="1.1" xmlns="http://www.w3.org/2000/svg" xmlns:xlink="http://www.w3.org/1999/xlink" viewBox="0 0 3300 2200">
 <!--glyph: "", point size: 100.0, font version: "21.1d1e1", template writer version: "138.0.0"-->
 <style>.defaults {-sfsymbols-variable-value-mode:color;-sfsymbols-draw-reverses-motion-groups:true}

.monochrome-0 {-sfsymbols-motion-group:1;-sfsymbols-layer-tags:3ed67a0dc140d917}
.monochrome-1 {opacity:0.0;-sfsymbols-clear-behind:true;-sfsymbols-motion-group:0;-sfsymbols-layer-tags:3ed67a0dc140d917}

.multicolor-0:labelColor {-sfsymbols-motion-group:1;-sfsymbols-layer-tags:3ed67a0dc140d917}
.multicolor-1:tintColor {-sfsymbols-motion-group:0;-sfsymbols-layer-tags:3ed67a0dc140d917}

.hierarchical-0:tertiary {-sfsymbols-motion-group:1;-sfsymbols-layer-tags:3ed67a0dc140d917}
.hierarchical-1:primary {-sfsymbols-motion-group:0;-sfsymbols-layer-tags:3ed67a0dc140d917}

.SFSymbolsPreviewWireframe {fill:none;opacity:1.0;stroke:black;stroke-width:0.5}
</style>
 <g id="Notes">
  <rect height="2200" id="artboard" style="fill:white;opacity:1" width="3300" x="0" y="0"/>
  <line style="fill:none;stroke:black;opacity:1;stroke-width:0.5;" x1="263" x2="3036" y1="292" y2="292"/>
  <text style="stroke:none;fill:black;font-family:sans-serif;font-size:13;font-weight:bold;" transform="matrix(1 0 0 1 263 322)">Weight/Scale Variations</text>
  <text style="stroke:none;fill:black;font-family:sans-serif;font-size:13;text-anchor:middle;" transform="matrix(1 0 0 1 559.711 322)">Ultralight</text>
  <text style="stroke:none;fill:black;font-family:sans-serif;font-size:13;text-anchor:middle;" transform="matrix(1 0 0 1 856.422 322)">Thin</text>
  <text style="stroke:none;fill:black;font-family:sans-serif;font-size:13;text-anchor:middle;" transform="matrix(1 0 0 1 1153.13 322)">Light</text>
  <text style="stroke:none;fill:black;font-family:sans-serif;font-size:13;text-anchor:middle;" transform="matrix(1 0 0 1 1449.84 322)">Regular</text>
  <text style="stroke:none;fill:black;font-family:sans-serif;font-size:13;text-anchor:middle;" transform="matrix(1 0 0 1 1746.56 322)">Medium</text>
  <text style="stroke:none;fill:black;font-family:sans-serif;font-size:13;text-anchor:middle;" transform="matrix(1 0 0 1 2043.27 322)">Semibold</text>
  <text style="stroke:none;fill:black;font-family:sans-serif;font-size:13;text-anchor:middle;" transform="matrix(1 0 0 1 2339.98 322)">Bold</text>
  <text style="stroke:none;fill:black;font-family:sans-serif;font-size:13;text-anchor:middle;" transform="matrix(1 0 0 1 2636.69 322)">Heavy</text>
  <text style="stroke:none;fill:black;font-family:sans-serif;font-size:13;text-anchor:middle;" transform="matrix(1 0 0 1 2933.4 322)">Black</text>
  <line style="fill:none;stroke:black;opacity:1;stroke-width:0.5;" x1="263" x2="3036" y1="1903" y2="1903"/>
  <g transform="matrix(0.2 0 0 0.2 263 1933)">
   <path d="m46.2402 4.15039c21.7773 0 39.4531-17.627 39.4531-39.4043s-17.6758-39.4043-39.4531-39.4043c-21.7285 0-39.4043 17.627-39.4043 39.4043s17.6758 39.4043 39.4043 39.4043Zm0-7.42188c-17.6758 0-31.9336-14.3066-31.9336-31.9824s14.2578-31.9824 31.9336-31.9824 31.9824 14.3066 31.9824 31.9824-14.3066 31.9824-31.9824 31.9824Zm3.61328-17.7734v-28.4668c0-2.24609-1.46484-3.75977-3.71094-3.75977-2.14844 0-3.61328 1.51367-3.61328 3.75977v28.4668c0 2.19727 1.46484 3.71094 3.61328 3.71094 2.24609 0 3.71094-1.51367 3.71094-3.71094Zm-17.8223-10.5957h28.418c2.19727 0 3.71094-1.46484 3.71094-3.61328 0-2.19727-1.51367-3.71094-3.71094-3.71094h-28.418c-2.24609 0-3.75977 1.51367-3.75977 3.71094 0 2.14844 1.51367 3.61328 3.75977 3.61328Z"/>
  </g>
  <g transform="matrix(0.2 0 0 0.2 281.506 1933)">
   <path d="m58.5449 14.5508c27.4902 0 49.8047-22.3145 49.8047-49.8047s-22.3145-49.8047-49.8047-49.8047-49.8047 22.3145-49.8047 49.8047 22.3145 49.8047 49.8047 49.8047Zm0-8.30078c-22.9492 0-41.5039-18.5547-41.5039-41.5039s18.5547-41.5039 41.5039-41.5039 41.5039 18.5547 41.5039 41.5039-18.5547 41.5039-41.5039 41.5039Zm4.05273-23.0957v-36.9141c0-2.49023-1.70898-4.19922-4.15039-4.19922-2.39258 0-4.05273 1.70898-4.05273 4.19922v36.9141c0 2.44141 1.66016 4.15039 4.05273 4.15039 2.44141 0 4.15039-1.66016 4.15039-4.15039Zm-22.5586-14.4043h36.9629c2.44141 0 4.15039-1.61133 4.15039-4.00391 0-2.44141-1.70898-4.15039-4.15039-4.15039h-36.9629c-2.49023 0-4.15039 1.70898-4.15039 4.15039 0 2.39258 1.66016 4.00391 4.15039 4.00391Z"/>
  </g>
  <g transform="matrix(0.2 0 0 0.2 304.924 1933)">
   <path d="m74.8535 28.3203c35.1074 0 63.623-28.4668 63.623-63.5742s-28.5156-63.623-63.623-63.623-63.5742 28.5156-63.5742 63.623 28.4668 63.5742 63.5742 63.5742Zm0-9.08203c-30.127 0-54.4922-24.3652-54.4922-54.4922s24.3652-54.4922 54.4922-54.4922 54.4922 24.3652 54.4922 54.4922-24.3652 54.4922-54.4922 54.4922Zm4.44336-30.3223v-48.4863c0-2.73438-1.85547-4.63867-4.54102-4.63867-2.58789 0-4.44336 1.9043-4.44336 4.63867v48.4863c0 2.68555 1.85547 4.58984 4.44336 4.58984 2.68555 0 4.54102-1.85547 4.54102-4.58984Zm-28.7109-19.7754h48.4863c2.68555 0 4.58984-1.80664 4.58984-4.39453 0-2.73438-1.85547-4.58984-4.58984-4.58984h-48.4863c-2.73438 0-4.58984 1.85547-4.58984 4.58984 0 2.58789 1.85547 4.39453 4.58984 4.39453Z"/>
  </g>
  <text style="stroke:none;fill:black;font-family:sans-serif;font-size:13;font-weight:bold;" transform="matrix(1 0 0 1 263 1953)">Design Variations</text>
  <text style="stroke:none;fill:black;font-family:sans-serif;font-size:13;" transform="matrix(1 0 0 1 263 1971)">Symbols are supported in up to nine weights and three scales.</text>
  <text style="stroke:none;fill:black;font-family:sans-serif;font-size:13;" transform="matrix(1 0 0 1 263 1989)">For optimal layout with text and other symbols, vertically align</text>
  <text style="stroke:none;fill:black;font-family:sans-serif;font-size:13;" transform="matrix(1 0 0 1 263 2007)">symbols with the adjacent text.</text>
  <line style="fill:none;stroke:#00AEEF;stroke-width:0.5;opacity:1.0;" x1="776" x2="776" y1="1919" y2="1933"/>
  <g transform="matrix(0.2 0 0 0.2 776 1933)">
   <path d="m16.5527 0.78125c2.58789 0 3.85742-0.976562 4.78516-3.71094l20.5566-57.5195h0.244141l20.6055 57.5195c0.927734 2.73438 2.19727 3.71094 4.73633 3.71094 2.58789 0 4.24805-1.5625 4.24805-4.00391 0-0.830078-0.146484-1.61133-0.537109-2.63672l-22.9004-60.9863c-1.12305-2.97852-3.125-4.49219-6.25-4.49219-3.02734 0-5.07812 1.46484-6.15234 4.44336l-22.9004 61.084c-0.390625 1.02539-0.537109 1.80664-0.537109 2.63672 0 2.44141 1.5625 3.95508 4.10156 3.95508Zm10.2051-20.9473h30.6641c2.00195 0 3.66211-1.66016 3.66211-3.66211 0-2.05078-1.66016-3.66211-3.66211-3.66211h-30.6641c-2.00195 0-3.66211 1.61133-3.66211 3.66211 0 2.00195 1.66016 3.66211 3.66211 3.66211Z"/>
  </g>
  <line style="fill:none;stroke:#00AEEF;stroke-width:0.5;opacity:1.0;" x1="792.836" x2="792.836" y1="1919" y2="1933"/>
  <text style="stroke:none;fill:black;font-family:sans-serif;font-size:13;font-weight:bold;" transform="matrix(1 0 0 1 776 1953)">Margins</text>
  <text style="stroke:none;fill:black;font-family:sans-serif;font-size:13;" transform="matrix(1 0 0 1 776 1971)">Leading and trailing margins on the left and right side of each symbol</text>
  <text style="stroke:none;fill:black;font-family:sans-serif;font-size:13;" transform="matrix(1 0 0 1 776 1989)">can be adjusted by modifying the x-location of the margin guidelines.</text>
  <text style="stroke:none;fill:black;font-family:sans-serif;font-size:13;" transform="matrix(1 0 0 1 776 2007)">Modifications are automatically applied proportionally to all</text>
  <text style="stroke:none;fill:black;font-family:sans-serif;font-size:13;" transform="matrix(1 0 0 1 776 2025)">scales and weights.</text>
  <g transform="matrix(0.2 0 0 0.2 1289 1933)">
   <path d="m14.209 13.1348 7.86133 7.86133c4.29688 4.39453 9.32617 4.10156 13.8672-1.02539l60.6934-68.2129-4.88281-4.88281-60.2539 67.6758c-1.80664 1.95312-3.4668 2.44141-5.81055 0.0976562l-5.17578-5.12695c-2.29492-2.29492-1.80664-3.95508 0.195312-5.81055l67.4805-62.1582-4.88281-4.83398-68.0664 62.5977c-4.98047 4.58984-5.32227 9.47266-1.02539 13.8184Zm44.873-97.4609c-2.05078 2.00195-2.24609 4.88281-1.07422 6.78711 1.12305 1.80664 3.4668 3.02734 6.5918 2.24609 5.85938-1.66016 12.5977-2.39258 18.8965 0.927734l-2.68555 7.12891c-1.61133 4.00391-0.732422 6.88477 1.70898 9.42383l10.2539 10.3027c2.34375 2.39258 4.54102 2.44141 7.08008 1.95312l4.44336-0.732422 2.58789 2.53906-0.195312 2.24609c-0.0976562 2.29492 0.537109 4.29688 2.7832 6.49414l3.36914 3.32031c2.29492 2.29492 5.51758 2.49023 7.8125 0.195312l12.9883-13.0371c2.29492-2.34375 2.14844-5.37109-0.195312-7.66602l-3.41797-3.41797c-2.19727-2.19727-4.05273-3.02734-6.34766-2.88086l-2.34375 0.244141-2.44141-2.44141 1.02539-4.6875c0.634766-2.73438-0.244141-4.98047-2.88086-7.61719l-11.2793-11.1816c-12.9395-12.8418-35.5957-11.0352-46.6797-0.146484Zm7.08008 2.05078c8.78906-6.39648 25.9766-5.66406 33.6914 1.95312l12.3047 12.207c1.02539 1.02539 1.2207 1.80664 0.927734 3.32031l-1.46484 6.64062 6.73828 6.68945 4.39453-0.244141c1.12305-0.0488281 1.51367 0.0488281 2.34375 0.878906l2.53906 2.49023-10.8398 10.8398-2.49023-2.49023c-0.830078-0.878906-0.976562-1.2207-0.927734-2.39258l0.292969-4.3457-6.68945-6.73828-6.83594 1.17188c-1.41602 0.292969-2.05078 0.195312-3.17383-0.878906l-8.93555-8.88672c-1.07422-1.02539-1.17188-1.70898-0.488281-3.36914l4.58984-11.4746c-6.10352-6.34766-17.041-7.51953-25.5859-4.58984-0.683594 0.244141-0.927734-0.390625-0.390625-0.78125Z"/>
  </g>
  <text style="stroke:none;fill:black;font-family:sans-serif;font-size:13;font-weight:bold;" transform="matrix(1 0 0 1 1289 1953)">Exporting</text>
  <text style="stroke:none;fill:black;font-family:sans-serif;font-size:13;" transform="matrix(1 0 0 1 1289 1971)">Symbols should be outlined when exporting to ensure the</text>
  <text style="stroke:none;fill:black;font-family:sans-serif;font-size:13;" transform="matrix(1 0 0 1 1289 1989)">design is preserved when submitting to Xcode.</text>
  <text id="template-version" style="stroke:none;fill:black;font-family:sans-serif;font-size:13;text-anchor:end;" transform="matrix(1 0 0 1 3036 1933)">Template v.7.0</text>
  <text style="stroke:none;fill:black;font-family:sans-serif;font-size:13;text-anchor:end;" transform="matrix(1 0 0 1 3036 1951)">Requires Xcode 26 or greater</text>
  <text id="descriptive-name" style="stroke:none;fill:black;font-family:sans-serif;font-size:13;text-anchor:end;" transform="matrix(1 0 0 1 3036 1969)">Generated from bottlecap</text>
  <text style="stroke:none;fill:black;font-family:sans-serif;font-size:13;text-anchor:end;" transform="matrix(1 0 0 1 3036 1987)">Typeset at 100.0 points</text>
  <text style="stroke:none;fill:black;font-family:sans-serif;font-size:13;" transform="matrix(1 0 0 1 263 726)">Small</text>
  <text style="stroke:none;fill:black;font-family:sans-serif;font-size:13;" transform="matrix(1 0 0 1 263 1156)">Medium</text>
  <text style="stroke:none;fill:black;font-family:sans-serif;font-size:13;" transform="matrix(1 0 0 1 263 1586)">Large</text>
 </g>
 <g id="Guides">
  <g id="H-reference" style="fill:#27AAE1;stroke:none;" transform="matrix(1 0 0 1 339 696)">
   <path d="M0.993654 0L3.63775 0L29.3281-67.1323L30.0303-67.1323L30.0303-70.459L28.1226-70.459ZM11.6885-24.4799L46.9815-24.4799L46.2315-26.7285L12.4385-26.7285ZM55.1196 0L57.7637 0L30.6382-70.459L29.4326-70.459L29.4326-67.1323Z"/>
  </g>
  <line id="Baseline-S" style="fill:none;stroke:#27AAE1;opacity:1;stroke-width:0.5;" x1="263" x2="3036" y1="696" y2="696"/>
  <line id="Capline-S" style="fill:none;stroke:#27AAE1;opacity:1;stroke-width:0.5;" x1="263" x2="3036" y1="625.541" y2="625.541"/>
  <g id="H-reference" style="fill:#27AAE1;stroke:none;" transform="matrix(1 0 0 1 339 1126)">
   <path d="M0.993654 0L3.63775 0L29.3281-67.1323L30.0303-67.1323L30.0303-70.459L28.1226-70.459ZM11.6885-24.4799L46.9815-24.4799L46.2315-26.7285L12.4385-26.7285ZM55.1196 0L57.7637 0L30.6382-70.459L29.4326-70.459L29.4326-67.1323Z"/>
  </g>
  <line id="Baseline-M" style="fill:none;stroke:#27AAE1;opacity:1;stroke-width:0.5;" x1="263" x2="3036" y1="1126" y2="1126"/>
  <line id="Capline-M" style="fill:none;stroke:#27AAE1;opacity:1;stroke-width:0.5;" x1="263" x2="3036" y1="1055.54" y2="1055.54"/>
  <g id="H-reference" style="fill:#27AAE1;stroke:none;" transform="matrix(1 0 0 1 339 1556)">
   <path d="M0.993654 0L3.63775 0L29.3281-67.1323L30.0303-67.1323L30.0303-70.459L28.1226-70.459ZM11.6885-24.4799L46.9815-24.4799L46.2315-26.7285L12.4385-26.7285ZM55.1196 0L57.7637 0L30.6382-70.459L29.4326-70.459L29.4326-67.1323Z"/>
  </g>
  <line id="Baseline-L" style="fill:none;stroke:#27AAE1;opacity:1;stroke-width:0.5;" x1="263" x2="3036" y1="1556" y2="1556"/>
  <line id="Capline-L" style="fill:none;stroke:#27AAE1;opacity:1;stroke-width:0.5;" x1="263" x2="3036" y1="1485.54" y2="1485.54"/>
  <line id="right-margin-Black-S" style="fill:none;stroke:#00AEEF;stroke-width:0.5;opacity:1.0;" x1="2983.6" x2="2983.6" y1="600.785" y2="720.121"/>
  <line id="left-margin-Black-S" style="fill:none;stroke:#00AEEF;stroke-width:0.5;opacity:1.0;" x1="2883.2" x2="2883.2" y1="600.785" y2="720.121"/>
  <line id="right-margin-Regular-S" style="fill:none;stroke:#00AEEF;stroke-width:0.5;opacity:1.0;" x1="1497.94" x2="1497.94" y1="600.785" y2="720.121"/>
  <line id="left-margin-Regular-S" style="fill:none;stroke:#00AEEF;stroke-width:0.5;opacity:1.0;" x1="1401.75" x2="1401.75" y1="600.785" y2="720.121"/>
  <line id="right-margin-Ultralight-S" style="fill:none;stroke:#FF3B30;stroke-width:0.5;opacity:1.0;" x1="604.071" x2="604.071" y1="600.785" y2="720.121"/>
  <line id="left-margin-Ultralight-S" style="fill:none;stroke:#FF3B30;stroke-width:0.5;opacity:1.0;" x1="515.351" x2="515.351" y1="600.785" y2="720.121"/>
 </g>
 <g id="Symbols">
  <g id="Black-L" transform="matrix(1 0 0 1 2850.82 1556)">
   <path class="monochrome-0 multicolor-0:labelColor hierarchical-0:tertiary SFSymbolsPreviewWireframe" d="M76.5312-110.296C77.8735-116.875 87.2744-116.875 88.6167-110.296C88.6324-110.22 88.6554-110.144 88.6735-110.069C92.5002-109.757 96.2431-109.155 99.8844-108.286C99.9273-108.356 99.9909-108.418 100.032-108.49C103.343-114.329 112.272-111.424 111.516-104.753C111.506-104.67 111.51-104.586 111.504-104.504C114.994-103.03 118.339-101.279 121.534-99.3126C121.62-99.3842 121.722-99.4397 121.806-99.5171C126.759-104.05 134.367-98.5178 131.586-92.4066C131.527-92.2763 131.488-92.1394 131.438-92.0091C134.246-89.5631 136.873-86.9169 139.287-84.0808C139.439-84.1368 139.601-84.1709 139.753-84.2398C145.864-87.0207 151.397-79.4128 146.863-74.4601C146.736-74.3206 146.623-74.1731 146.511-74.0285C148.394-70.8826 150.043-67.5824 151.452-64.1579C151.664-64.1612 151.881-64.1445 152.1-64.1693C158.77-64.9254 161.675-55.9964 155.837-52.6858C155.611-52.5581 155.401-52.4114 155.2-52.2655C155.989-48.7662 156.525-45.1756 156.802-41.5089C157.071-41.4159 157.349-41.3302 157.643-41.2704C164.221-39.9278 164.221-30.5272 157.643-29.1849C157.313-29.1177 156.998-29.0326 156.7-28.9237C156.369-25.3252 155.786-21.8036 154.962-18.3716C155.229-18.1576 155.521-17.96 155.837-17.7809C161.678-14.471 158.771-5.53 152.1-6.286C151.706-6.331 151.323-6.332 150.952-6.309C149.556-3.076 147.946 0.04 146.125 3.017C146.333 3.355 146.576 3.691 146.863 4.005C151.391 8.957 145.862 16.564 139.753 13.784C139.325 13.59 138.895 13.459 138.469 13.364C136.201 15.942 133.755 18.356 131.154 20.6C131.249 21.046 131.382 21.502 131.586 21.951C134.364 28.061 126.758 33.582 121.806 29.05C121.433 28.709 121.031 28.44 120.625 28.21C117.713 29.946 114.679 31.5 111.527 32.833C111.473 33.3 111.458 33.791 111.516 34.298C112.268 40.964 103.344 43.866 100.032 38.035C99.7691 37.571 99.4473 37.166 99.112 36.808C95.8546 37.549 92.5206 38.078 89.1165 38.376C88.9046 38.824 88.7246 39.312 88.6167 39.841C87.2705 46.412 77.8766 46.413 76.5312 39.841C76.4239 39.315 76.2415 38.833 76.0314 38.387C72.6202 38.092 69.2773 37.57 66.0132 36.831C65.6874 37.183 65.3838 37.582 65.1272 38.035C61.8164 43.87 52.88 40.965 53.6323 34.298C53.6885 33.803 53.6595 33.324 53.6096 32.867C50.4455 31.533 47.4008 29.973 44.4774 28.233C44.0871 28.458 43.7011 28.721 43.3415 29.05C38.3899 33.582 30.7865 28.061 33.5618 21.951C33.7553 21.526 33.8763 21.091 33.9707 20.668C31.3473 18.41 28.8741 15.984 26.5876 13.387C26.1937 13.481 25.7907 13.604 25.395 13.784C19.2855 16.56 13.7642 8.956 18.2959 4.005C18.563 3.713 18.7788 3.398 18.9774 3.085C17.1363 0.083 15.5013-3.058 14.0932-6.32C13.7556-6.336 13.4049-6.327 13.0483-6.286C6.38039-5.533 3.47553-14.47 9.3113-17.7809C9.59837-17.9436 9.86013-18.1345 10.1064-18.3261C9.27521-21.7797 8.67721-25.3241 8.34582-28.9464C8.07808-29.039 7.79736-29.1253 7.50529-29.1849C0.932147-30.5298 0.932817-39.9248 7.50529-41.2704C7.76481-41.3234 8.01462-41.4071 8.25495-41.4862C8.53251-45.1763 9.07229-48.7903 9.86786-52.3109C9.69056-52.4362 9.50775-52.5744 9.3113-52.6858C3.47864-55.9978 6.38092-64.923 13.0483-64.1693C13.235-64.1481 13.4231-64.1634 13.6048-64.1579C15.0234-67.6046 16.6934-70.9208 18.5912-74.0853C18.4939-74.2082 18.4047-74.341 18.2959-74.4601C13.7631-79.4124 19.2845-87.0184 25.395-84.2398C25.5201-84.183 25.6561-84.1516 25.7812-84.1035C28.2097-86.9551 30.8602-89.6091 33.6867-92.0658C33.6432-92.1771 33.6123-92.2954 33.5618-92.4066C30.7814-98.5167 38.3887-104.046 43.3415-99.5171C43.4127-99.452 43.4961-99.3963 43.5687-99.3353C46.773-101.305 50.1313-103.052 53.6323-104.526C53.6264-104.601 53.6407-104.678 53.6323-104.753C52.876-111.425 61.8177-114.332 65.1272-108.49C65.1636-108.426 65.2143-108.371 65.2521-108.309C68.8931-109.173 72.637-109.761 76.463-110.069C76.4813-110.145 76.5152-110.219 76.5312-110.296Z"/>
   <path class="monochrome-1 multicolor-1:tintColor hierarchical-1:primary SFSymbolsPreviewWireframe" d="M50.4785 5.285C49.8212 4.794 49.5549 3.942 49.7915 3.156L64.8671-46.884C65.4761-48.9055 67.338-50.2891 69.4493-50.2891L95.6153-50.2891C97.7266-50.2891 99.5884-48.9055 100.197-46.884L115.273 3.156C115.51 3.941 115.243 4.794 114.586 5.285C105.644 11.96 94.5494 15.912 82.5322 15.912C70.5151 15.912 59.421 11.96 50.4785 5.285ZM58.8036-58.9334C58.8036-60.535 58.8036-61.3358 58.8754-62.0099C59.5122-67.988 64.2351-72.7109 70.2133-73.3478C70.8873-73.4196 71.6881-73.4196 73.2897-73.4196L91.7747-73.4196C93.3763-73.4196 94.1771-73.4196 94.8512-73.3478C100.829-72.7109 105.552-67.988 106.189-62.0099C106.261-61.3358 106.261-60.535 106.261-58.9334C106.261-58.6831 106.261-58.558 106.25-58.4527C106.15-57.5186 105.412-56.7807 104.478-56.6811C104.373-56.6699 104.248-56.6699 103.997-56.6699L61.067-56.6699C60.8168-56.6699 60.6916-56.6699 60.5863-56.6811C59.6522-56.7807 58.9143-57.5186 58.8148-58.4527C58.8036-58.558 58.8036-58.6831 58.8036-58.9334Z"/>
  </g>
  <g id="Regular-L" transform="matrix(1 0 0 1 1371.96 1556)">
   <path class="monochrome-0 multicolor-0:labelColor hierarchical-0:tertiary SFSymbolsPreviewWireframe" d="M71.8369-110.296C73.1792-116.875 82.5801-116.875 83.9224-110.296C83.9381-110.22 83.9611-110.144 83.9792-110.069C87.8059-109.757 91.5488-109.155 95.1901-108.286C95.233-108.356 95.2966-108.418 95.3377-108.49C98.6487-114.329 107.578-111.424 106.822-104.753C106.812-104.67 106.816-104.586 106.81-104.504C110.3-103.03 113.645-101.279 116.84-99.3126C116.926-99.3842 117.028-99.4397 117.112-99.5171C122.065-104.05 129.673-98.5178 126.892-92.4066C126.833-92.2763 126.794-92.1394 126.744-92.0091C129.552-89.5631 132.179-86.9169 134.593-84.0808C134.745-84.1368 134.907-84.1709 135.059-84.2398C141.17-87.0207 146.703-79.4128 142.169-74.4601C142.042-74.3206 141.929-74.1731 141.817-74.0285C143.7-70.8826 145.349-67.5824 146.758-64.1579C146.97-64.1612 147.187-64.1445 147.406-64.1693C154.076-64.9254 156.981-55.9964 151.143-52.6858C150.917-52.5581 150.707-52.4114 150.506-52.2655C151.295-48.7662 151.831-45.1756 152.108-41.5089C152.377-41.4159 152.655-41.3302 152.949-41.2704C159.527-39.9278 159.527-30.5272 152.949-29.1849C152.619-29.1177 152.304-29.0326 152.006-28.9237C151.675-25.3252 151.092-21.8036 150.268-18.3716C150.535-18.1576 150.827-17.96 151.143-17.7809C156.984-14.471 154.077-5.53 147.406-6.286C147.012-6.331 146.629-6.332 146.258-6.309C144.862-3.076 143.252 0.04 141.431 3.017C141.639 3.355 141.882 3.691 142.169 4.005C146.697 8.957 141.168 16.564 135.059 13.784C134.631 13.59 134.201 13.459 133.775 13.364C131.507 15.942 129.061 18.356 126.46 20.6C126.555 21.046 126.688 21.502 126.892 21.951C129.67 28.061 122.064 33.582 117.112 29.05C116.739 28.709 116.337 28.44 115.931 28.21C113.019 29.946 109.985 31.5 106.833 32.833C106.779 33.3 106.764 33.791 106.822 34.298C107.574 40.964 98.6497 43.866 95.3377 38.035C95.0748 37.571 94.753 37.166 94.4177 36.808C91.1603 37.549 87.8263 38.078 84.4222 38.376C84.2103 38.824 84.0303 39.312 83.9224 39.841C82.5762 46.412 73.1823 46.413 71.8369 39.841C71.7296 39.315 71.5472 38.833 71.3371 38.387C67.9259 38.092 64.583 37.57 61.3189 36.831C60.9931 37.183 60.6895 37.582 60.4329 38.035C57.1221 43.87 48.1857 40.965 48.938 34.298C48.9942 33.803 48.9652 33.324 48.9153 32.867C45.7512 31.533 42.7065 29.973 39.7831 28.233C39.3928 28.458 39.0068 28.721 38.6472 29.05C33.6956 33.582 26.0922 28.061 28.8675 21.951C29.061 21.526 29.182 21.091 29.2764 20.668C26.653 18.41 24.1798 15.984 21.8933 13.387C21.4994 13.481 21.0964 13.604 20.7007 13.784C14.5912 16.56 9.06988 8.956 13.6016 4.005C13.8687 3.713 14.0845 3.398 14.2831 3.085C12.442 0.083 10.807-3.058 9.39888-6.32C9.06128-6.336 8.71058-6.327 8.35398-6.286C1.68607-5.533-1.21879-14.47 4.61698-17.7809C4.90405-17.9436 5.16581-18.1345 5.41207-18.3261C4.58089-21.7797 3.98289-25.3241 3.6515-28.9464C3.38376-29.039 3.10304-29.1253 2.81097-29.1849C-3.76217-30.5298-3.7615-39.9248 2.81097-41.2704C3.07049-41.3234 3.3203-41.4071 3.56063-41.4862C3.83819-45.1763 4.37797-48.7903 5.17354-52.3109C4.99624-52.4362 4.81343-52.5744 4.61698-52.6858C-1.21568-55.9978 1.6866-64.923 8.35398-64.1693C8.54068-64.1481 8.72878-64.1634 8.91048-64.1579C10.3291-67.6046 11.9991-70.9208 13.8969-74.0853C13.7996-74.2082 13.7104-74.341 13.6016-74.4601C9.06878-79.4124 14.5902-87.0184 20.7007-84.2398C20.8258-84.183 20.9618-84.1516 21.0869-84.1035C23.5154-86.9551 26.1659-89.6091 28.9924-92.0658C28.9489-92.1771 28.918-92.2954 28.8675-92.4066C26.0871-98.5167 33.6944-104.046 38.6472-99.5171C38.7184-99.452 38.8018-99.3963 38.8744-99.3353C42.0787-101.305 45.437-103.052 48.938-104.526C48.9321-104.601 48.9464-104.678 48.938-104.753C48.1817-111.425 57.1234-114.332 60.4329-108.49C60.4693-108.426 60.52-108.371 60.5578-108.309C64.1988-109.173 67.9427-109.761 71.7687-110.069C71.787-110.145 71.8209-110.219 71.8369-110.296Z"/>
   <path class="monochrome-1 multicolor-1:tintColor hierarchical-1:primary SFSymbolsPreviewWireframe" d="M45.7842 5.285C45.1269 4.794 44.8606 3.942 45.0972 3.156L60.1728-46.884C60.7818-48.9055 62.6437-50.2891 64.755-50.2891L90.921-50.2891C93.0323-50.2891 94.8941-48.9055 95.5031-46.884L110.579 3.156C110.816 3.941 110.549 4.794 109.892 5.285C100.95 11.96 89.8551 15.912 77.8379 15.912C65.8208 15.912 54.7267 11.96 45.7842 5.285ZM54.1093-58.9334C54.1093-60.535 54.1093-61.3358 54.1811-62.0099C54.8179-67.988 59.5408-72.7109 65.519-73.3478C66.193-73.4196 66.9938-73.4196 68.5954-73.4196L87.0804-73.4196C88.682-73.4196 89.4828-73.4196 90.1569-73.3478C96.135-72.7109 100.858-67.988 101.495-62.0099C101.567-61.3358 101.567-60.535 101.567-58.9334C101.567-58.6831 101.567-58.558 101.556-58.4527C101.456-57.5186 100.718-56.7807 99.7837-56.6811C99.6787-56.6699 99.5537-56.6699 99.3027-56.6699L56.3727-56.6699C56.1225-56.6699 55.9973-56.6699 55.892-56.6811C54.9579-56.7807 54.22-57.5186 54.1205-58.4527C54.1093-58.558 54.1093-58.6831 54.1093-58.9334Z"/>
  </g>
  <g id="Ultralight-L" transform="matrix(1 0 0 1 486.539 1556)">
   <path class="monochrome-0 multicolor-0:labelColor hierarchical-0:tertiary SFSymbolsPreviewWireframe" d="M67.1275-110.296C68.4698-116.875 77.8707-116.875 79.213-110.296C79.2287-110.22 79.2517-110.144 79.2698-110.069C83.0965-109.757 86.8394-109.155 90.4807-108.286C90.5236-108.356 90.5872-108.418 90.6283-108.49C93.9393-114.329 102.868-111.424 102.112-104.753C102.102-104.67 102.106-104.586 102.1-104.504C105.59-103.03 108.935-101.279 112.13-99.3126C112.216-99.3842 112.318-99.4397 112.402-99.5171C117.355-104.05 124.963-98.5178 122.182-92.4066C122.123-92.2763 122.084-92.1394 122.034-92.0091C124.842-89.5631 127.469-86.9169 129.883-84.0808C130.035-84.1368 130.197-84.1709 130.349-84.2398C136.46-87.0207 141.993-79.4128 137.459-74.4601C137.332-74.3206 137.219-74.1731 137.107-74.0285C138.99-70.8826 140.639-67.5824 142.048-64.1579C142.26-64.1612 142.477-64.1445 142.696-64.1693C149.366-64.9254 152.271-55.9964 146.433-52.6858C146.207-52.5581 145.997-52.4114 145.796-52.2655C146.585-48.7662 147.121-45.1756 147.398-41.5089C147.667-41.4159 147.945-41.3302 148.239-41.2704C154.817-39.9278 154.817-30.5272 148.239-29.1849C147.909-29.1177 147.594-29.0326 147.296-28.9237C146.965-25.3252 146.382-21.8036 145.558-18.3716C145.825-18.1576 146.117-17.96 146.433-17.7809C152.274-14.471 149.367-5.53 142.696-6.286C142.302-6.331 141.919-6.332 141.548-6.309C140.152-3.076 138.542 0.04 136.721 3.017C136.929 3.355 137.172 3.691 137.459 4.005C141.987 8.957 136.458 16.564 130.349 13.784C129.921 13.59 129.491 13.459 129.065 13.364C126.797 15.942 124.351 18.356 121.75 20.6C121.845 21.046 121.978 21.502 122.182 21.951C124.96 28.061 117.354 33.582 112.402 29.05C112.029 28.709 111.627 28.44 111.221 28.21C108.309 29.946 105.275 31.5 102.123 32.833C102.069 33.3 102.054 33.791 102.112 34.298C102.864 40.964 93.9403 43.866 90.6283 38.035C90.3654 37.571 90.0436 37.166 89.7083 36.808C86.4509 37.549 83.1169 38.078 79.7128 38.376C79.5009 38.824 79.3209 39.312 79.213 39.841C77.8668 46.412 68.4729 46.413 67.1275 39.841C67.0202 39.315 66.8378 38.833 66.6277 38.387C63.2165 38.092 59.8736 37.57 56.6095 36.831C56.2837 37.183 55.9801 37.582 55.7235 38.035C52.4127 43.87 43.4763 40.965 44.2286 34.298C44.2848 33.803 44.2558 33.324 44.2059 32.867C41.0418 31.533 37.9971 29.973 35.0737 28.233C34.6834 28.458 34.2974 28.721 33.9378 29.05C28.9862 33.582 21.3828 28.061 24.1581 21.951C24.3516 21.526 24.4726 21.091 24.567 20.668C21.9436 18.41 19.4704 15.984 17.1839 13.387C16.79 13.481 16.387 13.604 15.9913 13.784C9.88183 16.56 4.36053 8.956 8.89223 4.005C9.15933 3.713 9.37513 3.398 9.57373 3.085C7.73263 0.083 6.09763-3.058 4.68953-6.32C4.35193-6.336 4.00123-6.327 3.64463-6.286C-3.02328-5.533-5.92814-14.47-0.092367-17.7809C0.194703-17.9436 0.456463-18.1345 0.702723-18.3261C-0.128457-21.7797-0.726457-25.3241-1.05785-28.9464C-1.32559-29.039-1.60631-29.1253-1.89838-29.1849C-8.47152-30.5298-8.47085-39.9248-1.89838-41.2704C-1.63886-41.3234-1.38905-41.4071-1.14872-41.4862C-0.871157-45.1763-0.331377-48.7903 0.464193-52.3109C0.286893-52.4362 0.104083-52.5744-0.092367-52.6858C-5.92503-55.9978-3.02275-64.923 3.64463-64.1693C3.83133-64.1481 4.01943-64.1634 4.20113-64.1579C5.61973-67.6046 7.28973-70.9208 9.18753-74.0853C9.09023-74.2082 9.00103-74.341 8.89223-74.4601C4.35943-79.4124 9.88083-87.0184 15.9913-84.2398C16.1164-84.183 16.2524-84.1516 16.3775-84.1035C18.806-86.9551 21.4565-89.6091 24.283-92.0658C24.2395-92.1771 24.2086-92.2954 24.1581-92.4066C21.3777-98.5167 28.985-104.046 33.9378-99.5171C34.009-99.452 34.0924-99.3963 34.165-99.3353C37.3693-101.305 40.7276-103.052 44.2286-104.526C44.2227-104.601 44.237-104.678 44.2286-104.753C43.4723-111.425 52.414-114.332 55.7235-108.49C55.7599-108.426 55.8106-108.371 55.8484-108.309C59.4894-109.173 63.2333-109.761 67.0593-110.069C67.0776-110.145 67.1115-110.219 67.1275-110.296Z"/>
   <path class="monochrome-1 multicolor-1:tintColor hierarchical-1:primary SFSymbolsPreviewWireframe" d="M41.0748 5.285C40.4175 4.794 40.1512 3.942 40.3878 3.156L55.4634-46.884C56.0724-48.9055 57.9343-50.2891 60.0456-50.2891L86.2116-50.2891C88.3229-50.2891 90.1847-48.9055 90.7937-46.884L105.869 3.156C106.106 3.941 105.839 4.794 105.182 5.285C96.2403 11.96 85.1457 15.912 73.1285 15.912C61.1114 15.912 50.0173 11.96 41.0748 5.285ZM49.3999-58.9334C49.3999-60.535 49.3999-61.3358 49.4717-62.0099C50.1085-67.988 54.8314-72.7109 60.8096-73.3478C61.4836-73.4196 62.2844-73.4196 63.886-73.4196L82.371-73.4196C83.9726-73.4196 84.7734-73.4196 85.4475-73.3478C91.4256-72.7109 96.1483-67.988 96.7853-62.0099C96.8573-61.3358 96.8573-60.535 96.8573-58.9334C96.8573-58.6831 96.8573-58.558 96.8463-58.4527C96.7463-57.5186 96.0083-56.7807 95.0743-56.6811C94.9693-56.6699 94.8443-56.6699 94.5933-56.6699L51.6633-56.6699C51.4131-56.6699 51.2879-56.6699 51.1826-56.6811C50.2485-56.7807 49.5106-57.5186 49.4111-58.4527C49.3999-58.558 49.3999-58.6831 49.3999-58.9334Z"/>
  </g>
  <g id="Black-M" transform="matrix(1 0 0 1 2866.79 1126)">
   <path class="monochrome-0 multicolor-0:labelColor hierarchical-0:tertiary SFSymbolsPreviewWireframe" d="M61.7701-95.283C62.844-100.546 70.3647-100.546 71.4385-95.283C71.4511-95.2217 71.4695-95.1614 71.484-95.1013C74.5453-94.8515 77.5396-94.3696 80.4527-93.6747C80.487-93.7305 80.5379-93.7803 80.5708-93.8382C83.2196-98.5089 90.3628-96.185 89.758-90.8486C89.75-90.7822 89.7532-90.7145 89.7484-90.6488C92.5404-89.4697 95.2164-88.0692 97.7724-86.4961C97.8412-86.5534 97.9228-86.5978 97.99-86.6597C101.952-90.2862 108.039-85.8602 105.814-80.9713C105.767-80.867 105.736-80.7575 105.696-80.6533C107.942-78.6965 110.044-76.5795 111.975-74.3106C112.096-74.3554 112.226-74.3827 112.348-74.4378C117.236-76.6626 121.663-70.5762 118.036-66.6141C117.934-66.5025 117.844-66.3845 117.754-66.2688C119.26-63.7521 120.58-61.1119 121.707-58.3723C121.876-58.375 122.05-58.3616 122.225-58.3814C127.561-58.9863 129.885-51.8431 125.215-49.1946C125.034-49.0925 124.866-48.9751 124.705-48.8584C125.336-46.059 125.765-43.1865 125.987-40.2531C126.202-40.1787 126.424-40.1102 126.66-40.0623C131.922-38.9882 131.922-31.4678 126.66-30.3939C126.396-30.3402 126.144-30.2721 125.905-30.185C125.64-27.3062 125.174-24.4889 124.515-21.7433C124.728-21.5721 124.962-21.414 125.215-21.2707C129.888-18.6228 127.562-11.47 122.225-12.0748C121.91-12.1108 121.604-12.1116 121.307-12.0932C120.19-9.5068 118.902-7.014 117.445-4.6324C117.612-4.362 117.806-4.0932 118.036-3.842C121.658 0.1196 117.235 6.2052 112.348 3.9812C112.005 3.826 111.661 3.7212 111.32 3.6452C109.506 5.7076 107.549 7.6388 105.468 9.434C105.544 9.7908 105.651 10.1556 105.814 10.5148C108.036 15.4028 101.952 19.8196 97.99 16.194C97.6916 15.9212 97.37 15.706 97.0452 15.522C94.7156 16.9108 92.2884 18.154 89.7668 19.2204C89.7236 19.594 89.7116 19.9868 89.758 20.3924C90.3596 25.7252 83.2204 28.0468 80.5708 23.382C80.3604 23.0108 80.103 22.6868 79.8348 22.4004C77.2288 22.9932 74.5616 23.4164 71.8384 23.6548C71.6688 24.0132 71.5248 24.4036 71.4385 24.8268C70.3616 30.0836 62.8464 30.0844 61.7701 24.8268C61.6843 24.406 61.5384 24.0204 61.3703 23.6636C58.6413 23.4276 55.967 23.01 53.3557 22.4188C53.0951 22.7004 52.8522 23.0196 52.6469 23.382C49.9983 28.05 42.8492 25.726 43.451 20.3924C43.496 19.9964 43.4728 19.6132 43.4328 19.2476C40.9016 18.1804 38.4658 16.9324 36.1271 15.5404C35.8148 15.7204 35.506 15.9308 35.2184 16.194C31.2571 19.8196 25.1744 15.4028 27.3946 10.5148C27.5494 10.1748 27.6462 9.8268 27.7217 9.4884C25.623 7.682 23.6444 5.7412 21.8152 3.6636C21.5001 3.7388 21.1777 3.8372 20.8612 3.9812C15.9736 6.202 11.5565 0.1188 15.1819-3.842C15.3956-4.0756 15.5682-4.3276 15.7271-4.578C14.2542-6.9796 12.9462-9.4924 11.8197-12.102C11.5496-12.1148 11.2691-12.1076 10.9838-12.0748C5.64947-11.4724 3.32558-18.622 7.9942-21.2707C8.22386-21.4009 8.43326-21.5536 8.63027-21.7069C7.96533-24.4698 7.48693-27.3053 7.22182-30.2031C7.00762-30.2772 6.78305-30.3462 6.54939-30.3939C1.29088-31.4698 1.29142-38.9858 6.54939-40.0623C6.75701-40.1047 6.95686-40.1717 7.14912-40.235C7.37117-43.187 7.80299-46.0782 8.43945-48.8947C8.29761-48.995 8.15136-49.1055 7.9942-49.1946C3.32807-51.8442 5.6499-58.9844 10.9838-58.3814C11.1332-58.3645 11.2836-58.3767 11.429-58.3723C12.5639-61.1297 13.8999-63.7826 15.4181-66.3142C15.3403-66.4126 15.2689-66.5188 15.1819-66.6141C11.5556-70.5759 15.9728-76.6607 20.8612-74.4378C20.9612-74.3924 21.07-74.3673 21.1701-74.3288C23.1129-76.6101 25.2333-78.7333 27.4945-80.6986C27.4597-80.7877 27.435-80.8823 27.3946-80.9713C25.1703-85.8594 31.2561-90.2826 35.2184-86.6597C35.2753-86.6076 35.342-86.563 35.4001-86.5142C37.9636-88.0902 40.6502-89.4874 43.451-90.667C43.4463-90.7266 43.4577-90.7884 43.451-90.8486C42.846-96.1858 49.9993-98.5117 52.6469-93.8382C52.676-93.787 52.7166-93.7425 52.7468-93.6929C55.6596-94.3846 58.6548-94.8545 61.7156-95.1013C61.7302-95.1621 61.7573-95.2209 61.7701-95.283Z"/>
   <path class="monochrome-1 multicolor-1:tintColor hierarchical-1:primary SFSymbolsPreviewWireframe" d="M40.928-2.818C40.4021-3.2108 40.1891-3.8924 40.3784-4.5212L52.4388-44.5532C52.926-46.1704 54.4156-47.2773 56.1046-47.2773L77.0374-47.2773C78.7264-47.2773 80.2159-46.1704 80.7031-44.5532L92.7636-4.5212C92.9532-3.8932 92.7396-3.2108 92.214-2.818C85.0604 2.522 76.1847 5.6836 66.5709 5.6836C56.9572 5.6836 48.082 2.522 40.928-2.818ZM47.588-54.1927C47.588-55.474 47.588-56.1146 47.6455-56.6539C48.1549-61.4364 51.9332-65.2147 56.7158-65.7242C57.255-65.7817 57.8956-65.7817 59.1769-65.7817L73.9649-65.7817C75.2462-65.7817 75.8868-65.7817 76.4261-65.7242C81.2086-65.2147 84.9868-61.4364 85.4964-56.6539C85.554-56.1146 85.554-55.474 85.554-54.1927C85.554-53.9925 85.554-53.8924 85.5452-53.8082C85.4652-53.0609 84.8748-52.4706 84.1276-52.3909C84.0436-52.3819 83.9436-52.3819 83.7428-52.3819L49.3988-52.3819C49.1986-52.3819 49.0984-52.3819 49.0142-52.3909C48.2669-52.4706 47.6766-53.0609 47.597-53.8082C47.588-53.8924 47.588-53.9925 47.588-54.1927Z"/>
  </g>
  <g id="Regular-M" transform="matrix(1 0 0 1 1386.59 1126)">
   <path class="monochrome-0 multicolor-0:labelColor hierarchical-0:tertiary SFSymbolsPreviewWireframe" d="M58.4176-95.283C59.4914-100.546 67.0121-100.546 68.086-95.283C68.0985-95.2217 68.1169-95.1614 68.1314-95.1013C71.1928-94.8515 74.1871-94.3696 77.1001-93.6747C77.1344-93.7305 77.1853-93.7803 77.2182-93.8382C79.867-98.5089 87.0102-96.185 86.4054-90.8486C86.3974-90.7822 86.4006-90.7145 86.3958-90.6488C89.1878-89.4697 91.8638-88.0692 94.4198-86.4961C94.4886-86.5534 94.5702-86.5978 94.6374-86.6597C98.5998-90.2862 104.686-85.8602 102.461-80.9713C102.414-80.867 102.383-80.7575 102.343-80.6533C104.589-78.6965 106.691-76.5795 108.622-74.3106C108.744-74.3554 108.873-74.3827 108.995-74.4378C113.884-76.6626 118.31-70.5762 114.683-66.6141C114.581-66.5025 114.491-66.3845 114.401-66.2688C115.908-63.7521 117.227-61.1119 118.354-58.3723C118.524-58.375 118.697-58.3616 118.873-58.3814C124.209-58.9863 126.533-51.8431 121.862-49.1946C121.681-49.0925 121.513-48.9751 121.353-48.8584C121.984-46.059 122.413-43.1865 122.634-40.2531C122.849-40.1787 123.072-40.1102 123.307-40.0623C128.569-38.9882 128.569-31.4678 123.307-30.3939C123.043-30.3402 122.791-30.2721 122.553-30.185C122.288-27.3062 121.821-24.4889 121.162-21.7433C121.376-21.5721 121.609-21.414 121.862-21.2707C126.535-18.6228 124.209-11.47 118.873-12.0748C118.557-12.1108 118.251-12.1116 117.954-12.0932C116.837-9.5068 115.549-7.014 114.093-4.6324C114.259-4.362 114.453-4.0932 114.683-3.842C118.305 0.1196 113.882 6.2052 108.995 3.9812C108.653 3.826 108.309 3.7212 107.968 3.6452C106.153 5.7076 104.197 7.6388 102.116 9.434C102.192 9.7908 102.298 10.1556 102.461 10.5148C104.684 15.4028 98.599 19.8196 94.6374 16.194C94.339 15.9212 94.0174 15.706 93.6926 15.522C91.363 16.9108 88.9358 18.154 86.4142 19.2204C86.371 19.594 86.359 19.9868 86.4054 20.3924C87.007 25.7252 79.8678 28.0468 77.2182 23.382C77.0079 23.0108 76.7504 22.6868 76.4822 22.4004C73.8763 22.9932 71.2091 23.4164 68.4858 23.6548C68.3163 24.0132 68.1723 24.4036 68.086 24.8268C67.009 30.0836 59.4939 30.0844 58.4176 24.8268C58.3317 24.406 58.1858 24.0204 58.0177 23.6636C55.2888 23.4276 52.6144 23.01 50.0032 22.4188C49.7425 22.7004 49.4996 23.0196 49.2944 23.382C46.6457 28.05 39.4966 25.726 40.0984 20.3924C40.1434 19.9964 40.1202 19.6132 40.0803 19.2476C37.549 18.1804 35.1132 16.9324 32.7745 15.5404C32.4623 15.7204 32.1535 15.9308 31.8658 16.194C27.9045 19.8196 21.8218 15.4028 24.042 10.5148C24.1968 10.1748 24.2936 9.8268 24.3692 9.4884C22.2704 7.682 20.2919 5.7412 18.4627 3.6636C18.1476 3.7388 17.8252 3.8372 17.5086 3.9812C12.621 6.202 8.20396 0.1188 11.8293-3.842C12.043-4.0756 12.2156-4.3276 12.3745-4.578C10.9016-6.9796 9.59364-9.4924 8.46716-12.102C8.19708-12.1148 7.91652-12.1076 7.63124-12.0748C2.29691-11.4724-0.0269783-18.622 4.64164-21.2707C4.87129-21.4009 5.0807-21.5536 5.27771-21.7069C4.61277-24.4698 4.13437-27.3053 3.86925-30.2031C3.65506-30.2772 3.43049-30.3462 3.19683-30.3939C-2.06168-31.4698-2.06115-38.9858 3.19683-40.0623C3.40445-40.1047 3.60429-40.1717 3.79656-40.235C4.01861-43.187 4.45043-46.0782 5.08689-48.8947C4.94505-48.995 4.7988-49.1055 4.64164-49.1946C-0.0244895-51.8442 2.29733-58.9844 7.63124-58.3814C7.7806-58.3645 7.93108-58.3767 8.07644-58.3723C9.21132-61.1297 10.5473-63.7826 12.0656-66.3142C11.9877-66.4126 11.9164-66.5188 11.8293-66.6141C8.20308-70.5759 12.6202-76.6607 17.5086-74.4378C17.6087-74.3924 17.7175-74.3673 17.8176-74.3288C19.7604-76.6101 21.8808-78.7333 24.142-80.6986C24.1072-80.7877 24.0824-80.8823 24.042-80.9713C21.8177-85.8594 27.9036-90.2826 31.8658-86.6597C31.9228-86.6076 31.9895-86.563 32.0476-86.5142C34.611-88.0902 37.2976-89.4874 40.0984-90.667C40.0937-90.7266 40.1052-90.7884 40.0984-90.8486C39.4934-96.1858 46.6468-98.5117 49.2944-93.8382C49.3235-93.787 49.364-93.7425 49.3943-93.6929C52.3071-94.3846 55.3022-94.8545 58.363-95.1013C58.3776-95.1621 58.4048-95.2209 58.4176-95.283Z"/>
   <path class="monochrome-1 multicolor-1:tintColor hierarchical-1:primary SFSymbolsPreviewWireframe" d="M37.5754-2.818C37.0496-3.2108 36.8365-3.8924 37.0258-4.5212L49.0863-44.5532C49.5735-46.1704 51.063-47.2773 52.752-47.2773L73.6848-47.2773C75.3739-47.2773 76.8633-46.1704 77.3505-44.5532L89.411-4.5212C89.6006-3.8932 89.387-3.2108 88.8614-2.818C81.7078 2.522 72.8321 5.6836 63.2184 5.6836C53.6047 5.6836 44.7294 2.522 37.5754-2.818ZM44.2355-54.1927C44.2355-55.474 44.2355-56.1146 44.2929-56.6539C44.8024-61.4364 48.5807-65.2147 53.3632-65.7242C53.9024-65.7817 54.5431-65.7817 55.8244-65.7817L70.6124-65.7817C71.8936-65.7817 72.5343-65.7817 73.0736-65.7242C77.856-65.2147 81.6342-61.4364 82.1438-56.6539C82.2014-56.1146 82.2014-55.474 82.2014-54.1927C82.2014-53.9925 82.2014-53.8924 82.1926-53.8082C82.1126-53.0609 81.5222-52.4706 80.775-52.3909C80.691-52.3819 80.591-52.3819 80.3902-52.3819L46.0462-52.3819C45.846-52.3819 45.7459-52.3819 45.6616-52.3909C44.9144-52.4706 44.324-53.0609 44.2444-53.8082C44.2355-53.8924 44.2355-53.9925 44.2355-54.1927Z"/>
  </g>
  <g id="Ultralight-M" transform="matrix(1 0 0 1 500.68 1126)">
   <path class="monochrome-0 multicolor-0:labelColor hierarchical-0:tertiary SFSymbolsPreviewWireframe" d="M54.1954-95.283C55.2692-100.546 62.7899-100.546 63.8638-95.283C63.8763-95.2217 63.8947-95.1614 63.9092-95.1013C66.9706-94.8515 69.9649-94.3696 72.8779-93.6747C72.9123-93.7305 72.9631-93.7803 72.996-93.8382C75.6448-98.5089 82.788-96.185 82.1832-90.8486C82.1752-90.7822 82.1784-90.7145 82.1736-90.6488C84.9656-89.4697 87.6416-88.0692 90.1976-86.4961C90.2664-86.5534 90.348-86.5978 90.4152-86.6597C94.3776-90.2862 100.464-85.8602 98.2392-80.9713C98.192-80.867 98.1608-80.7575 98.1208-80.6533C100.367-78.6965 102.469-76.5795 104.4-74.3106C104.522-74.3554 104.651-74.3827 104.773-74.4378C109.662-76.6626 114.088-70.5762 110.461-66.6141C110.359-66.5025 110.269-66.3845 110.179-66.2688C111.686-63.7521 113.005-61.1119 114.132-58.3723C114.302-58.375 114.475-58.3616 114.65-58.3814C119.986-58.9863 122.31-51.8431 117.64-49.1946C117.459-49.0925 117.291-48.9751 117.13-48.8584C117.762-46.059 118.19-43.1865 118.412-40.2531C118.627-40.1787 118.85-40.1102 119.085-40.0623C124.347-38.9882 124.347-31.4678 119.085-30.3939C118.821-30.3402 118.569-30.2721 118.33-30.185C118.066-27.3062 117.599-24.4889 116.94-21.7433C117.154-21.5721 117.387-21.414 117.64-21.2707C122.313-18.6228 119.987-11.47 114.65-12.0748C114.335-12.1108 114.029-12.1116 113.732-12.0932C112.615-9.5068 111.327-7.014 109.87-4.6324C110.037-4.362 110.231-4.0932 110.461-3.842C114.083 0.1196 109.66 6.2052 104.773 3.9812C104.43 3.826 104.086 3.7212 103.746 3.6452C101.931 5.7076 99.9744 7.6388 97.8936 9.434C97.9696 9.7908 98.076 10.1556 98.2392 10.5148C100.462 15.4028 94.3768 19.8196 90.4152 16.194C90.1168 15.9212 89.7952 15.706 89.4704 15.522C87.1408 16.9108 84.7136 18.154 82.192 19.2204C82.1488 19.594 82.1368 19.9868 82.1832 20.3924C82.7848 25.7252 75.6456 28.0468 72.996 23.382C72.7857 23.0108 72.5283 22.6868 72.26 22.4004C69.6541 22.9932 66.9869 23.4164 64.2636 23.6548C64.0941 24.0132 63.9501 24.4036 63.8638 24.8268C62.7868 30.0836 55.2717 30.0844 54.1954 24.8268C54.1095 24.406 53.9636 24.0204 53.7955 23.6636C51.0666 23.4276 48.3923 23.01 45.781 22.4188C45.5203 22.7004 45.2775 23.0196 45.0722 23.382C42.4235 28.05 35.2744 25.726 35.8763 20.3924C35.9212 19.9964 35.898 19.6132 35.8581 19.2476C33.3268 18.1804 30.8911 16.9324 28.5523 15.5404C28.2401 15.7204 27.9313 15.9308 27.6436 16.194C23.6823 19.8196 17.5996 15.4028 19.8199 10.5148C19.9747 10.1748 20.0715 9.8268 20.147 9.4884C18.0483 7.682 16.0697 5.7412 14.2405 3.6636C13.9254 3.7388 13.603 3.8372 13.2864 3.9812C8.39882 6.202 3.98178 0.1188 7.60714-3.842C7.82082-4.0756 7.99346-4.3276 8.15234-4.578C6.67946-6.9796 5.37146-9.4924 4.24498-12.102C3.9749-12.1148 3.69434-12.1076 3.40906-12.0748C-1.92526-11.4724-4.24915-18.622 0.419464-21.2707C0.64912-21.4009 0.858528-21.5536 1.05554-21.7069C0.390592-24.4698-0.0878082-27.3053-0.35292-30.2031C-0.567112-30.2772-0.791688-30.3462-1.02534-30.3939C-6.28386-31.4698-6.28332-38.9858-1.02534-40.0623C-0.817728-40.1047-0.61788-40.1717-0.425616-40.235C-0.203568-43.187 0.228256-46.0782 0.864712-48.8947C0.722872-48.995 0.576624-49.1055 0.419464-49.1946C-4.24666-51.8442-1.92484-58.9844 3.40906-58.3814C3.55842-58.3645 3.7089-58.3767 3.85426-58.3723C4.98914-61.1297 6.32514-63.7826 7.84338-66.3142C7.76554-66.4126 7.69418-66.5188 7.60714-66.6141C3.9809-70.5759 8.39802-76.6607 13.2864-74.4378C13.3865-74.3924 13.4953-74.3673 13.5954-74.3288C15.5382-76.6101 17.6586-78.7333 19.9198-80.6986C19.885-80.7877 19.8603-80.8823 19.8199-80.9713C17.5955-85.8594 23.6814-90.2826 27.6436-86.6597C27.7006-86.6076 27.7673-86.563 27.8254-86.5142C30.3888-88.0902 33.0755-89.4874 35.8763-90.667C35.8715-90.7266 35.883-90.7884 35.8763-90.8486C35.2712-96.1858 42.4246-98.5117 45.0722-93.8382C45.1013-93.787 45.1419-93.7425 45.1721-93.6929C48.0849-94.3846 51.08-94.8545 54.1408-95.1013C54.1555-95.1621 54.1826-95.2209 54.1954-95.283Z"/>
   <path class="monochrome-1 multicolor-1:tintColor hierarchical-1:primary SFSymbolsPreviewWireframe" d="M33.3532-2.818C32.8274-3.2108 32.6143-3.8924 32.8036-4.5212L44.8641-44.5532C45.3513-46.1704 46.8408-47.2773 48.5299-47.2773L69.4627-47.2773C71.1517-47.2773 72.6411-46.1704 73.1283-44.5532L85.1888-4.5212C85.3784-3.8932 85.1648-3.2108 84.6392-2.818C77.4856 2.522 68.6099 5.6836 58.9962 5.6836C49.3825 5.6836 40.5072 2.522 33.3532-2.818ZM40.0133-54.1927C40.0133-55.474 40.0133-56.1146 40.0707-56.6539C40.5802-61.4364 44.3585-65.2147 49.1411-65.7242C49.6803-65.7817 50.3209-65.7817 51.6022-65.7817L66.3902-65.7817C67.6715-65.7817 68.3121-65.7817 68.8514-65.7242C73.6339-65.2147 77.412-61.4364 77.9216-56.6539C77.9792-56.1146 77.9792-55.474 77.9792-54.1927C77.9792-53.9925 77.9792-53.8924 77.9704-53.8082C77.8904-53.0609 77.3-52.4706 76.5528-52.3909C76.4688-52.3819 76.3688-52.3819 76.168-52.3819L41.824-52.3819C41.6239-52.3819 41.5237-52.3819 41.4395-52.3909C40.6922-52.4706 40.1019-53.0609 40.0223-53.8082C40.0133-53.8924 40.0133-53.9925 40.0133-54.1927Z"/>
  </g>
  <g id="Black-S" transform="matrix(1 0 0 1 2883.2 696)">
   <path class="monochrome-0 multicolor-0:labelColor hierarchical-0:tertiary SFSymbolsPreviewWireframe" d="M46.5731-80.2693C47.3785-84.2165 53.019-84.2165 53.8244-80.2693C53.8338-80.2232 53.8476-80.178 53.8585-80.133C56.1545-79.9456 58.4003-79.5842 60.585-79.063C60.6108-79.1049 60.6489-79.1423 60.6736-79.1857C62.6602-82.6887 68.0176-80.9458 67.564-76.9435C67.558-76.8936 67.5604-76.8429 67.5568-76.7936C69.6508-75.9093 71.6578-74.8589 73.5748-73.6791C73.6264-73.722 73.6876-73.7553 73.738-73.8018C76.7098-76.5217 81.2746-73.2022 79.606-69.5355C79.5706-69.4573 79.5472-69.3751 79.5172-69.297C81.202-67.8294 82.7782-66.2416 84.2266-64.54C84.3178-64.5736 84.415-64.594 84.5062-64.6354C88.1728-66.3039 91.4926-61.7392 88.7722-58.7676C88.696-58.6839 88.6282-58.5954 88.561-58.5086C89.6908-56.6211 90.6802-54.6409 91.5256-52.5862C91.6528-52.5882 91.783-52.5782 91.9144-52.5931C95.9164-53.0467 97.6594-47.6893 94.1566-45.703C94.021-45.6264 93.895-45.5383 93.7744-45.4508C94.2478-43.3512 94.5694-41.1969 94.7356-38.9968C94.897-38.941 95.0638-38.8896 95.2402-38.8537C99.187-38.0482 99.187-32.4078 95.2402-31.6024C95.0422-31.5621 94.8532-31.5111 94.6744-31.4457C94.4758-29.2866 94.126-27.1737 93.6316-25.1145C93.7918-24.9861 93.967-24.8675 94.1566-24.76C97.6612-22.7741 95.917-17.4095 91.9144-17.8631C91.678-17.8901 91.4482-17.8907 91.2256-17.8769C90.388-15.9371 89.422-14.0675 88.3294-12.2813C88.4542-12.0785 88.6-11.8769 88.7722-11.6885C91.489-8.7173 88.1716-4.1531 84.5062-5.8211C84.2494-5.9375 83.9914-6.0161 83.7358-6.0731C82.375-4.5263 80.9074-3.0779 79.3468-1.7315C79.4038-1.4639 79.4836-1.1903 79.606-0.9209C81.2728 2.7451 76.7092 6.0577 73.738 3.3385C73.5142 3.1339 73.273 2.9725 73.0294 2.8345C71.2822 3.8761 69.4618 4.8085 67.5706 5.6083C67.5382 5.8885 67.5292 6.1831 67.564 6.4873C68.0152 10.4869 62.6608 12.2281 60.6736 8.7295C60.5159 8.4511 60.3228 8.2081 60.1216 7.9933C58.1672 8.4379 56.1668 8.7553 54.1243 8.9341C53.9972 9.2029 53.8892 9.4957 53.8244 9.8131C53.0167 13.7557 47.3804 13.7563 46.5731 9.8131C46.5087 9.4975 46.3993 9.2083 46.2732 8.9407C44.2265 8.7637 42.2208 8.4505 40.2623 8.0071C40.0668 8.2183 39.8847 8.4577 39.7307 8.7295C37.7442 12.2305 32.3824 10.4875 32.8338 6.4873C32.8675 6.1903 32.8501 5.9029 32.8202 5.6287C30.9217 4.8283 29.0949 3.8923 27.3408 2.8483C27.1067 2.9833 26.8751 3.1411 26.6593 3.3385C23.6883 6.0577 19.1263 2.7451 20.7915-0.9209C20.9076-1.1759 20.9802-1.4369 21.0368-1.6907C19.4628-3.0455 17.9789-4.5011 16.607-6.0593C16.3706-6.0029 16.1288-5.9291 15.8914-5.8211C12.2257-4.1555 8.91292-8.7179 11.6319-11.6885C11.7922-11.8637 11.9217-12.0527 12.0408-12.2405C10.9362-14.0417 9.95518-15.9263 9.11032-17.8835C8.90776-17.8931 8.69734-17.8877 8.48338-17.8631C4.48263-17.4113 2.73972-22.7735 6.24118-24.76C6.41342-24.8577 6.57048-24.9722 6.71823-25.0872C6.21953-27.1593 5.86073-29.286 5.66189-31.4593C5.50125-31.5149 5.33282-31.5667 5.15757-31.6024C1.21369-32.4094 1.21409-38.0464 5.15757-38.8537C5.31329-38.8855 5.46317-38.9358 5.60737-38.9832C5.77391-41.1973 6.09777-43.3657 6.57512-45.478C6.46874-45.5532 6.35905-45.6361 6.24118-45.703C2.74158-47.6902 4.48295-53.0453 8.48338-52.5931C8.5954-52.5804 8.70826-52.5895 8.81728-52.5862C9.66844-54.6543 10.6704-56.644 11.8091-58.5427C11.7507-58.6164 11.6972-58.6961 11.6319-58.7676C8.91226-61.7389 12.2251-66.3025 15.8914-64.6354C15.9665-64.6013 16.0481-64.5825 16.1231-64.5536C17.5802-66.2646 19.1705-67.857 20.8664-69.331C20.8403-69.3978 20.8218-69.4687 20.7915-69.5355C19.1232-73.2015 23.6876-76.519 26.6593-73.8018C26.702-73.7627 26.7521-73.7293 26.7956-73.6927C28.7182-74.8746 30.7332-75.9226 32.8338-76.8072C32.8302-76.8519 32.8388-76.8983 32.8338-76.9435C32.38-80.9464 37.745-82.6908 39.7307-79.1857C39.7526-79.1473 39.783-79.1139 39.8057-79.0766C41.9903-79.5955 44.2366-79.9479 46.5322-80.133C46.5432-80.1786 46.5635-80.2227 46.5731-80.2693Z"/>
   <path class="monochrome-1 multicolor-1:tintColor hierarchical-1:primary SFSymbolsPreviewWireframe" d="M30.9415-10.9205C30.5471-11.2151 30.3873-11.7263 30.5293-12.1979L39.5747-42.2219C39.9401-43.4348 41.0572-44.265 42.324-44.265L58.0236-44.265C59.2904-44.265 60.4074-43.4348 60.7728-42.2219L69.8182-12.1979C69.9604-11.7269 69.8002-11.2151 69.406-10.9205C64.0408-6.9155 57.384-4.5443 50.1737-4.5443C42.9635-4.5443 36.307-6.9155 30.9415-10.9205ZM35.9366-49.4515C35.9366-50.4125 35.9366-50.893 35.9796-51.2974C36.3617-54.8843 39.1955-57.718 42.7824-58.1002C43.1868-58.1433 43.6673-58.1433 44.6282-58.1433L55.7192-58.1433C56.6802-58.1433 57.1607-58.1433 57.5651-58.1002C61.152-57.718 63.9856-54.8843 64.3678-51.2974C64.411-50.893 64.411-50.4125 64.411-49.4515C64.411-49.3014 64.411-49.2263 64.4044-49.1631C64.3444-48.6027 63.9016-48.1599 63.3412-48.1002C63.2782-48.0934 63.2032-48.0934 63.0526-48.0934L37.2946-48.0934C37.1445-48.0934 37.0694-48.0934 37.0062-48.1002C36.4457-48.1599 36.003-48.6027 35.9433-49.1631C35.9366-49.2263 35.9366-49.3014 35.9366-49.4515Z"/>
  </g>
  <g id="Regular-S" transform="matrix(1 0 0 1 1401.75 696)">
   <path class="monochrome-0 multicolor-0:labelColor hierarchical-0:tertiary SFSymbolsPreviewWireframe" d="M44.4681-80.2693C45.2735-84.2165 50.914-84.2165 51.7194-80.2693C51.7288-80.2232 51.7426-80.178 51.7535-80.133C54.0495-79.9456 56.2953-79.5842 58.48-79.063C58.5058-79.1049 58.5439-79.1423 58.5686-79.1857C60.5552-82.6887 65.9126-80.9458 65.459-76.9435C65.453-76.8936 65.4554-76.8429 65.4518-76.7936C67.5458-75.9093 69.5528-74.8589 71.4698-73.6791C71.5214-73.722 71.5826-73.7553 71.633-73.8018C74.6048-76.5217 79.1696-73.2022 77.501-69.5355C77.4656-69.4573 77.4422-69.3751 77.4122-69.297C79.097-67.8294 80.6732-66.2416 82.1216-64.54C82.2128-64.5736 82.31-64.594 82.4012-64.6354C86.0678-66.3039 89.3876-61.7392 86.6672-58.7676C86.591-58.6839 86.5232-58.5954 86.456-58.5086C87.5858-56.6211 88.5752-54.6409 89.4206-52.5862C89.5478-52.5882 89.678-52.5782 89.8094-52.5931C93.8114-53.0467 95.5544-47.6893 92.0516-45.703C91.916-45.6264 91.79-45.5383 91.6694-45.4508C92.1428-43.3512 92.4644-41.1969 92.6306-38.9968C92.792-38.941 92.9588-38.8896 93.1352-38.8537C97.082-38.0482 97.082-32.4078 93.1352-31.6024C92.9372-31.5621 92.7482-31.5111 92.5694-31.4457C92.3708-29.2866 92.021-27.1737 91.5266-25.1145C91.6868-24.9861 91.862-24.8675 92.0516-24.76C95.5562-22.7741 93.812-17.4095 89.8094-17.8631C89.573-17.8901 89.3432-17.8907 89.1206-17.8769C88.283-15.9371 87.317-14.0675 86.2244-12.2813C86.3492-12.0785 86.495-11.8769 86.6672-11.6885C89.384-8.7173 86.0666-4.1531 82.4012-5.8211C82.1444-5.9375 81.8864-6.0161 81.6308-6.0731C80.27-4.5263 78.8024-3.0779 77.2418-1.7315C77.2988-1.4639 77.3786-1.1903 77.501-0.9209C79.1678 2.7451 74.6042 6.0577 71.633 3.3385C71.4092 3.1339 71.168 2.9725 70.9244 2.8345C69.1772 3.8761 67.3568 4.8085 65.4656 5.6083C65.4332 5.8885 65.4242 6.1831 65.459 6.4873C65.9102 10.4869 60.5558 12.2281 58.5686 8.7295C58.4109 8.4511 58.2178 8.2081 58.0166 7.9933C56.0622 8.4379 54.0618 8.7553 52.0193 8.9341C51.8922 9.2029 51.7842 9.4957 51.7194 9.8131C50.9117 13.7557 45.2754 13.7563 44.4681 9.8131C44.4037 9.4975 44.2943 9.2083 44.1682 8.9407C42.1215 8.7637 40.1158 8.4505 38.1573 8.0071C37.9618 8.2183 37.7797 8.4577 37.6257 8.7295C35.6392 12.2305 30.2774 10.4875 30.7288 6.4873C30.7625 6.1903 30.7451 5.9029 30.7152 5.6287C28.8167 4.8283 26.9899 3.8923 25.2358 2.8483C25.0017 2.9833 24.7701 3.1411 24.5543 3.3385C21.5833 6.0577 17.0213 2.7451 18.6865-0.9209C18.8026-1.1759 18.8752-1.4369 18.9318-1.6907C17.3578-3.0455 15.8739-4.5011 14.502-6.0593C14.2656-6.0029 14.0238-5.9291 13.7864-5.8211C10.1207-4.1555 6.80792-8.7179 9.52694-11.6885C9.6872-11.8637 9.81668-12.0527 9.93584-12.2405C8.83118-14.0417 7.85018-15.9263 7.00532-17.8835C6.80276-17.8931 6.59234-17.8877 6.37838-17.8631C2.37763-17.4113 0.634718-22.7735 4.13618-24.76C4.30842-24.8577 4.46548-24.9722 4.61323-25.0872C4.11453-27.1593 3.75573-29.286 3.55689-31.4593C3.39625-31.5149 3.22782-31.5667 3.05257-31.6024C-0.89131-32.4094-0.890908-38.0464 3.05257-38.8537C3.20829-38.8855 3.35817-38.9358 3.50237-38.9832C3.66891-41.1973 3.99277-43.3657 4.47012-45.478C4.36374-45.5532 4.25405-45.6361 4.13618-45.703C0.636585-47.6902 2.37795-53.0453 6.37838-52.5931C6.4904-52.5804 6.60326-52.5895 6.71228-52.5862C7.56344-54.6543 8.56544-56.644 9.70412-58.5427C9.64574-58.6164 9.59222-58.6961 9.52694-58.7676C6.80726-61.7389 10.1201-66.3025 13.7864-64.6354C13.8615-64.6013 13.9431-64.5825 14.0181-64.5536C15.4752-66.2646 17.0655-67.857 18.7614-69.331C18.7353-69.3978 18.7168-69.4687 18.6865-69.5355C17.0182-73.2015 21.5826-76.519 24.5543-73.8018C24.597-73.7627 24.6471-73.7293 24.6906-73.6927C26.6132-74.8746 28.6282-75.9226 30.7288-76.8072C30.7252-76.8519 30.7338-76.8983 30.7288-76.9435C30.275-80.9464 35.64-82.6908 37.6257-79.1857C37.6476-79.1473 37.678-79.1139 37.7007-79.0766C39.8853-79.5955 42.1316-79.9479 44.4272-80.133C44.4382-80.1786 44.4585-80.2227 44.4681-80.2693Z"/>
   <path class="monochrome-1 multicolor-1:tintColor hierarchical-1:primary SFSymbolsPreviewWireframe" d="M28.8365-10.9205C28.4421-11.2151 28.2823-11.7263 28.4243-12.1979L37.4697-42.2219C37.8351-43.4348 38.9522-44.265 40.219-44.265L55.9186-44.265C57.1854-44.265 58.3024-43.4348 58.6678-42.2219L67.7132-12.1979C67.8554-11.7269 67.6952-11.2151 67.301-10.9205C61.9358-6.9155 55.279-4.5443 48.0687-4.5443C40.8585-4.5443 34.202-6.9155 28.8365-10.9205ZM33.8316-49.4515C33.8316-50.4125 33.8316-50.893 33.8746-51.2974C34.2567-54.8843 37.0905-57.718 40.6774-58.1002C41.0818-58.1433 41.5623-58.1433 42.5232-58.1433L53.6142-58.1433C54.5752-58.1433 55.0557-58.1433 55.4601-58.1002C59.047-57.718 61.8806-54.8843 62.2628-51.2974C62.306-50.893 62.306-50.4125 62.306-49.4515C62.306-49.3014 62.306-49.2263 62.2994-49.1631C62.2394-48.6027 61.7966-48.1599 61.2362-48.1002C61.1732-48.0934 61.0982-48.0934 60.9476-48.0934L35.1896-48.0934C35.0395-48.0934 34.9644-48.0934 34.9012-48.1002C34.3407-48.1599 33.898-48.6027 33.8383-49.1631C33.8316-49.2263 33.8316-49.3014 33.8316-49.4515Z"/>
  </g>
  <g id="Ultralight-S" transform="matrix(1 0 0 1 515.351 696)">
   <path class="monochrome-0 multicolor-0:labelColor hierarchical-0:tertiary SFSymbolsPreviewWireframe" d="M40.7331-80.2693C41.5385-84.2165 47.179-84.2165 47.9844-80.2693C47.9938-80.2232 48.0076-80.178 48.0185-80.133C50.3145-79.9456 52.5603-79.5842 54.745-79.063C54.7708-79.1049 54.8089-79.1423 54.8336-79.1857C56.8202-82.6887 62.1776-80.9458 61.724-76.9435C61.718-76.8936 61.7204-76.8429 61.7168-76.7936C63.8108-75.9093 65.8178-74.8589 67.7348-73.6791C67.7864-73.722 67.8476-73.7553 67.898-73.8018C70.8698-76.5217 75.4346-73.2022 73.766-69.5355C73.7306-69.4573 73.7072-69.3751 73.6772-69.297C75.362-67.8294 76.9382-66.2416 78.3866-64.54C78.4778-64.5736 78.575-64.594 78.6662-64.6354C82.3328-66.3039 85.6526-61.7392 82.9322-58.7676C82.856-58.6839 82.7882-58.5954 82.721-58.5086C83.8508-56.6211 84.8402-54.6409 85.6856-52.5862C85.8128-52.5882 85.943-52.5782 86.0744-52.5931C90.0764-53.0467 91.8194-47.6893 88.3166-45.703C88.181-45.6264 88.055-45.5383 87.9344-45.4508C88.4078-43.3512 88.7294-41.1969 88.8956-38.9968C89.057-38.941 89.2238-38.8896 89.4002-38.8537C93.347-38.0482 93.347-32.4078 89.4002-31.6024C89.2022-31.5621 89.0132-31.5111 88.8344-31.4457C88.6358-29.2866 88.286-27.1737 87.7916-25.1145C87.9518-24.9861 88.127-24.8675 88.3166-24.76C91.8212-22.7741 90.077-17.4095 86.0744-17.8631C85.838-17.8901 85.6082-17.8907 85.3856-17.8769C84.548-15.9371 83.582-14.0675 82.4894-12.2813C82.6142-12.0785 82.76-11.8769 82.9322-11.6885C85.649-8.7173 82.3316-4.1531 78.6662-5.8211C78.4094-5.9375 78.1514-6.0161 77.8958-6.0731C76.535-4.5263 75.0674-3.0779 73.5068-1.7315C73.5638-1.4639 73.6436-1.1903 73.766-0.9209C75.4328 2.7451 70.8692 6.0577 67.898 3.3385C67.6742 3.1339 67.433 2.9725 67.1894 2.8345C65.4422 3.8761 63.6218 4.8085 61.7306 5.6083C61.6982 5.8885 61.6892 6.1831 61.724 6.4873C62.1752 10.4869 56.8208 12.2281 54.8336 8.7295C54.6759 8.4511 54.4828 8.2081 54.2816 7.9933C52.3272 8.4379 50.3268 8.7553 48.2843 8.9341C48.1572 9.2029 48.0492 9.4957 47.9844 9.8131C47.1767 13.7557 41.5404 13.7563 40.7331 9.8131C40.6687 9.4975 40.5593 9.2083 40.4332 8.9407C38.3865 8.7637 36.3808 8.4505 34.4223 8.0071C34.2268 8.2183 34.0447 8.4577 33.8907 8.7295C31.9042 12.2305 26.5424 10.4875 26.9938 6.4873C27.0275 6.1903 27.0101 5.9029 26.9802 5.6287C25.0817 4.8283 23.2549 3.8923 21.5008 2.8483C21.2667 2.9833 21.0351 3.1411 20.8193 3.3385C17.8483 6.0577 13.2863 2.7451 14.9515-0.9209C15.0676-1.1759 15.1402-1.4369 15.1968-1.6907C13.6228-3.0455 12.1389-4.5011 10.767-6.0593C10.5306-6.0029 10.2888-5.9291 10.0514-5.8211C6.3857-4.1555 3.07292-8.7179 5.79194-11.6885C5.9522-11.8637 6.08168-12.0527 6.20084-12.2405C5.09618-14.0417 4.11518-15.9263 3.27032-17.8835C3.06776-17.8931 2.85734-17.8877 2.64338-17.8631C-1.35737-17.4113-3.10028-22.7735 0.40118-24.76C0.573422-24.8577 0.730478-24.9722 0.878234-25.0872C0.379526-27.1593 0.020726-29.286-0.178108-31.4593C-0.338752-31.5149-0.507184-31.5667-0.682426-31.6024C-4.62631-32.4094-4.62591-38.0464-0.682426-38.8537C-0.526714-38.8855-0.376828-38.9358-0.23263-38.9832C-0.066094-41.1973 0.257774-43.3657 0.735116-45.478C0.628736-45.5532 0.51905-45.6361 0.40118-45.703C-3.09842-47.6902-1.35705-53.0453 2.64338-52.5931C2.7554-52.5804 2.86826-52.5895 2.97728-52.5862C3.82844-54.6543 4.83044-56.644 5.96912-58.5427C5.91074-58.6164 5.85722-58.6961 5.79194-58.7676C3.07226-61.7389 6.3851-66.3025 10.0514-64.6354C10.1265-64.6013 10.2081-64.5825 10.2831-64.5536C11.7402-66.2646 13.3305-67.857 15.0264-69.331C15.0003-69.3978 14.9818-69.4687 14.9515-69.5355C13.2832-73.2015 17.8476-76.519 20.8193-73.8018C20.862-73.7627 20.9121-73.7293 20.9556-73.6927C22.8782-74.8746 24.8932-75.9226 26.9938-76.8072C26.9902-76.8519 26.9988-76.8983 26.9938-76.9435C26.54-80.9464 31.905-82.6908 33.8907-79.1857C33.9126-79.1473 33.943-79.1139 33.9657-79.0766C36.1503-79.5955 38.3966-79.9479 40.6922-80.133C40.7032-80.1786 40.7235-80.2227 40.7331-80.2693Z"/>
   <path class="monochrome-1 multicolor-1:tintColor hierarchical-1:primary SFSymbolsPreviewWireframe" d="M25.1015-10.9205C24.7071-11.2151 24.5473-11.7263 24.6893-12.1979L33.7347-42.2219C34.1001-43.4348 35.2172-44.265 36.484-44.265L52.1836-44.265C53.4504-44.265 54.5674-43.4348 54.9328-42.2219L63.9782-12.1979C64.1204-11.7269 63.9602-11.2151 63.566-10.9205C58.2008-6.9155 51.544-4.5443 44.3337-4.5443C37.1235-4.5443 30.467-6.9155 25.1015-10.9205ZM30.0966-49.4515C30.0966-50.4125 30.0966-50.893 30.1396-51.2974C30.5217-54.8843 33.3555-57.718 36.9424-58.1002C37.3468-58.1433 37.8273-58.1433 38.7882-58.1433L49.8792-58.1433C50.8402-58.1433 51.3207-58.1433 51.7251-58.1002C55.312-57.718 58.1456-54.8843 58.5278-51.2974C58.571-50.893 58.571-50.4125 58.571-49.4515C58.571-49.3014 58.571-49.2263 58.5644-49.1631C58.5044-48.6027 58.0616-48.1599 57.5012-48.1002C57.4382-48.0934 57.3632-48.0934 57.2126-48.0934L31.4546-48.0934C31.3045-48.0934 31.2294-48.0934 31.1662-48.1002C30.6057-48.1599 30.163-48.6027 30.1033-49.1631C30.0966-49.2263 30.0966-49.3014 30.0966-49.4515Z"/>
  </g>
 </g>
</svg>
