<?xml version="1.0" encoding="UTF-8"?>
<!--Generator: Apple Native CoreSVG 341-->
<!DOCTYPE svg
PUBLIC "-//W3C//DTD SVG 1.1//EN"
       "http://www.w3.org/Graphics/SVG/1.1/DTD/svg11.dtd">
<svg version="1.1" xmlns="http://www.w3.org/2000/svg" xmlns:xlink="http://www.w3.org/1999/xlink" viewBox="0 0 3300 2200">
 <!--glyph: "", point size: 100.0, font version: "21.1d1e1", template writer version: "138.0.0"-->
 <style>.defaults {-sfsymbols-variable-value-mode:color;-sfsymbols-draw-reverses-motion-groups:true}

.monochrome-0 {-sfsymbols-motion-group:1;-sfsymbols-layer-tags:63d65c783294bcd9}
.monochrome-1 {opacity:0.0;-sfsymbols-clear-behind:true;-sfsymbols-motion-group:0;-sfsymbols-layer-tags:63d65c783294bcd9}

.multicolor-0:labelColor {-sfsymbols-motion-group:1;-sfsymbols-layer-tags:63d65c783294bcd9}
.multicolor-1:tintColor {-sfsymbols-motion-group:0;-sfsymbols-layer-tags:63d65c783294bcd9}

.hierarchical-0:tertiary {-sfsymbols-motion-group:1;-sfsymbols-layer-tags:63d65c783294bcd9}
.hierarchical-1:primary {-sfsymbols-motion-group:0;-sfsymbols-layer-tags:63d65c783294bcd9}

.SFSymbolsPreviewWireframe {fill:none;opacity:1.0;stroke:black;stroke-width:0.5}
</style>
 <g id="Notes">
  <rect height="2200" id="artboard" style="fill:white;opacity:1" width="3300" x="0" y="0"/>
  <line style="fill:none;stroke:black;opacity:1;stroke-width:0.5;" x1="263" x2="3036" y1="292" y2="292"/>
  <text style="stroke:none;fill:black;font-family:sans-serif;font-size:13;font-weight:bold;" transform="matrix(1 0 0 1 263 322)">Weight/Scale Variations</text>
  <text style="stroke:none;fill:black;font-family:sans-serif;font-size:13;text-anchor:middle;" transform="matrix(1 0 0 1 559.711 322)">Ultralight</text>
  <text style="stroke:none;fill:black;font-family:sans-serif;font-size:13;text-anchor:middle;" transform="matrix(1 0 0 1 856.422 322)">Thin</text>
  <text style="stroke:none;fill:black;font-family:sans-serif;font-size:13;text-anchor:middle;" transform="matrix(1 0 0 1 1153.13 322)">Light</text>
  <text style="stroke:none;fill:black;font-family:sans-serif;font-size:13;text-anchor:middle;" transform="matrix(1 0 0 1 1449.84 322)">Regular</text>
  <text style="stroke:none;fill:black;font-family:sans-serif;font-size:13;text-anchor:middle;" transform="matrix(1 0 0 1 1746.56 322)">Medium</text>
  <text style="stroke:none;fill:black;font-family:sans-serif;font-size:13;text-anchor:middle;" transform="matrix(1 0 0 1 2043.27 322)">Semibold</text>
  <text style="stroke:none;fill:black;font-family:sans-serif;font-size:13;text-anchor:middle;" transform="matrix(1 0 0 1 2339.98 322)">Bold</text>
  <text style="stroke:none;fill:black;font-family:sans-serif;font-size:13;text-anchor:middle;" transform="matrix(1 0 0 1 2636.69 322)">Heavy</text>
  <text style="stroke:none;fill:black;font-family:sans-serif;font-size:13;text-anchor:middle;" transform="matrix(1 0 0 1 2933.4 322)">Black</text>
  <line style="fill:none;stroke:black;opacity:1;stroke-width:0.5;" x1="263" x2="3036" y1="1903" y2="1903"/>
  <g transform="matrix(0.2 0 0 0.2 263 1933)">
   <path d="m46.2402 4.15039c21.7773 0 39.4531-17.627 39.4531-39.4043s-17.6758-39.4043-39.4531-39.4043c-21.7285 0-39.4043 17.627-39.4043 39.4043s17.6758 39.4043 39.4043 39.4043Zm0-7.42188c-17.6758 0-31.9336-14.3066-31.9336-31.9824s14.2578-31.9824 31.9336-31.9824 31.9824 14.3066 31.9824 31.9824-14.3066 31.9824-31.9824 31.9824Zm3.61328-17.7734v-28.4668c0-2.24609-1.46484-3.75977-3.71094-3.75977-2.14844 0-3.61328 1.51367-3.61328 3.75977v28.4668c0 2.19727 1.46484 3.71094 3.61328 3.71094 2.24609 0 3.71094-1.51367 3.71094-3.71094Zm-17.8223-10.5957h28.418c2.19727 0 3.71094-1.46484 3.71094-3.61328 0-2.19727-1.51367-3.71094-3.71094-3.71094h-28.418c-2.24609 0-3.75977 1.51367-3.75977 3.71094 0 2.14844 1.51367 3.61328 3.75977 3.61328Z"/>
  </g>
  <g transform="matrix(0.2 0 0 0.2 281.506 1933)">
   <path d="m58.5449 14.5508c27.4902 0 49.8047-22.3145 49.8047-49.8047s-22.3145-49.8047-49.8047-49.8047-49.8047 22.3145-49.8047 49.8047 22.3145 49.8047 49.8047 49.8047Zm0-8.30078c-22.9492 0-41.5039-18.5547-41.5039-41.5039s18.5547-41.5039 41.5039-41.5039 41.5039 18.5547 41.5039 41.5039-18.5547 41.5039-41.5039 41.5039Zm4.05273-23.0957v-36.9141c0-2.49023-1.70898-4.19922-4.15039-4.19922-2.39258 0-4.05273 1.70898-4.05273 4.19922v36.9141c0 2.44141 1.66016 4.15039 4.05273 4.15039 2.44141 0 4.15039-1.66016 4.15039-4.15039Zm-22.5586-14.4043h36.9629c2.44141 0 4.15039-1.61133 4.15039-4.00391 0-2.44141-1.70898-4.15039-4.15039-4.15039h-36.9629c-2.49023 0-4.15039 1.70898-4.15039 4.15039 0 2.39258 1.66016 4.00391 4.15039 4.00391Z"/>
  </g>
  <g transform="matrix(0.2 0 0 0.2 304.924 1933)">
   <path d="m74.8535 28.3203c35.1074 0 63.623-28.4668 63.623-63.5742s-28.5156-63.623-63.623-63.623-63.5742 28.5156-63.5742 63.623 28.4668 63.5742 63.5742 63.5742Zm0-9.08203c-30.127 0-54.4922-24.3652-54.4922-54.4922s24.3652-54.4922 54.4922-54.4922 54.4922 24.3652 54.4922 54.4922-24.3652 54.4922-54.4922 54.4922Zm4.44336-30.3223v-48.4863c0-2.73438-1.85547-4.63867-4.54102-4.63867-2.58789 0-4.44336 1.9043-4.44336 4.63867v48.4863c0 2.68555 1.85547 4.58984 4.44336 4.58984 2.68555 0 4.54102-1.85547 4.54102-4.58984Zm-28.7109-19.7754h48.4863c2.68555 0 4.58984-1.80664 4.58984-4.39453 0-2.73438-1.85547-4.58984-4.58984-4.58984h-48.4863c-2.73438 0-4.58984 1.85547-4.58984 4.58984 0 2.58789 1.85547 4.39453 4.58984 4.39453Z"/>
  </g>
  <text style="stroke:none;fill:black;font-family:sans-serif;font-size:13;font-weight:bold;" transform="matrix(1 0 0 1 263 1953)">Design Variations</text>
  <text style="stroke:none;fill:black;font-family:sans-serif;font-size:13;" transform="matrix(1 0 0 1 263 1971)">Symbols are supported in up to nine weights and three scales.</text>
  <text style="stroke:none;fill:black;font-family:sans-serif;font-size:13;" transform="matrix(1 0 0 1 263 1989)">For optimal layout with text and other symbols, vertically align</text>
  <text style="stroke:none;fill:black;font-family:sans-serif;font-size:13;" transform="matrix(1 0 0 1 263 2007)">symbols with the adjacent text.</text>
  <line style="fill:none;stroke:#00AEEF;stroke-width:0.5;opacity:1.0;" x1="776" x2="776" y1="1919" y2="1933"/>
  <g transform="matrix(0.2 0 0 0.2 776 1933)">
   <path d="m16.5527 0.78125c2.58789 0 3.85742-0.976562 4.78516-3.71094l20.5566-57.5195h0.244141l20.6055 57.5195c0.927734 2.73438 2.19727 3.71094 4.73633 3.71094 2.58789 0 4.24805-1.5625 4.24805-4.00391 0-0.830078-0.146484-1.61133-0.537109-2.63672l-22.9004-60.9863c-1.12305-2.97852-3.125-4.49219-6.25-4.49219-3.02734 0-5.07812 1.46484-6.15234 4.44336l-22.9004 61.084c-0.390625 1.02539-0.537109 1.80664-0.537109 2.63672 0 2.44141 1.5625 3.95508 4.10156 3.95508Zm10.2051-20.9473h30.6641c2.00195 0 3.66211-1.66016 3.66211-3.66211 0-2.05078-1.66016-3.66211-3.66211-3.66211h-30.6641c-2.00195 0-3.66211 1.61133-3.66211 3.66211 0 2.00195 1.66016 3.66211 3.66211 3.66211Z"/>
  </g>
  <line style="fill:none;stroke:#00AEEF;stroke-width:0.5;opacity:1.0;" x1="792.836" x2="792.836" y1="1919" y2="1933"/>
  <text style="stroke:none;fill:black;font-family:sans-serif;font-size:13;font-weight:bold;" transform="matrix(1 0 0 1 776 1953)">Margins</text>
  <text style="stroke:none;fill:black;font-family:sans-serif;font-size:13;" transform="matrix(1 0 0 1 776 1971)">Leading and trailing margins on the left and right side of each symbol</text>
  <text style="stroke:none;fill:black;font-family:sans-serif;font-size:13;" transform="matrix(1 0 0 1 776 1989)">can be adjusted by modifying the x-location of the margin guidelines.</text>
  <text style="stroke:none;fill:black;font-family:sans-serif;font-size:13;" transform="matrix(1 0 0 1 776 2007)">Modifications are automatically applied proportionally to all</text>
  <text style="stroke:none;fill:black;font-family:sans-serif;font-size:13;" transform="matrix(1 0 0 1 776 2025)">scales and weights.</text>
  <g transform="matrix(0.2 0 0 0.2 1289 1933)">
   <path d="m14.209 13.1348 7.86133 7.86133c4.29688 4.39453 9.32617 4.10156 13.8672-1.02539l60.6934-68.2129-4.88281-4.88281-60.2539 67.6758c-1.80664 1.95312-3.4668 2.44141-5.81055 0.0976562l-5.17578-5.12695c-2.29492-2.29492-1.80664-3.95508 0.195312-5.81055l67.4805-62.1582-4.88281-4.83398-68.0664 62.5977c-4.98047 4.58984-5.32227 9.47266-1.02539 13.8184Zm44.873-97.4609c-2.05078 2.00195-2.24609 4.88281-1.07422 6.78711 1.12305 1.80664 3.4668 3.02734 6.5918 2.24609 5.85938-1.66016 12.5977-2.39258 18.8965 0.927734l-2.68555 7.12891c-1.61133 4.00391-0.732422 6.88477 1.70898 9.42383l10.2539 10.3027c2.34375 2.39258 4.54102 2.44141 7.08008 1.95312l4.44336-0.732422 2.58789 2.53906-0.195312 2.24609c-0.0976562 2.29492 0.537109 4.29688 2.7832 6.49414l3.36914 3.32031c2.29492 2.29492 5.51758 2.49023 7.8125 0.195312l12.9883-13.0371c2.29492-2.34375 2.14844-5.37109-0.195312-7.66602l-3.41797-3.41797c-2.19727-2.19727-4.05273-3.02734-6.34766-2.88086l-2.34375 0.244141-2.44141-2.44141 1.02539-4.6875c0.634766-2.73438-0.244141-4.98047-2.88086-7.61719l-11.2793-11.1816c-12.9395-12.8418-35.5957-11.0352-46.6797-0.146484Zm7.08008 2.05078c8.78906-6.39648 25.9766-5.66406 33.6914 1.95312l12.3047 12.207c1.02539 1.02539 1.2207 1.80664 0.927734 3.32031l-1.46484 6.64062 6.73828 6.68945 4.39453-0.244141c1.12305-0.0488281 1.51367 0.0488281 2.34375 0.878906l2.53906 2.49023-10.8398 10.8398-2.49023-2.49023c-0.830078-0.878906-0.976562-1.2207-0.927734-2.39258l0.292969-4.3457-6.68945-6.73828-6.83594 1.17188c-1.41602 0.292969-2.05078 0.195312-3.17383-0.878906l-8.93555-8.88672c-1.07422-1.02539-1.17188-1.70898-0.488281-3.36914l4.58984-11.4746c-6.10352-6.34766-17.041-7.51953-25.5859-4.58984-0.683594 0.244141-0.927734-0.390625-0.390625-0.78125Z"/>
  </g>
  <text style="stroke:none;fill:black;font-family:sans-serif;font-size:13;font-weight:bold;" transform="matrix(1 0 0 1 1289 1953)">Exporting</text>
  <text style="stroke:none;fill:black;font-family:sans-serif;font-size:13;" transform="matrix(1 0 0 1 1289 1971)">Symbols should be outlined when exporting to ensure the</text>
  <text style="stroke:none;fill:black;font-family:sans-serif;font-size:13;" transform="matrix(1 0 0 1 1289 1989)">design is preserved when submitting to Xcode.</text>
  <text id="template-version" style="stroke:none;fill:black;font-family:sans-serif;font-size:13;text-anchor:end;" transform="matrix(1 0 0 1 3036 1933)">Template v.7.0</text>
  <text style="stroke:none;fill:black;font-family:sans-serif;font-size:13;text-anchor:end;" transform="matrix(1 0 0 1 3036 1951)">Requires Xcode 26 or greater</text>
  <text id="descriptive-name" style="stroke:none;fill:black;font-family:sans-serif;font-size:13;text-anchor:end;" transform="matrix(1 0 0 1 3036 1969)">Generated from bottlecap</text>
  <text style="stroke:none;fill:black;font-family:sans-serif;font-size:13;text-anchor:end;" transform="matrix(1 0 0 1 3036 1987)">Typeset at 100.0 points</text>
  <text style="stroke:none;fill:black;font-family:sans-serif;font-size:13;" transform="matrix(1 0 0 1 263 726)">Small</text>
  <text style="stroke:none;fill:black;font-family:sans-serif;font-size:13;" transform="matrix(1 0 0 1 263 1156)">Medium</text>
  <text style="stroke:none;fill:black;font-family:sans-serif;font-size:13;" transform="matrix(1 0 0 1 263 1586)">Large</text>
 </g>
 <g id="Guides">
  <g id="H-reference" style="fill:#27AAE1;stroke:none;" transform="matrix(1 0 0 1 339 696)">
   <path d="M0.993654 0L3.63775 0L29.3281-67.1323L30.0303-67.1323L30.0303-70.459L28.1226-70.459ZM11.6885-24.4799L46.9815-24.4799L46.2315-26.7285L12.4385-26.7285ZM55.1196 0L57.7637 0L30.6382-70.459L29.4326-70.459L29.4326-67.1323Z"/>
  </g>
  <line id="Baseline-S" style="fill:none;stroke:#27AAE1;opacity:1;stroke-width:0.5;" x1="263" x2="3036" y1="696" y2="696"/>
  <line id="Capline-S" style="fill:none;stroke:#27AAE1;opacity:1;stroke-width:0.5;" x1="263" x2="3036" y1="625.541" y2="625.541"/>
  <g id="H-reference" style="fill:#27AAE1;stroke:none;" transform="matrix(1 0 0 1 339 1126)">
   <path d="M0.993654 0L3.63775 0L29.3281-67.1323L30.0303-67.1323L30.0303-70.459L28.1226-70.459ZM11.6885-24.4799L46.9815-24.4799L46.2315-26.7285L12.4385-26.7285ZM55.1196 0L57.7637 0L30.6382-70.459L29.4326-70.459L29.4326-67.1323Z"/>
  </g>
  <line id="Baseline-M" style="fill:none;stroke:#27AAE1;opacity:1;stroke-width:0.5;" x1="263" x2="3036" y1="1126" y2="1126"/>
  <line id="Capline-M" style="fill:none;stroke:#27AAE1;opacity:1;stroke-width:0.5;" x1="263" x2="3036" y1="1055.54" y2="1055.54"/>
  <g id="H-reference" style="fill:#27AAE1;stroke:none;" transform="matrix(1 0 0 1 339 1556)">
   <path d="M0.993654 0L3.63775 0L29.3281-67.1323L30.0303-67.1323L30.0303-70.459L28.1226-70.459ZM11.6885-24.4799L46.9815-24.4799L46.2315-26.7285L12.4385-26.7285ZM55.1196 0L57.7637 0L30.6382-70.459L29.4326-70.459L29.4326-67.1323Z"/>
  </g>
  <line id="Baseline-L" style="fill:none;stroke:#27AAE1;opacity:1;stroke-width:0.5;" x1="263" x2="3036" y1="1556" y2="1556"/>
  <line id="Capline-L" style="fill:none;stroke:#27AAE1;opacity:1;stroke-width:0.5;" x1="263" x2="3036" y1="1485.54" y2="1485.54"/>
  <line id="right-margin-Black-S" style="fill:none;stroke:#00AEEF;stroke-width:0.5;opacity:1.0;" x1="2983.6" x2="2983.6" y1="600.785" y2="720.121"/>
  <line id="left-margin-Black-S" style="fill:none;stroke:#00AEEF;stroke-width:0.5;opacity:1.0;" x1="2883.2" x2="2883.2" y1="600.785" y2="720.121"/>
  <line id="right-margin-Regular-S" style="fill:none;stroke:#00AEEF;stroke-width:0.5;opacity:1.0;" x1="1497.94" x2="1497.94" y1="600.785" y2="720.121"/>
  <line id="left-margin-Regular-S" style="fill:none;stroke:#00AEEF;stroke-width:0.5;opacity:1.0;" x1="1401.75" x2="1401.75" y1="600.785" y2="720.121"/>
  <line id="right-margin-Ultralight-S" style="fill:none;stroke:#00AEEF;stroke-width:0.5;opacity:1.0;" x1="604.071" x2="604.071" y1="600.785" y2="720.121"/>
  <line id="left-margin-Ultralight-S" style="fill:none;stroke:#00AEEF;stroke-width:0.5;opacity:1.0;" x1="515.351" x2="515.351" y1="600.785" y2="720.121"/>
 </g>
 <g id="Symbols">
  <g id="Black-L" transform="matrix(1 0 0 1 2850.94 1556)">
   <path class="monochrome-0 multicolor-0:labelColor hierarchical-0:tertiary SFSymbolsPreviewWireframe" d="M77.1688-100.913C78.3433-106.669 86.5691-106.669 87.7436-100.913C87.7573-100.846 87.7775-100.78 87.7933-100.714C91.1417-100.441 94.4167-99.9138 97.6028-99.1537C97.6404-99.2147 97.696-99.2692 97.732-99.3326C100.629-104.441 108.442-101.899 107.78-96.0627C107.772-95.9899 107.776-95.916 107.77-95.8441C110.824-94.5544 113.751-93.0227 116.546-91.3021C116.622-91.3647 116.71-91.4133 116.784-91.481C121.118-95.4476 127.775-90.6066 125.342-85.2594C125.29-85.1454 125.256-85.0255 125.212-84.9115C127.669-82.7713 129.968-80.4559 132.08-77.9743C132.213-78.0233 132.355-78.0532 132.488-78.1135C137.835-80.5467 142.676-73.8899 138.709-69.5562C138.598-69.4342 138.499-69.3051 138.401-69.1786C140.048-66.4259 141.491-63.5382 142.724-60.5418C142.91-60.5447 143.099-60.5301 143.291-60.5518C149.127-61.2134 151.669-53.4006 146.561-50.5038C146.364-50.392 146.179-50.2637 146.004-50.136C146.694-47.0742 147.163-43.9324 147.406-40.7241C147.641-40.6427 147.885-40.5677 148.141-40.5154C153.897-39.3406 153.897-31.1151 148.141-29.9406C147.853-29.8818 147.577-29.8073 147.316-29.712C147.027-26.5634 146.516-23.482 145.795-20.479C146.029-20.2918 146.284-20.1188 146.561-19.9622C151.672-17.0662 149.128-9.243 143.291-9.904C142.946-9.943 142.611-9.945 142.287-9.924C141.066-7.096 139.657-4.369 138.063-1.764C138.246-1.468 138.458-1.175 138.709-0.9C142.671 3.434 137.833 10.09 132.488 7.657C132.113 7.487 131.737 7.372 131.364 7.29C129.379 9.546 127.24 11.658 124.964 13.621C125.046 14.011 125.163 14.41 125.342 14.803C127.772 20.15 121.117 24.98 116.784 21.015C116.458 20.716 116.106 20.481 115.751 20.28C113.202 21.799 110.548 23.158 107.79 24.325C107.743 24.733 107.73 25.163 107.78 25.607C108.439 31.44 100.63 33.979 97.732 28.877C97.5019 28.471 97.2203 28.116 96.9269 27.803C94.0768 28.451 91.1595 28.914 88.1809 29.175C87.9955 29.567 87.838 29.994 87.7436 30.457C86.5657 36.207 78.3461 36.207 77.1688 30.457C77.075 29.997 76.9153 29.575 76.7315 29.185C73.7467 28.927 70.8217 28.47 67.9656 27.823C67.6805 28.131 67.4149 28.48 67.1904 28.877C64.2934 33.982 56.4741 31.44 57.1324 25.607C57.1815 25.174 57.1562 24.755 57.1125 24.354C54.344 23.187 51.6799 21.822 49.1218 20.299C48.7803 20.497 48.4426 20.727 48.128 21.015C43.7953 24.98 37.1424 20.149 39.5707 14.803C39.7401 14.431 39.846 14.05 39.9285 13.68C37.6331 11.705 35.469 9.582 33.4684 7.31C33.1237 7.392 32.771 7.5 32.4248 7.657C27.079 10.086 22.2479 3.433 26.2131-0.9C26.4469-1.155 26.6356-1.431 26.8095-1.705C25.1985-4.331 23.7679-7.08 22.5358-9.934C22.2404-9.948 21.9336-9.94 21.6215-9.904C15.7871-9.245 13.2454-17.0652 18.3516-19.9622C18.6028-20.1045 18.8319-20.2715 19.0473-20.4392C18.3201-23.4611 17.7968-26.5624 17.5068-29.7319C17.2726-29.8129 17.0269-29.8885 16.7714-29.9406C11.0199-31.1173 11.0205-39.3379 16.7714-40.5154C16.9985-40.5617 17.217-40.635 17.4273-40.7042C17.6702-43.9331 18.1425-47.0953 18.8386-50.1758C18.6835-50.2854 18.5235-50.4063 18.3516-50.5038C13.2481-53.4018 15.7876-61.2113 21.6215-60.5518C21.7849-60.5333 21.9495-60.5467 22.1085-60.5418C23.3497-63.5577 24.811-66.4594 26.4715-69.2283C26.3864-69.3358 26.3084-69.452 26.2131-69.5562C22.247-73.8894 27.0782-80.5447 32.4248-78.1135C32.5343-78.0637 32.6533-78.0362 32.7627-77.9942C34.8877-80.4893 37.2068-82.8115 39.6801-84.9612C39.6419-85.0586 39.6149-85.162 39.5707-85.2594C37.1379-90.6057 43.7943-95.4436 48.128-91.481C48.1902-91.4241 48.2633-91.3753 48.3267-91.322C51.1305-93.0456 54.069-94.5738 57.1324-95.864C57.1272-95.9291 57.1397-95.9968 57.1324-96.0627C56.4706-101.9 64.2946-104.444 67.1904-99.3326C67.2222-99.2765 67.2666-99.2278 67.2997-99.1735C70.4855-99.9301 73.7614-100.444 77.1092-100.714C77.1252-100.781 77.1548-100.845 77.1688-100.913Z"/>
   <path class="monochrome-1 multicolor-1:tintColor hierarchical-1:primary SFSymbolsPreviewWireframe" d="M54.3728 0.221C53.7977-0.209 53.5647-0.955 53.7717-1.642L66.9628-45.4272C67.4957-47.1961 69.1248-48.4067 70.9722-48.4067L93.8673-48.4067C95.7147-48.4067 97.3438-47.1961 97.8767-45.4272L111.068-1.642C111.275-0.955 111.042-0.209 110.467 0.22C102.642 6.061 92.9347 9.519 82.4197 9.519C71.9048 9.519 62.1974 6.061 54.3728 0.221ZM61.6572-55.9704C61.6572-57.3718 61.6572-58.0725 61.72-58.6623C62.2773-63.8932 66.4098-68.0257 71.6407-68.583C72.2305-68.6458 72.9312-68.6458 74.3326-68.6458L90.5069-68.6458C91.9083-68.6458 92.609-68.6458 93.1987-68.583C98.4296-68.0257 102.562-63.8932 103.119-58.6623C103.182-58.0725 103.182-57.3718 103.182-55.9704C103.182-55.7515 103.182-55.642 103.172-55.5498C103.085-54.7325 102.44-54.0868 101.622-53.9997C101.53-53.9899 101.421-53.9899 101.202-53.9899L63.6377-53.9899C63.4188-53.9899 63.3093-53.9899 63.2171-53.9997C62.3998-54.0868 61.7541-54.7325 61.667-55.5498C61.6572-55.642 61.6572-55.7515 61.6572-55.9704Z"/>
  </g>
  <g id="Regular-L" transform="matrix(1 0 0 1 1372.08 1556)">
   <path class="monochrome-0 multicolor-0:labelColor hierarchical-0:tertiary SFSymbolsPreviewWireframe" d="M72.4745-100.913C73.649-106.669 81.8748-106.669 83.0493-100.913C83.063-100.846 83.0832-100.78 83.099-100.714C86.4474-100.441 89.7224-99.9138 92.9085-99.1537C92.9461-99.2147 93.0017-99.2692 93.0377-99.3326C95.9345-104.441 103.748-101.899 103.086-96.0627C103.078-95.9899 103.082-95.916 103.076-95.8441C106.13-94.5544 109.057-93.0227 111.852-91.3021C111.928-91.3647 112.016-91.4133 112.09-91.481C116.424-95.4476 123.081-90.6066 120.648-85.2594C120.596-85.1454 120.562-85.0255 120.518-84.9115C122.975-82.7713 125.274-80.4559 127.386-77.9743C127.519-78.0233 127.661-78.0532 127.794-78.1135C133.141-80.5467 137.982-73.8899 134.015-69.5562C133.904-69.4342 133.805-69.3051 133.707-69.1786C135.354-66.4259 136.797-63.5382 138.03-60.5418C138.216-60.5447 138.405-60.5301 138.597-60.5518C144.433-61.2134 146.975-53.4006 141.867-50.5038C141.67-50.392 141.485-50.2637 141.31-50.136C142-47.0742 142.469-43.9324 142.712-40.7241C142.947-40.6427 143.191-40.5677 143.447-40.5154C149.203-39.3406 149.203-31.1151 143.447-29.9406C143.159-29.8818 142.883-29.8073 142.622-29.712C142.333-26.5634 141.822-23.482 141.101-20.479C141.335-20.2918 141.59-20.1188 141.867-19.9622C146.978-17.0662 144.434-9.243 138.597-9.904C138.252-9.943 137.917-9.945 137.593-9.924C136.372-7.096 134.963-4.369 133.369-1.764C133.552-1.468 133.764-1.175 134.015-0.9C137.977 3.434 133.139 10.09 127.794 7.657C127.419 7.487 127.043 7.372 126.67 7.29C124.685 9.546 122.546 11.658 120.27 13.621C120.352 14.011 120.469 14.41 120.648 14.803C123.078 20.15 116.423 24.98 112.09 21.015C111.764 20.716 111.412 20.481 111.057 20.28C108.508 21.799 105.854 23.158 103.096 24.325C103.049 24.733 103.036 25.163 103.086 25.607C103.745 31.44 95.9358 33.979 93.0377 28.877C92.8076 28.471 92.526 28.116 92.2326 27.803C89.3825 28.451 86.4652 28.914 83.4866 29.175C83.3012 29.567 83.1437 29.994 83.0493 30.457C81.8714 36.207 73.6518 36.207 72.4745 30.457C72.3807 29.997 72.221 29.575 72.0372 29.185C69.0524 28.927 66.1274 28.47 63.2713 27.823C62.9862 28.131 62.7206 28.48 62.4961 28.877C59.5991 33.982 51.7798 31.44 52.4381 25.607C52.4872 25.174 52.4619 24.755 52.4182 24.354C49.6497 23.187 46.9856 21.822 44.4275 20.299C44.086 20.497 43.7483 20.727 43.4337 21.015C39.101 24.98 32.4481 20.149 34.8764 14.803C35.0458 14.431 35.1517 14.05 35.2342 13.68C32.9388 11.705 30.7747 9.582 28.7741 7.31C28.4294 7.392 28.0767 7.5 27.7305 7.657C22.3847 10.086 17.5536 3.433 21.5188-0.9C21.7526-1.155 21.9413-1.431 22.1152-1.705C20.5042-4.331 19.0736-7.08 17.8415-9.934C17.5461-9.948 17.2393-9.94 16.9272-9.904C11.0928-9.245 8.55108-17.0652 13.6573-19.9622C13.9085-20.1045 14.1376-20.2715 14.353-20.4392C13.6258-23.4611 13.1025-26.5624 12.8125-29.7319C12.5783-29.8129 12.3326-29.8885 12.0771-29.9406C6.32559-31.1173 6.32618-39.3379 12.0771-40.5154C12.3042-40.5617 12.5227-40.635 12.733-40.7042C12.9759-43.9331 13.4482-47.0953 14.1443-50.1758C13.9892-50.2854 13.8292-50.4063 13.6573-50.5038C8.55378-53.4018 11.0933-61.2113 16.9272-60.5518C17.0906-60.5333 17.2552-60.5467 17.4142-60.5418C18.6554-63.5577 20.1167-66.4594 21.7772-69.2283C21.6921-69.3358 21.6141-69.452 21.5188-69.5562C17.5527-73.8894 22.3839-80.5447 27.7305-78.1135C27.84-78.0637 27.959-78.0362 28.0684-77.9942C30.1934-80.4893 32.5125-82.8115 34.9858-84.9612C34.9476-85.0586 34.9206-85.162 34.8764-85.2594C32.4436-90.6057 39.1-95.4436 43.4337-91.481C43.4959-91.4241 43.569-91.3753 43.6324-91.322C46.4362-93.0456 49.3747-94.5738 52.4381-95.864C52.4329-95.9291 52.4454-95.9968 52.4381-96.0627C51.7763-101.9 59.6003-104.444 62.4961-99.3326C62.5279-99.2765 62.5723-99.2278 62.6054-99.1735C65.7912-99.9301 69.0671-100.444 72.4149-100.714C72.4309-100.781 72.4605-100.845 72.4745-100.913Z"/>
   <path class="monochrome-1 multicolor-1:tintColor hierarchical-1:primary SFSymbolsPreviewWireframe" d="M49.6785 0.221C49.1034-0.209 48.8704-0.955 49.0774-1.642L62.2685-45.4272C62.8014-47.1961 64.4305-48.4067 66.2779-48.4067L89.173-48.4067C91.0204-48.4067 92.6495-47.1961 93.1824-45.4272L106.374-1.642C106.581-0.955 106.348-0.209 105.773 0.22C97.9477 6.061 88.2404 9.519 77.7254 9.519C67.2105 9.519 57.5031 6.061 49.6785 0.221ZM56.9629-55.9704C56.9629-57.3718 56.9629-58.0725 57.0257-58.6623C57.583-63.8932 61.7155-68.0257 66.9464-68.583C67.5362-68.6458 68.2369-68.6458 69.6383-68.6458L85.8126-68.6458C87.214-68.6458 87.9147-68.6458 88.5044-68.583C93.7353-68.0257 97.8677-63.8932 98.4247-58.6623C98.4877-58.0725 98.4877-57.3718 98.4877-55.9704C98.4877-55.7515 98.4877-55.642 98.4777-55.5498C98.3907-54.7325 97.7453-54.0868 96.928-53.9997C96.8358-53.9899 96.7264-53.9899 96.5074-53.9899L58.9434-53.9899C58.7245-53.9899 58.615-53.9899 58.5228-53.9997C57.7055-54.0868 57.0598-54.7325 56.9727-55.5498C56.9629-55.642 56.9629-55.7515 56.9629-55.9704Z"/>
  </g>
  <g id="Ultralight-L" transform="matrix(1 0 0 1 486.657 1556)">
   <path class="monochrome-0 multicolor-0:labelColor hierarchical-0:tertiary SFSymbolsPreviewWireframe" d="M67.7651-100.913C68.9396-106.669 77.1654-106.669 78.3399-100.913C78.3536-100.846 78.3738-100.78 78.3896-100.714C81.738-100.441 85.013-99.9138 88.1991-99.1537C88.2367-99.2147 88.2923-99.2692 88.3283-99.3326C91.2251-104.441 99.0383-101.899 98.3763-96.0627C98.3683-95.9899 98.3723-95.916 98.3663-95.8441C101.42-94.5544 104.347-93.0227 107.142-91.3021C107.218-91.3647 107.306-91.4133 107.38-91.481C111.714-95.4476 118.371-90.6066 115.938-85.2594C115.886-85.1454 115.852-85.0255 115.808-84.9115C118.265-82.7713 120.564-80.4559 122.676-77.9743C122.809-78.0233 122.951-78.0532 123.084-78.1135C128.431-80.5467 133.272-73.8899 129.305-69.5562C129.194-69.4342 129.095-69.3051 128.997-69.1786C130.644-66.4259 132.087-63.5382 133.32-60.5418C133.506-60.5447 133.695-60.5301 133.887-60.5518C139.723-61.2134 142.265-53.4006 137.157-50.5038C136.96-50.392 136.775-50.2637 136.6-50.136C137.29-47.0742 137.759-43.9324 138.002-40.7241C138.237-40.6427 138.481-40.5677 138.737-40.5154C144.493-39.3406 144.493-31.1151 138.737-29.9406C138.449-29.8818 138.173-29.8073 137.912-29.712C137.623-26.5634 137.112-23.482 136.391-20.479C136.625-20.2918 136.88-20.1188 137.157-19.9622C142.268-17.0662 139.724-9.243 133.887-9.904C133.542-9.943 133.207-9.945 132.883-9.924C131.662-7.096 130.253-4.369 128.659-1.764C128.842-1.468 129.054-1.175 129.305-0.9C133.267 3.434 128.429 10.09 123.084 7.657C122.709 7.487 122.333 7.372 121.96 7.29C119.975 9.546 117.836 11.658 115.56 13.621C115.642 14.011 115.759 14.41 115.938 14.803C118.368 20.15 111.713 24.98 107.38 21.015C107.054 20.716 106.702 20.481 106.347 20.28C103.798 21.799 101.144 23.158 98.3863 24.325C98.3393 24.733 98.3263 25.163 98.3763 25.607C99.0353 31.44 91.2264 33.979 88.3283 28.877C88.0982 28.471 87.8166 28.116 87.5232 27.803C84.6731 28.451 81.7558 28.914 78.7772 29.175C78.5918 29.567 78.4343 29.994 78.3399 30.457C77.162 36.207 68.9424 36.207 67.7651 30.457C67.6713 29.997 67.5116 29.575 67.3278 29.185C64.343 28.927 61.418 28.47 58.5619 27.823C58.2768 28.131 58.0112 28.48 57.7867 28.877C54.8897 33.982 47.0704 31.44 47.7287 25.607C47.7778 25.174 47.7525 24.755 47.7088 24.354C44.9403 23.187 42.2762 21.822 39.7181 20.299C39.3766 20.497 39.0389 20.727 38.7243 21.015C34.3916 24.98 27.7387 20.149 30.167 14.803C30.3364 14.431 30.4423 14.05 30.5248 13.68C28.2294 11.705 26.0653 9.582 24.0647 7.31C23.72 7.392 23.3673 7.5 23.0211 7.657C17.6753 10.086 12.8442 3.433 16.8094-0.9C17.0432-1.155 17.2319-1.431 17.4058-1.705C15.7948-4.331 14.3642-7.08 13.1321-9.934C12.8367-9.948 12.5299-9.94 12.2178-9.904C6.38343-9.245 3.84173-17.0652 8.94793-19.9622C9.19913-20.1045 9.42823-20.2715 9.64363-20.4392C8.91643-23.4611 8.39313-26.5624 8.10313-29.7319C7.86893-29.8129 7.62323-29.8885 7.36773-29.9406C1.61624-31.1173 1.61683-39.3379 7.36773-40.5154C7.59483-40.5617 7.81333-40.635 8.02363-40.7042C8.26653-43.9331 8.73883-47.0953 9.43493-50.1758C9.27983-50.2854 9.11983-50.4063 8.94793-50.5038C3.84443-53.4018 6.38393-61.2113 12.2178-60.5518C12.3812-60.5333 12.5458-60.5467 12.7048-60.5418C13.946-63.5577 15.4073-66.4594 17.0678-69.2283C16.9827-69.3358 16.9047-69.452 16.8094-69.5562C12.8433-73.8894 17.6745-80.5447 23.0211-78.1135C23.1306-78.0637 23.2496-78.0362 23.359-77.9942C25.484-80.4893 27.8031-82.8115 30.2764-84.9612C30.2382-85.0586 30.2112-85.162 30.167-85.2594C27.7342-90.6057 34.3906-95.4436 38.7243-91.481C38.7865-91.4241 38.8596-91.3753 38.923-91.322C41.7268-93.0456 44.6653-94.5738 47.7287-95.864C47.7235-95.9291 47.736-95.9968 47.7287-96.0627C47.0669-101.9 54.8909-104.444 57.7867-99.3326C57.8185-99.2765 57.8629-99.2278 57.896-99.1735C61.0818-99.9301 64.3577-100.444 67.7055-100.714C67.7215-100.781 67.7511-100.845 67.7651-100.913Z"/>
   <path class="monochrome-1 multicolor-1:tintColor hierarchical-1:primary SFSymbolsPreviewWireframe" d="M44.9691 0.221C44.394-0.209 44.161-0.955 44.368-1.642L57.5591-45.4272C58.092-47.1961 59.7211-48.4067 61.5685-48.4067L84.4636-48.4067C86.311-48.4067 87.9401-47.1961 88.473-45.4272L101.664-1.642C101.871-0.955 101.638-0.209 101.063 0.22C93.2383 6.061 83.531 9.519 73.016 9.519C62.5011 9.519 52.7937 6.061 44.9691 0.221ZM52.2535-55.9704C52.2535-57.3718 52.2535-58.0725 52.3163-58.6623C52.8736-63.8932 57.0061-68.0257 62.237-68.583C62.8268-68.6458 63.5275-68.6458 64.9289-68.6458L81.1032-68.6458C82.5046-68.6458 83.2053-68.6458 83.795-68.583C89.0259-68.0257 93.1583-63.8932 93.7153-58.6623C93.7783-58.0725 93.7783-57.3718 93.7783-55.9704C93.7783-55.7515 93.7783-55.642 93.7683-55.5498C93.6813-54.7325 93.0359-54.0868 92.2186-53.9997C92.1264-53.9899 92.017-53.9899 91.798-53.9899L54.234-53.9899C54.0151-53.9899 53.9056-53.9899 53.8134-53.9997C52.9961-54.0868 52.3504-54.7325 52.2633-55.5498C52.2535-55.642 52.2535-55.7515 52.2535-55.9704Z"/>
  </g>
  <g id="Black-M" transform="matrix(1 0 0 1 2867.14 1126)">
   <path class="monochrome-0 multicolor-0:labelColor hierarchical-0:tertiary SFSymbolsPreviewWireframe" d="M62.0306-87.7762C62.9702-92.3812 69.5508-92.3812 70.4904-87.7762C70.5014-87.7226 70.5175-87.6698 70.5302-87.6172C73.2089-87.3986 75.8289-86.977 78.3778-86.369C78.4079-86.4178 78.4523-86.4614 78.4811-86.5121C80.7986-90.5989 87.0491-88.5654 86.5195-83.8962C86.5131-83.8379 86.5163-83.7788 86.5115-83.7213C88.9547-82.6895 91.2963-81.4642 93.5323-80.0877C93.5931-80.1378 93.6635-80.1766 93.7227-80.2308C97.1899-83.4041 102.516-79.5313 100.569-75.2535C100.528-75.1623 100.5-75.0664 100.465-74.9752C102.431-73.263 104.27-71.4107 105.96-69.4254C106.066-69.4646 106.18-69.4886 106.286-69.5368C110.564-71.4834 114.436-66.1579 111.263-62.691C111.174-62.5934 111.095-62.4901 111.016-62.3889C112.334-60.1867 113.488-57.8766 114.475-55.4794C114.624-55.4818 114.775-55.4701 114.928-55.4874C119.597-56.0167 121.631-49.7665 117.544-47.449C117.387-47.3596 117.239-47.257 117.099-47.1548C117.651-44.7054 118.026-42.1919 118.22-39.6253C118.408-39.5602 118.604-39.5002 118.808-39.4583C123.413-38.5185 123.413-31.9381 118.808-30.9985C118.578-30.9514 118.357-30.8918 118.148-30.8156C117.917-28.2967 117.508-25.8316 116.932-23.4292C117.119-23.2794 117.323-23.141 117.544-23.0158C121.633-20.699 119.598-14.4404 114.928-14.9692C114.652-15.0004 114.384-15.002 114.125-14.9852C113.148-12.7228 112.021-10.5412 110.746-8.4572C110.892-8.2204 111.062-7.986 111.263-7.766C114.432-4.2988 110.562 1.026 106.286-0.9204C105.986-1.0564 105.685-1.1484 105.387-1.214C103.799 0.5908 102.088 2.2804 100.267 3.8508C100.332 4.1628 100.426 4.482 100.569 4.7964C102.513 9.074 97.1891 12.938 93.7227 9.766C93.4619 9.5268 93.1803 9.3388 92.8963 9.178C90.8571 10.3932 88.7339 11.4804 86.5275 12.414C86.4899 12.7404 86.4795 13.0844 86.5195 13.4396C87.0467 18.106 80.7996 20.1372 78.4811 16.0556C78.2971 15.7308 78.0718 15.4468 77.8371 15.1964C75.557 15.7148 73.2231 16.0852 70.8403 16.294C70.6919 16.6076 70.5659 16.9492 70.4904 17.3196C69.5481 21.9196 62.9724 21.9196 62.0306 17.3196C61.9555 16.9516 61.8278 16.614 61.6807 16.302C59.2929 16.0956 56.9529 15.73 54.668 15.2124C54.4399 15.4588 54.2275 15.738 54.0479 16.0556C51.7303 20.1396 45.4748 18.106 46.0015 13.4396C46.0407 13.0932 46.0205 12.758 45.9855 12.4372C43.7707 11.5036 41.6395 10.4116 39.593 9.1932C39.3198 9.3516 39.0496 9.5356 38.7979 9.766C35.3318 12.938 30.0095 9.0732 31.9521 4.7964C32.0876 4.4988 32.1723 4.194 32.2383 3.898C30.402 2.318 28.6707 0.6196 27.0703-1.198C26.7945-1.1324 26.5123-1.046 26.2354-0.9204C21.9587 1.0228 18.0939-4.2996 21.266-7.766C21.4531-7.97 21.604-8.1908 21.7431-8.41C20.4543-10.5108 19.3099-12.71 18.3242-14.9932C18.0879-15.0044 17.8424-14.998 17.5927-14.9692C12.9252-14.442 10.8919-20.6982 14.9768-23.0158C15.1778-23.1296 15.3611-23.2632 15.5334-23.3974C14.9516-25.8149 14.533-28.2959 14.301-30.8315C14.1136-30.8963 13.9171-30.9568 13.7127-30.9985C9.11148-31.9398 9.11195-38.5163 13.7127-39.4583C13.8943-39.4954 14.0691-39.554 14.2374-39.6094C14.4317-42.1925 14.8095-44.7222 15.3664-47.1866C15.2423-47.2743 15.1143-47.371 14.9768-47.449C10.894-49.7674 12.9256-56.015 17.5927-55.4874C17.7235-55.4726 17.8551-55.4834 17.9823-55.4794C18.9753-57.8922 20.1443-60.2135 21.4727-62.4286C21.4047-62.5146 21.3423-62.6076 21.266-62.691C18.0931-66.1575 21.9581-71.4818 26.2354-69.5368C26.323-69.497 26.4182-69.475 26.5057-69.4414C28.2057-71.4374 30.061-73.2952 32.0396-75.015C32.0091-75.0929 31.9875-75.1756 31.9521-75.2535C30.0059-79.5306 35.331-83.4009 38.7979-80.2308C38.8477-80.1853 38.9062-80.1462 38.9569-80.1036C41.1999-81.4825 43.5507-82.705 46.0015-83.7372C45.9973-83.7893 46.0073-83.8434 46.0015-83.8962C45.472-88.5662 51.7312-90.6013 54.0479-86.5121C54.0733-86.4672 54.1088-86.4282 54.1353-86.3848C56.6839-86.9901 59.3047-87.4013 61.9829-87.6172C61.9957-87.6704 62.0194-87.7218 62.0306-87.7762Z"/>
   <path class="monochrome-1 multicolor-1:tintColor hierarchical-1:primary SFSymbolsPreviewWireframe" d="M43.7938-6.8692C43.3337-7.2132 43.1473-7.81 43.3129-8.3596L53.8658-43.3878C54.2921-44.8029 55.5954-45.7714 57.0733-45.7714L75.3894-45.7714C76.8673-45.7714 78.1706-44.8029 78.5969-43.3878L89.1499-8.3596C89.3155-7.81 89.1291-7.2132 88.6691-6.87C82.4091-2.1972 74.6433 0.5692 66.2313 0.5692C57.8194 0.5692 50.0535-2.1972 43.7938-6.8692ZM49.6213-51.8223C49.6213-52.9434 49.6213-53.504 49.6715-53.9758C50.1174-58.1606 53.4234-61.4666 57.6081-61.9124C58.0799-61.9626 58.6405-61.9626 59.7616-61.9626L72.7011-61.9626C73.8222-61.9626 74.3827-61.9626 74.8545-61.9124C79.0392-61.4666 82.3451-58.1606 82.7907-53.9758C82.8411-53.504 82.8411-52.9434 82.8411-51.8223C82.8411-51.6472 82.8411-51.5596 82.8331-51.4858C82.7635-50.832 82.2472-50.3154 81.5934-50.2458C81.5196-50.2379 81.4321-50.2379 81.2569-50.2379L51.2057-50.2379C51.0306-50.2379 50.943-50.2379 50.8692-50.2458C50.2154-50.3154 49.6988-50.832 49.6291-51.4858C49.6213-51.5596 49.6213-51.6472 49.6213-51.8223Z"/>
  </g>
  <g id="Regular-M" transform="matrix(1 0 0 1 1386.94 1126)">
   <path class="monochrome-0 multicolor-0:labelColor hierarchical-0:tertiary SFSymbolsPreviewWireframe" d="M58.678-87.7762C59.6176-92.3812 66.1983-92.3812 67.1379-87.7762C67.1488-87.7226 67.165-87.6698 67.1776-87.6172C69.8563-87.3986 72.4763-86.977 75.0252-86.369C75.0553-86.4178 75.0998-86.4614 75.1286-86.5121C77.446-90.5989 83.6966-88.5654 83.167-83.8962C83.1606-83.8379 83.1638-83.7788 83.159-83.7213C85.6022-82.6895 87.9438-81.4642 90.1798-80.0877C90.2406-80.1378 90.311-80.1766 90.3702-80.2308C93.8374-83.4041 99.163-79.5313 97.2166-75.2535C97.175-75.1623 97.1478-75.0664 97.1126-74.9752C99.0782-73.263 100.917-71.4107 102.607-69.4254C102.713-69.4646 102.827-69.4886 102.933-69.5368C107.211-71.4834 111.084-66.1579 107.91-62.691C107.821-62.5934 107.742-62.4901 107.664-62.3889C108.981-60.1867 110.136-57.8766 111.122-55.4794C111.271-55.4818 111.422-55.4701 111.576-55.4874C116.245-56.0167 118.278-49.7665 114.192-47.449C114.034-47.3596 113.886-47.257 113.746-47.1548C114.298-44.7054 114.673-42.1919 114.868-39.6253C115.056-39.5602 115.251-39.5002 115.456-39.4583C120.061-38.5185 120.061-31.9381 115.456-30.9985C115.225-30.9514 115.005-30.8918 114.796-30.8156C114.565-28.2967 114.156-25.8316 113.579-23.4292C113.766-23.2794 113.97-23.141 114.192-23.0158C118.281-20.699 116.245-14.4404 111.576-14.9692C111.3-15.0004 111.032-15.002 110.773-14.9852C109.796-12.7228 108.669-10.5412 107.393-8.4572C107.54-8.2204 107.709-7.986 107.91-7.766C111.08-4.2988 107.209 1.026 102.933-0.9204C102.633-1.0564 102.333-1.1484 102.034-1.214C100.446 0.5908 98.735 2.2804 96.9142 3.8508C96.9798 4.1628 97.0734 4.482 97.2166 4.7964C99.1606 9.074 93.8366 12.938 90.3702 9.766C90.1094 9.5268 89.8278 9.3388 89.5438 9.178C87.5046 10.3932 85.3814 11.4804 83.175 12.414C83.1374 12.7404 83.127 13.0844 83.167 13.4396C83.6942 18.106 77.4471 20.1372 75.1286 16.0556C74.9445 15.7308 74.7192 15.4468 74.4845 15.1964C72.2044 15.7148 69.8706 16.0852 67.4877 16.294C67.3394 16.6076 67.2134 16.9492 67.1379 17.3196C66.1955 21.9196 59.6199 21.9196 58.678 17.3196C58.603 16.9516 58.4752 16.614 58.3282 16.302C55.9403 16.0956 53.6003 15.73 51.3155 15.2124C51.0874 15.4588 50.8749 15.738 50.6953 16.0556C48.3777 20.1396 42.1223 18.106 42.6489 13.4396C42.6882 13.0932 42.6679 12.758 42.633 12.4372C40.4182 11.5036 38.2869 10.4116 36.2404 9.1932C35.9672 9.3516 35.6971 9.5356 35.4454 9.766C31.9792 12.938 26.6569 9.0732 28.5995 4.7964C28.7351 4.4988 28.8198 4.194 28.8858 3.898C27.0495 2.318 25.3182 0.6196 23.7177-1.198C23.4419-1.1324 23.1598-1.046 22.8828-0.9204C18.6062 1.0228 14.7413-4.2996 17.9135-7.766C18.1005-7.97 18.2515-8.1908 18.3906-8.41C17.1018-10.5108 15.9573-12.71 14.9716-14.9932C14.7353-15.0044 14.4899-14.998 14.2402-14.9692C9.57267-14.442 7.53931-20.6982 11.6243-23.0158C11.8252-23.1296 12.0085-23.2632 12.1808-23.3974C11.5991-25.8149 11.1804-28.2959 10.9484-30.8315C10.7611-30.8963 10.5645-30.9568 10.3601-30.9985C5.75891-31.9398 5.75939-38.5163 10.3601-39.4583C10.5418-39.4954 10.7166-39.554 10.8848-39.6094C11.0791-42.1925 11.457-44.7222 12.0139-47.1866C11.8898-47.2743 11.7618-47.371 11.6243-47.449C7.54147-49.7674 9.57307-56.015 14.2402-55.4874C14.3709-55.4726 14.5026-55.4834 14.6298-55.4794C15.6227-57.8922 16.7918-60.2135 18.1202-62.4286C18.0521-62.5146 17.9897-62.6076 17.9135-62.691C14.7406-66.1575 18.6055-71.4818 22.8828-69.5368C22.9704-69.497 23.0656-69.475 23.1531-69.4414C24.8531-71.4374 26.7084-73.2952 28.6871-75.015C28.6565-75.0929 28.6349-75.1756 28.5995-75.2535C26.6533-79.5306 31.9784-83.4009 35.4454-80.2308C35.4951-80.1853 35.5536-80.1462 35.6043-80.1036C37.8474-81.4825 40.1982-82.705 42.6489-83.7372C42.6447-83.7893 42.6547-83.8434 42.6489-83.8962C42.1195-88.5662 48.3787-90.6013 50.6953-86.5121C50.7207-86.4672 50.7563-86.4282 50.7827-86.3848C53.3314-86.9901 55.9521-87.4013 58.6303-87.6172C58.6431-87.6704 58.6668-87.7218 58.678-87.7762Z"/>
   <path class="monochrome-1 multicolor-1:tintColor hierarchical-1:primary SFSymbolsPreviewWireframe" d="M40.4412-6.8692C39.9811-7.2132 39.7947-7.81 39.9603-8.3596L50.5132-43.3878C50.9395-44.8029 52.2428-45.7714 53.7207-45.7714L72.0368-45.7714C73.5147-45.7714 74.818-44.8029 75.2443-43.3878L85.7974-8.3596C85.963-7.81 85.7766-7.2132 85.3166-6.87C79.0566-2.1972 71.2907 0.5692 62.8787 0.5692C54.4668 0.5692 46.7009-2.1972 40.4412-6.8692ZM46.2687-51.8223C46.2687-52.9434 46.2687-53.504 46.319-53.9758C46.7648-58.1606 50.0708-61.4666 54.2555-61.9124C54.7274-61.9626 55.2879-61.9626 56.4091-61.9626L69.3485-61.9626C70.4696-61.9626 71.0302-61.9626 71.5019-61.9124C75.6867-61.4666 78.9926-58.1606 79.4382-53.9758C79.4886-53.504 79.4886-52.9434 79.4886-51.8223C79.4886-51.6472 79.4886-51.5596 79.4806-51.4858C79.411-50.832 78.8947-50.3154 78.2408-50.2458C78.1671-50.2379 78.0795-50.2379 77.9043-50.2379L47.8531-50.2379C47.678-50.2379 47.5904-50.2379 47.5167-50.2458C46.8628-50.3154 46.3463-50.832 46.2766-51.4858C46.2687-51.5596 46.2687-51.6472 46.2687-51.8223Z"/>
  </g>
  <g id="Ultralight-M" transform="matrix(1 0 0 1 501.024 1126)">
   <path class="monochrome-0 multicolor-0:labelColor hierarchical-0:tertiary SFSymbolsPreviewWireframe" d="M54.4559-87.7762C55.3955-92.3812 61.9761-92.3812 62.9157-87.7762C62.9267-87.7226 62.9428-87.6698 62.9555-87.6172C65.6342-87.3986 68.2542-86.977 70.8031-86.369C70.8331-86.4178 70.8776-86.4614 70.9064-86.5121C73.2239-90.5989 79.4744-88.5654 78.9448-83.8962C78.9384-83.8379 78.9416-83.7788 78.9368-83.7213C81.38-82.6895 83.7216-81.4642 85.9576-80.0877C86.0184-80.1378 86.0888-80.1766 86.148-80.2308C89.6152-83.4041 94.9408-79.5313 92.9944-75.2535C92.9528-75.1623 92.9256-75.0664 92.8904-74.9752C94.856-73.263 96.6952-71.4107 98.3848-69.4254C98.4912-69.4646 98.6048-69.4886 98.7112-69.5368C102.989-71.4834 106.862-66.1579 103.688-62.691C103.599-62.5934 103.52-62.4901 103.442-62.3889C104.759-60.1867 105.914-57.8766 106.9-55.4794C107.049-55.4818 107.2-55.4701 107.354-55.4874C112.022-56.0167 114.056-49.7665 109.97-47.449C109.812-47.3596 109.664-47.257 109.524-47.1548C110.076-44.7054 110.451-42.1919 110.646-39.6253C110.834-39.5602 111.029-39.5002 111.234-39.4583C115.838-38.5185 115.838-31.9381 111.234-30.9985C111.003-30.9514 110.782-30.8918 110.574-30.8156C110.342-28.2967 109.934-25.8316 109.357-23.4292C109.544-23.2794 109.748-23.141 109.97-23.0158C114.058-20.699 112.023-14.4404 107.354-14.9692C107.078-15.0004 106.81-15.002 106.55-14.9852C105.574-12.7228 104.446-10.5412 103.171-8.4572C103.318-8.2204 103.487-7.986 103.688-7.766C106.858-4.2988 102.987 1.026 98.7112-0.9204C98.4112-1.0564 98.1104-1.1484 97.812-1.214C96.224 0.5908 94.5128 2.2804 92.692 3.8508C92.7576 4.1628 92.8512 4.482 92.9944 4.7964C94.9384 9.074 89.6144 12.938 86.148 9.766C85.8872 9.5268 85.6056 9.3388 85.3216 9.178C83.2824 10.3932 81.1592 11.4804 78.9528 12.414C78.9152 12.7404 78.9048 13.0844 78.9448 13.4396C79.472 18.106 73.2249 20.1372 70.9064 16.0556C70.7223 15.7308 70.4971 15.4468 70.2623 15.1964C67.9823 15.7148 65.6484 16.0852 63.2655 16.294C63.1172 16.6076 62.9912 16.9492 62.9157 17.3196C61.9734 21.9196 55.3977 21.9196 54.4559 17.3196C54.3808 16.9516 54.2531 16.614 54.106 16.302C51.7182 16.0956 49.3782 15.73 47.0933 15.2124C46.8652 15.4588 46.6527 15.738 46.4731 16.0556C44.1555 20.1396 37.9001 18.106 38.4267 13.4396C38.466 13.0932 38.4458 12.758 38.4108 12.4372C36.196 11.5036 34.0647 10.4116 32.0183 9.1932C31.7451 9.3516 31.4749 9.5356 31.2232 9.766C27.7571 12.938 22.4347 9.0732 24.3774 4.7964C24.5129 4.4988 24.5976 4.194 24.6636 3.898C22.8273 2.318 21.096 0.6196 19.4955-1.198C19.2198-1.1324 18.9376-1.046 18.6607-0.9204C14.384 1.0228 10.5191-4.2996 13.6913-7.766C13.8783-7.97 14.0293-8.1908 14.1684-8.41C12.8796-10.5108 11.7351-12.71 10.7495-14.9932C10.5131-15.0044 10.2677-14.998 10.018-14.9692C5.35049-14.442 3.31713-20.6982 7.40209-23.0158C7.60305-23.1296 7.78633-23.2632 7.95865-23.3974C7.37689-25.8149 6.95825-28.2959 6.72625-30.8315C6.53889-30.8963 6.34233-30.9568 6.13793-30.9985C1.53674-31.9398 1.53721-38.5163 6.13793-39.4583C6.31961-39.4954 6.49441-39.554 6.66265-39.6094C6.85697-42.1925 7.23481-44.7222 7.79169-47.1866C7.66761-47.2743 7.53961-47.371 7.40209-47.449C3.31929-49.7674 5.35089-56.015 10.018-55.4874C10.1487-55.4726 10.2804-55.4834 10.4076-55.4794C11.4006-57.8922 12.5696-60.2135 13.898-62.4286C13.8299-62.5146 13.7675-62.6076 13.6913-62.691C10.5184-66.1575 14.3834-71.4818 18.6607-69.5368C18.7483-69.497 18.8435-69.475 18.931-69.4414C20.631-71.4374 22.4863-73.2952 24.4649-75.015C24.4343-75.0929 24.4127-75.1756 24.3774-75.2535C22.4311-79.5306 27.7563-83.4009 31.2232-80.2308C31.273-80.1853 31.3315-80.1462 31.3822-80.1036C33.6252-81.4825 35.976-82.705 38.4267-83.7372C38.4226-83.7893 38.4326-83.8434 38.4267-83.8962C37.8973-88.5662 44.1565-90.6013 46.4731-86.5121C46.4986-86.4672 46.5341-86.4282 46.5606-86.3848C49.1092-86.9901 51.7299-87.4013 54.4082-87.6172C54.421-87.6704 54.4447-87.7218 54.4559-87.7762Z"/>
   <path class="monochrome-1 multicolor-1:tintColor hierarchical-1:primary SFSymbolsPreviewWireframe" d="M36.2191-6.8692C35.759-7.2132 35.5726-7.81 35.7382-8.3596L46.2911-43.3878C46.7174-44.8029 48.0207-45.7714 49.4986-45.7714L67.8147-45.7714C69.2926-45.7714 70.5959-44.8029 71.0222-43.3878L81.5752-8.3596C81.7408-7.81 81.5544-7.2132 81.0944-6.87C74.8344-2.1972 67.0686 0.5692 58.6566 0.5692C50.2447 0.5692 42.4787-2.1972 36.2191-6.8692ZM42.0466-51.8223C42.0466-52.9434 42.0466-53.504 42.0968-53.9758C42.5427-58.1606 45.8487-61.4666 50.0334-61.9124C50.5052-61.9626 51.0658-61.9626 52.1869-61.9626L65.1263-61.9626C66.2475-61.9626 66.808-61.9626 67.2798-61.9124C71.4645-61.4666 74.7704-58.1606 75.216-53.9758C75.2664-53.504 75.2664-52.9434 75.2664-51.8223C75.2664-51.6472 75.2664-51.5596 75.2584-51.4858C75.1888-50.832 74.6725-50.3154 74.0187-50.2458C73.9449-50.2379 73.8574-50.2379 73.6822-50.2379L43.631-50.2379C43.4559-50.2379 43.3683-50.2379 43.2945-50.2458C42.6407-50.3154 42.1241-50.832 42.0544-51.4858C42.0466-51.5596 42.0466-51.6472 42.0466-51.8223Z"/>
  </g>
  <g id="Black-S" transform="matrix(1 0 0 1 2883.2 696)">
   <path class="monochrome-0 multicolor-0:labelColor hierarchical-0:tertiary SFSymbolsPreviewWireframe" d="M47.0265-74.6392C47.7312-78.0929 52.6667-78.0929 53.3714-74.6392C53.3796-74.5989 53.3917-74.5593 53.4012-74.5199C55.4102-74.356 57.3752-74.0398 59.2869-73.5837C59.3094-73.6203 59.3428-73.653 59.3644-73.6911C61.1025-76.7562 65.7904-75.2311 65.3932-71.7291C65.3884-71.6854 65.3908-71.6411 65.3872-71.598C67.2196-70.8241 68.9758-69.9051 70.6528-68.8728C70.6984-68.9103 70.7512-68.9395 70.7956-68.9801C73.396-71.3601 77.3902-68.4555 75.9304-65.2471C75.8992-65.1787 75.8788-65.1068 75.8524-65.0384C77.3266-63.7543 78.706-62.365 79.9732-60.8761C80.053-60.9055 80.1382-60.9234 80.218-60.9596C83.4262-62.4195 86.3308-58.4254 83.9506-55.8252C83.884-55.752 83.8246-55.6746 83.7658-55.5987C84.754-53.947 85.6198-52.2144 86.3596-50.4166C86.4712-50.4183 86.5846-50.4096 86.6998-50.4226C90.2014-50.8195 91.7266-46.1319 88.6618-44.3938C88.5436-44.3267 88.4326-44.2497 88.3276-44.1731C88.7416-42.336 89.023-40.4509 89.1688-38.526C89.3098-38.4771 89.4562-38.4321 89.6098-38.4007C93.0634-37.6959 93.0634-32.7606 89.6098-32.0559C89.437-32.0206 89.2714-31.9759 89.1148-31.9187C88.9414-30.0295 88.6348-28.1807 88.2022-26.3789C88.3426-26.2666 88.4956-26.1628 88.6618-26.0688C91.7284-24.3312 90.202-19.6373 86.6998-20.0339C86.4928-20.0573 86.2918-20.0585 86.0974-20.0459C85.3648-18.3491 84.5194-16.7129 83.563-15.1499C83.6728-14.9723 83.8-14.7965 83.9506-14.6315C86.3278-12.0311 83.425-8.0375 80.218-9.4973C79.993-9.5993 79.7674-9.6683 79.5436-9.7175C78.3526-8.3639 77.0692-7.0967 75.7036-5.9189C75.7528-5.6849 75.823-5.4455 75.9304-5.2097C77.3884-2.0015 73.3954 0.8965 70.7956-1.4825C70.6-1.6619 70.3888-1.8029 70.1758-1.9235C68.6464-1.0121 67.054-0.1967 65.3992 0.5035C65.371 0.7483 65.3632 1.0063 65.3932 1.2727C65.7886 4.7725 61.1033 6.2959 59.3644 3.2347C59.2263 2.9911 59.0574 2.7781 58.8813 2.5903C57.1713 2.9791 55.4209 3.2569 53.6337 3.4135C53.5225 3.6487 53.428 3.9049 53.3714 4.1827C52.6646 7.6327 47.7329 7.6327 47.0265 4.1827C46.9702 3.9067 46.8744 3.6535 46.7641 3.4195C44.9732 3.2647 43.2182 2.9905 41.5046 2.6023C41.3335 2.7871 41.1741 2.9965 41.0394 3.2347C39.3012 6.2977 34.6097 4.7725 35.0046 1.2727C35.0341 1.0129 35.0189 0.7615 34.9927 0.5209C33.3316-0.1793 31.7331-0.9983 30.1983-1.9121C29.9934-1.7933 29.7908-1.6553 29.602-1.4825C27.0024 0.8965 23.0106-2.0021 24.4676-5.2097C24.5693-5.4329 24.6328-5.6615 24.6823-5.8835C23.3051-7.0685 22.0066-8.3423 20.8062-9.7055C20.5994-9.6563 20.3878-9.5915 20.1801-9.4973C16.9726-8.0399 14.0739-12.0317 16.4531-14.6315C16.5933-14.7845 16.7066-14.9501 16.8109-15.1145C15.8443-16.6901 14.9859-18.3395 14.2467-20.0519C14.0694-20.0603 13.8854-20.0555 13.6981-20.0339C10.1975-19.6385 8.67244-24.3306 11.7362-26.0688C11.8869-26.1542 12.0243-26.2544 12.1536-26.355C11.7173-28.1682 11.4033-30.0289 11.2293-31.9306C11.0888-31.9792 10.9413-32.0246 10.788-32.0559C7.33715-32.7619 7.3375-37.6942 10.788-38.4007C10.9243-38.4285 11.0554-38.4725 11.1816-38.514C11.3273-40.4514 11.6107-42.3487 12.0284-44.197C11.9353-44.2627 11.8393-44.3353 11.7362-44.3938C8.67406-46.1326 10.1978-50.8183 13.6981-50.4226C13.7961-50.4115 13.8949-50.4195 13.9903-50.4166C14.735-52.2261 15.6118-53.9671 16.6081-55.6285C16.557-55.693 16.5102-55.7627 16.4531-55.8252C14.0734-58.4251 16.9721-62.4183 20.1801-60.9596C20.2458-60.9297 20.3172-60.9132 20.3828-60.888C21.6578-62.3851 23.0493-63.7784 24.5333-65.0682C24.5103-65.1267 24.4941-65.1887 24.4676-65.2471C23.0079-68.4549 27.0018-71.3577 29.602-68.9801C29.6393-68.946 29.6832-68.9167 29.7212-68.8847C31.4035-69.9189 33.1666-70.8358 35.0046-71.6099C35.0015-71.649 35.009-71.6896 35.0046-71.7291C34.6076-75.2316 39.302-76.758 41.0394-73.6911C41.0585-73.6574 41.0852-73.6282 41.105-73.5956C43.0165-74.0496 44.982-74.358 46.9907-74.5199C47.0003-74.5598 47.0181-74.5984 47.0265-74.6392Z"/>
   <path class="monochrome-1 multicolor-1:tintColor hierarchical-1:primary SFSymbolsPreviewWireframe" d="M33.3489-13.9589C33.0038-14.2169 32.864-14.6645 32.9882-15.0767L40.9029-41.3478C41.2226-42.4092 42.2001-43.1355 43.3085-43.1355L57.0456-43.1355C58.154-43.1355 59.1315-42.4092 59.4512-41.3478L67.366-15.0767C67.4902-14.6645 67.3504-14.2169 67.0054-13.9595C62.3104-10.4549 56.486-8.3801 50.177-8.3801C43.8681-8.3801 38.0436-10.4549 33.3489-13.9589ZM37.7195-47.6737C37.7195-48.5146 37.7195-48.935 37.7572-49.2889C38.0916-52.4274 40.5711-54.9069 43.7096-55.2413C44.0635-55.279 44.4839-55.279 45.3248-55.279L55.0293-55.279C55.8702-55.279 56.2906-55.279 56.6444-55.2413C59.783-54.9069 62.2624-52.4274 62.5966-49.2889C62.6344-48.935 62.6344-48.5146 62.6344-47.6737C62.6344-47.5424 62.6344-47.4767 62.6284-47.4214C62.5762-46.931 62.189-46.5436 61.6986-46.4913C61.6433-46.4854 61.5776-46.4854 61.4462-46.4854L38.9078-46.4854C38.7765-46.4854 38.7108-46.4854 38.6555-46.4913C38.1651-46.5436 37.7777-46.931 37.7254-47.4214C37.7195-47.4767 37.7195-47.5424 37.7195-47.6737Z"/>
  </g>
  <g id="Regular-S" transform="matrix(1 0 0 1 1401.75 696)">
   <path class="monochrome-0 multicolor-0:labelColor hierarchical-0:tertiary SFSymbolsPreviewWireframe" d="M44.9215-74.6392C45.6262-78.0929 50.5617-78.0929 51.2664-74.6392C51.2746-74.5989 51.2867-74.5593 51.2962-74.5199C53.3052-74.356 55.2702-74.0398 57.1819-73.5837C57.2044-73.6203 57.2378-73.653 57.2594-73.6911C58.9975-76.7562 63.6854-75.2311 63.2882-71.7291C63.2834-71.6854 63.2858-71.6411 63.2822-71.598C65.1146-70.8241 66.8708-69.9051 68.5478-68.8728C68.5934-68.9103 68.6462-68.9395 68.6906-68.9801C71.291-71.3601 75.2852-68.4555 73.8254-65.2471C73.7942-65.1787 73.7738-65.1068 73.7474-65.0384C75.2216-63.7543 76.601-62.365 77.8682-60.8761C77.948-60.9055 78.0332-60.9234 78.113-60.9596C81.3212-62.4195 84.2258-58.4254 81.8456-55.8252C81.779-55.752 81.7196-55.6746 81.6608-55.5987C82.649-53.947 83.5148-52.2144 84.2546-50.4166C84.3662-50.4183 84.4796-50.4096 84.5948-50.4226C88.0964-50.8195 89.6216-46.1319 86.5568-44.3938C86.4386-44.3267 86.3276-44.2497 86.2226-44.1731C86.6366-42.336 86.918-40.4509 87.0638-38.526C87.2048-38.4771 87.3512-38.4321 87.5048-38.4007C90.9584-37.6959 90.9584-32.7606 87.5048-32.0559C87.332-32.0206 87.1664-31.9759 87.0098-31.9187C86.8364-30.0295 86.5298-28.1807 86.0972-26.3789C86.2376-26.2666 86.3906-26.1628 86.5568-26.0688C89.6234-24.3312 88.097-19.6373 84.5948-20.0339C84.3878-20.0573 84.1868-20.0585 83.9924-20.0459C83.2598-18.3491 82.4144-16.7129 81.458-15.1499C81.5678-14.9723 81.695-14.7965 81.8456-14.6315C84.2228-12.0311 81.32-8.0375 78.113-9.4973C77.888-9.5993 77.6624-9.6683 77.4386-9.7175C76.2476-8.3639 74.9642-7.0967 73.5986-5.9189C73.6478-5.6849 73.718-5.4455 73.8254-5.2097C75.2834-2.0015 71.2904 0.8965 68.6906-1.4825C68.495-1.6619 68.2838-1.8029 68.0708-1.9235C66.5414-1.0121 64.949-0.1967 63.2942 0.5035C63.266 0.7483 63.2582 1.0063 63.2882 1.2727C63.6836 4.7725 58.9983 6.2959 57.2594 3.2347C57.1213 2.9911 56.9524 2.7781 56.7763 2.5903C55.0663 2.9791 53.3159 3.2569 51.5287 3.4135C51.4175 3.6487 51.323 3.9049 51.2664 4.1827C50.5596 7.6327 45.6279 7.6327 44.9215 4.1827C44.8652 3.9067 44.7694 3.6535 44.6591 3.4195C42.8682 3.2647 41.1132 2.9905 39.3996 2.6023C39.2285 2.7871 39.0691 2.9965 38.9344 3.2347C37.1962 6.2977 32.5047 4.7725 32.8996 1.2727C32.9291 1.0129 32.9139 0.7615 32.8877 0.5209C31.2266-0.1793 29.6281-0.9983 28.0933-1.9121C27.8884-1.7933 27.6858-1.6553 27.497-1.4825C24.8974 0.8965 20.9056-2.0021 22.3626-5.2097C22.4643-5.4329 22.5278-5.6615 22.5773-5.8835C21.2001-7.0685 19.9016-8.3423 18.7012-9.7055C18.4944-9.6563 18.2828-9.5915 18.0751-9.4973C14.8676-8.0399 11.9689-12.0317 14.3481-14.6315C14.4883-14.7845 14.6016-14.9501 14.7059-15.1145C13.7393-16.6901 12.8809-18.3395 12.1417-20.0519C11.9644-20.0603 11.7804-20.0555 11.5931-20.0339C8.09246-19.6385 6.56744-24.3306 9.63116-26.0688C9.78188-26.1542 9.91934-26.2544 10.0486-26.355C9.61226-28.1682 9.29828-30.0289 9.12428-31.9306C8.98376-31.9792 8.83634-32.0246 8.68304-32.0559C5.23215-32.7619 5.2325-37.6942 8.68304-38.4007C8.8193-38.4285 8.9504-38.4725 9.07658-38.514C9.22232-40.4514 9.5057-42.3487 9.92336-44.197C9.8303-44.2627 9.7343-44.3353 9.63116-44.3938C6.56906-46.1326 8.09276-50.8183 11.5931-50.4226C11.6911-50.4115 11.7899-50.4195 11.8853-50.4166C12.63-52.2261 13.5068-53.9671 14.5031-55.6285C14.452-55.693 14.4052-55.7627 14.3481-55.8252C11.9684-58.4251 14.8671-62.4183 18.0751-60.9596C18.1408-60.9297 18.2122-60.9132 18.2778-60.888C19.5528-62.3851 20.9443-63.7784 22.4283-65.0682C22.4053-65.1267 22.3891-65.1887 22.3626-65.2471C20.9029-68.4549 24.8968-71.3577 27.497-68.9801C27.5343-68.946 27.5782-68.9167 27.6162-68.8847C29.2985-69.9189 31.0616-70.8358 32.8996-71.6099C32.8965-71.649 32.904-71.6896 32.8996-71.7291C32.5026-75.2316 37.197-76.758 38.9344-73.6911C38.9535-73.6574 38.9802-73.6282 39-73.5956C40.9115-74.0496 42.877-74.358 44.8857-74.5199C44.8953-74.5598 44.9131-74.5984 44.9215-74.6392Z"/>
   <path class="monochrome-1 multicolor-1:tintColor hierarchical-1:primary SFSymbolsPreviewWireframe" d="M31.2439-13.9589C30.8988-14.2169 30.759-14.6645 30.8832-15.0767L38.7979-41.3478C39.1176-42.4092 40.0951-43.1355 41.2035-43.1355L54.9406-43.1355C56.049-43.1355 57.0265-42.4092 57.3462-41.3478L65.261-15.0767C65.3852-14.6645 65.2454-14.2169 64.9004-13.9595C60.2054-10.4549 54.381-8.3801 48.072-8.3801C41.7631-8.3801 35.9386-10.4549 31.2439-13.9589ZM35.6145-47.6737C35.6145-48.5146 35.6145-48.935 35.6522-49.2889C35.9866-52.4274 38.4661-54.9069 41.6046-55.2413C41.9585-55.279 42.3789-55.279 43.2198-55.279L52.9243-55.279C53.7652-55.279 54.1856-55.279 54.5394-55.2413C57.678-54.9069 60.1574-52.4274 60.4916-49.2889C60.5294-48.935 60.5294-48.5146 60.5294-47.6737C60.5294-47.5424 60.5294-47.4767 60.5234-47.4214C60.4712-46.931 60.084-46.5436 59.5936-46.4913C59.5383-46.4854 59.4726-46.4854 59.3412-46.4854L36.8028-46.4854C36.6715-46.4854 36.6058-46.4854 36.5505-46.4913C36.0601-46.5436 35.6727-46.931 35.6204-47.4214C35.6145-47.4767 35.6145-47.5424 35.6145-47.6737Z"/>
  </g>
  <g id="Ultralight-S" transform="matrix(1 0 0 1 515.351 696)">
   <path class="monochrome-0 multicolor-0:labelColor hierarchical-0:tertiary SFSymbolsPreviewWireframe" d="M41.1865-74.6392C41.8912-78.0929 46.8267-78.0929 47.5314-74.6392C47.5396-74.5989 47.5517-74.5593 47.5612-74.5199C49.5702-74.356 51.5352-74.0398 53.4469-73.5837C53.4694-73.6203 53.5028-73.653 53.5244-73.6911C55.2625-76.7562 59.9504-75.2311 59.5532-71.7291C59.5484-71.6854 59.5508-71.6411 59.5472-71.598C61.3796-70.8241 63.1358-69.9051 64.8128-68.8728C64.8584-68.9103 64.9112-68.9395 64.9556-68.9801C67.556-71.3601 71.5502-68.4555 70.0904-65.2471C70.0592-65.1787 70.0388-65.1068 70.0124-65.0384C71.4866-63.7543 72.866-62.365 74.1332-60.8761C74.213-60.9055 74.2982-60.9234 74.378-60.9596C77.5862-62.4195 80.4908-58.4254 78.1106-55.8252C78.044-55.752 77.9846-55.6746 77.9258-55.5987C78.914-53.947 79.7798-52.2144 80.5196-50.4166C80.6312-50.4183 80.7446-50.4096 80.8598-50.4226C84.3614-50.8195 85.8866-46.1319 82.8218-44.3938C82.7036-44.3267 82.5926-44.2497 82.4876-44.1731C82.9016-42.336 83.183-40.4509 83.3288-38.526C83.4698-38.4771 83.6162-38.4321 83.7698-38.4007C87.2234-37.6959 87.2234-32.7606 83.7698-32.0559C83.597-32.0206 83.4314-31.9759 83.2748-31.9187C83.1014-30.0295 82.7948-28.1807 82.3622-26.3789C82.5026-26.2666 82.6556-26.1628 82.8218-26.0688C85.8884-24.3312 84.362-19.6373 80.8598-20.0339C80.6528-20.0573 80.4518-20.0585 80.2574-20.0459C79.5248-18.3491 78.6794-16.7129 77.723-15.1499C77.8328-14.9723 77.96-14.7965 78.1106-14.6315C80.4878-12.0311 77.585-8.0375 74.378-9.4973C74.153-9.5993 73.9274-9.6683 73.7036-9.7175C72.5126-8.3639 71.2292-7.0967 69.8636-5.9189C69.9128-5.6849 69.983-5.4455 70.0904-5.2097C71.5484-2.0015 67.5554 0.8965 64.9556-1.4825C64.76-1.6619 64.5488-1.8029 64.3358-1.9235C62.8064-1.0121 61.214-0.1967 59.5592 0.5035C59.531 0.7483 59.5232 1.0063 59.5532 1.2727C59.9486 4.7725 55.2633 6.2959 53.5244 3.2347C53.3863 2.9911 53.2174 2.7781 53.0413 2.5903C51.3313 2.9791 49.5809 3.2569 47.7937 3.4135C47.6825 3.6487 47.588 3.9049 47.5314 4.1827C46.8246 7.6327 41.8929 7.6327 41.1865 4.1827C41.1302 3.9067 41.0344 3.6535 40.9241 3.4195C39.1332 3.2647 37.3782 2.9905 35.6646 2.6023C35.4935 2.7871 35.3341 2.9965 35.1994 3.2347C33.4612 6.2977 28.7697 4.7725 29.1646 1.2727C29.1941 1.0129 29.1789 0.7615 29.1527 0.5209C27.4916-0.1793 25.8931-0.9983 24.3583-1.9121C24.1534-1.7933 23.9508-1.6553 23.762-1.4825C21.1624 0.8965 17.1706-2.0021 18.6276-5.2097C18.7293-5.4329 18.7928-5.6615 18.8423-5.8835C17.4651-7.0685 16.1666-8.3423 14.9662-9.7055C14.7594-9.6563 14.5478-9.5915 14.3401-9.4973C11.1326-8.0399 8.23394-12.0317 10.6131-14.6315C10.7533-14.7845 10.8666-14.9501 10.9709-15.1145C10.0043-16.6901 9.14594-18.3395 8.40668-20.0519C8.22944-20.0603 8.04536-20.0555 7.8581-20.0339C4.35746-19.6385 2.83244-24.3306 5.89616-26.0688C6.04688-26.1542 6.18434-26.2544 6.31358-26.355C5.87726-28.1682 5.56328-30.0289 5.38928-31.9306C5.24876-31.9792 5.10134-32.0246 4.94804-32.0559C1.49715-32.7619 1.4975-37.6942 4.94804-38.4007C5.0843-38.4285 5.2154-38.4725 5.34158-38.514C5.48732-40.4514 5.7707-42.3487 6.18836-44.197C6.0953-44.2627 5.9993-44.3353 5.89616-44.3938C2.83406-46.1326 4.35776-50.8183 7.8581-50.4226C7.95614-50.4115 8.0549-50.4195 8.1503-50.4166C8.89502-52.2261 9.7718-53.9671 10.7681-55.6285C10.717-55.693 10.6702-55.7627 10.6131-55.8252C8.2334-58.4251 11.1321-62.4183 14.3401-60.9596C14.4058-60.9297 14.4772-60.9132 14.5428-60.888C15.8178-62.3851 17.2093-63.7784 18.6933-65.0682C18.6703-65.1267 18.6541-65.1887 18.6276-65.2471C17.1679-68.4549 21.1618-71.3577 23.762-68.9801C23.7993-68.946 23.8432-68.9167 23.8812-68.8847C25.5635-69.9189 27.3266-70.8358 29.1646-71.6099C29.1615-71.649 29.169-71.6896 29.1646-71.7291C28.7676-75.2316 33.462-76.758 35.1994-73.6911C35.2185-73.6574 35.2452-73.6282 35.265-73.5956C37.1765-74.0496 39.142-74.358 41.1507-74.5199C41.1603-74.5598 41.1781-74.5984 41.1865-74.6392Z"/>
   <path class="monochrome-1 multicolor-1:tintColor hierarchical-1:primary SFSymbolsPreviewWireframe" d="M27.5089-13.9589C27.1638-14.2169 27.024-14.6645 27.1482-15.0767L35.0629-41.3478C35.3826-42.4092 36.3601-43.1355 37.4685-43.1355L51.2056-43.1355C52.314-43.1355 53.2915-42.4092 53.6112-41.3478L61.526-15.0767C61.6502-14.6645 61.5104-14.2169 61.1654-13.9595C56.4704-10.4549 50.646-8.3801 44.337-8.3801C38.0281-8.3801 32.2036-10.4549 27.5089-13.9589ZM31.8795-47.6737C31.8795-48.5146 31.8795-48.935 31.9172-49.2889C32.2516-52.4274 34.7311-54.9069 37.8696-55.2413C38.2235-55.279 38.6439-55.279 39.4848-55.279L49.1893-55.279C50.0302-55.279 50.4506-55.279 50.8044-55.2413C53.943-54.9069 56.4224-52.4274 56.7566-49.2889C56.7944-48.935 56.7944-48.5146 56.7944-47.6737C56.7944-47.5424 56.7944-47.4767 56.7884-47.4214C56.7362-46.931 56.349-46.5436 55.8586-46.4913C55.8033-46.4854 55.7376-46.4854 55.6062-46.4854L33.0678-46.4854C32.9365-46.4854 32.8708-46.4854 32.8155-46.4913C32.3251-46.5436 31.9377-46.931 31.8854-47.4214C31.8795-47.4767 31.8795-47.5424 31.8795-47.6737Z"/>
  </g>
 </g>
</svg>
