<?xml version="1.0" encoding="UTF-8"?>
<!--Generator: Apple Native CoreSVG 341-->
<!DOCTYPE svg
PUBLIC "-//W3C//DTD SVG 1.1//EN"
       "http://www.w3.org/Graphics/SVG/1.1/DTD/svg11.dtd">
<svg version="1.1" xmlns="http://www.w3.org/2000/svg" xmlns:xlink="http://www.w3.org/1999/xlink" viewBox="0 0 3300 2200">
 <!--glyph: "", point size: 100.0, font version: "21.1d1e1", template writer version: "138.0.0"-->
 <style>.defaults {-sfsymbols-variable-value-mode:color;-sfsymbols-draw-reverses-motion-groups:true}

.monochrome-0 {-sfsymbols-motion-group:1;-sfsymbols-layer-tags:5cef270fadcc6915}
.monochrome-1 {opacity:0.0;-sfsymbols-clear-behind:true;-sfsymbols-motion-group:0;-sfsymbols-layer-tags:5cef270fadcc6915}

.multicolor-0:labelColor {-sfsymbols-motion-group:1;-sfsymbols-layer-tags:5cef270fadcc6915}
.multicolor-1:tintColor {-sfsymbols-motion-group:0;-sfsymbols-layer-tags:5cef270fadcc6915}

.hierarchical-0:tertiary {-sfsymbols-motion-group:1;-sfsymbols-layer-tags:5cef270fadcc6915}
.hierarchical-1:primary {-sfsymbols-motion-group:0;-sfsymbols-layer-tags:5cef270fadcc6915}

.SFSymbolsPreviewWireframe {fill:none;opacity:1.0;stroke:black;stroke-width:0.5}
</style>
 <g id="Notes">
  <rect height="2200" id="artboard" style="fill:white;opacity:1" width="3300" x="0" y="0"/>
  <line style="fill:none;stroke:black;opacity:1;stroke-width:0.5;" x1="263" x2="3036" y1="292" y2="292"/>
  <text style="stroke:none;fill:black;font-family:sans-serif;font-size:13;font-weight:bold;" transform="matrix(1 0 0 1 263 322)">Weight/Scale Variations</text>
  <text style="stroke:none;fill:black;font-family:sans-serif;font-size:13;text-anchor:middle;" transform="matrix(1 0 0 1 559.711 322)">Ultralight</text>
  <text style="stroke:none;fill:black;font-family:sans-serif;font-size:13;text-anchor:middle;" transform="matrix(1 0 0 1 856.422 322)">Thin</text>
  <text style="stroke:none;fill:black;font-family:sans-serif;font-size:13;text-anchor:middle;" transform="matrix(1 0 0 1 1153.13 322)">Light</text>
  <text style="stroke:none;fill:black;font-family:sans-serif;font-size:13;text-anchor:middle;" transform="matrix(1 0 0 1 1449.84 322)">Regular</text>
  <text style="stroke:none;fill:black;font-family:sans-serif;font-size:13;text-anchor:middle;" transform="matrix(1 0 0 1 1746.56 322)">Medium</text>
  <text style="stroke:none;fill:black;font-family:sans-serif;font-size:13;text-anchor:middle;" transform="matrix(1 0 0 1 2043.27 322)">Semibold</text>
  <text style="stroke:none;fill:black;font-family:sans-serif;font-size:13;text-anchor:middle;" transform="matrix(1 0 0 1 2339.98 322)">Bold</text>
  <text style="stroke:none;fill:black;font-family:sans-serif;font-size:13;text-anchor:middle;" transform="matrix(1 0 0 1 2636.69 322)">Heavy</text>
  <text style="stroke:none;fill:black;font-family:sans-serif;font-size:13;text-anchor:middle;" transform="matrix(1 0 0 1 2933.4 322)">Black</text>
  <line style="fill:none;stroke:black;opacity:1;stroke-width:0.5;" x1="263" x2="3036" y1="1903" y2="1903"/>
  <g transform="matrix(0.2 0 0 0.2 263 1933)">
   <path d="m46.2402 4.15039c21.7773 0 39.4531-17.627 39.4531-39.4043s-17.6758-39.4043-39.4531-39.4043c-21.7285 0-39.4043 17.627-39.4043 39.4043s17.6758 39.4043 39.4043 39.4043Zm0-7.42188c-17.6758 0-31.9336-14.3066-31.9336-31.9824s14.2578-31.9824 31.9336-31.9824 31.9824 14.3066 31.9824 31.9824-14.3066 31.9824-31.9824 31.9824Zm3.61328-17.7734v-28.4668c0-2.24609-1.46484-3.75977-3.71094-3.75977-2.14844 0-3.61328 1.51367-3.61328 3.75977v28.4668c0 2.19727 1.46484 3.71094 3.61328 3.71094 2.24609 0 3.71094-1.51367 3.71094-3.71094Zm-17.8223-10.5957h28.418c2.19727 0 3.71094-1.46484 3.71094-3.61328 0-2.19727-1.51367-3.71094-3.71094-3.71094h-28.418c-2.24609 0-3.75977 1.51367-3.75977 3.71094 0 2.14844 1.51367 3.61328 3.75977 3.61328Z"/>
  </g>
  <g transform="matrix(0.2 0 0 0.2 281.506 1933)">
   <path d="m58.5449 14.5508c27.4902 0 49.8047-22.3145 49.8047-49.8047s-22.3145-49.8047-49.8047-49.8047-49.8047 22.3145-49.8047 49.8047 22.3145 49.8047 49.8047 49.8047Zm0-8.30078c-22.9492 0-41.5039-18.5547-41.5039-41.5039s18.5547-41.5039 41.5039-41.5039 41.5039 18.5547 41.5039 41.5039-18.5547 41.5039-41.5039 41.5039Zm4.05273-23.0957v-36.9141c0-2.49023-1.70898-4.19922-4.15039-4.19922-2.39258 0-4.05273 1.70898-4.05273 4.19922v36.9141c0 2.44141 1.66016 4.15039 4.05273 4.15039 2.44141 0 4.15039-1.66016 4.15039-4.15039Zm-22.5586-14.4043h36.9629c2.44141 0 4.15039-1.61133 4.15039-4.00391 0-2.44141-1.70898-4.15039-4.15039-4.15039h-36.9629c-2.49023 0-4.15039 1.70898-4.15039 4.15039 0 2.39258 1.66016 4.00391 4.15039 4.00391Z"/>
  </g>
  <g transform="matrix(0.2 0 0 0.2 304.924 1933)">
   <path d="m74.8535 28.3203c35.1074 0 63.623-28.4668 63.623-63.5742s-28.5156-63.623-63.623-63.623-63.5742 28.5156-63.5742 63.623 28.4668 63.5742 63.5742 63.5742Zm0-9.08203c-30.127 0-54.4922-24.3652-54.4922-54.4922s24.3652-54.4922 54.4922-54.4922 54.4922 24.3652 54.4922 54.4922-24.3652 54.4922-54.4922 54.4922Zm4.44336-30.3223v-48.4863c0-2.73438-1.85547-4.63867-4.54102-4.63867-2.58789 0-4.44336 1.9043-4.44336 4.63867v48.4863c0 2.68555 1.85547 4.58984 4.44336 4.58984 2.68555 0 4.54102-1.85547 4.54102-4.58984Zm-28.7109-19.7754h48.4863c2.68555 0 4.58984-1.80664 4.58984-4.39453 0-2.73438-1.85547-4.58984-4.58984-4.58984h-48.4863c-2.73438 0-4.58984 1.85547-4.58984 4.58984 0 2.58789 1.85547 4.39453 4.58984 4.39453Z"/>
  </g>
  <text style="stroke:none;fill:black;font-family:sans-serif;font-size:13;font-weight:bold;" transform="matrix(1 0 0 1 263 1953)">Design Variations</text>
  <text style="stroke:none;fill:black;font-family:sans-serif;font-size:13;" transform="matrix(1 0 0 1 263 1971)">Symbols are supported in up to nine weights and three scales.</text>
  <text style="stroke:none;fill:black;font-family:sans-serif;font-size:13;" transform="matrix(1 0 0 1 263 1989)">For optimal layout with text and other symbols, vertically align</text>
  <text style="stroke:none;fill:black;font-family:sans-serif;font-size:13;" transform="matrix(1 0 0 1 263 2007)">symbols with the adjacent text.</text>
  <line style="fill:none;stroke:#00AEEF;stroke-width:0.5;opacity:1.0;" x1="776" x2="776" y1="1919" y2="1933"/>
  <g transform="matrix(0.2 0 0 0.2 776 1933)">
   <path d="m16.5527 0.78125c2.58789 0 3.85742-0.976562 4.78516-3.71094l20.5566-57.5195h0.244141l20.6055 57.5195c0.927734 2.73438 2.19727 3.71094 4.73633 3.71094 2.58789 0 4.24805-1.5625 4.24805-4.00391 0-0.830078-0.146484-1.61133-0.537109-2.63672l-22.9004-60.9863c-1.12305-2.97852-3.125-4.49219-6.25-4.49219-3.02734 0-5.07812 1.46484-6.15234 4.44336l-22.9004 61.084c-0.390625 1.02539-0.537109 1.80664-0.537109 2.63672 0 2.44141 1.5625 3.95508 4.10156 3.95508Zm10.2051-20.9473h30.6641c2.00195 0 3.66211-1.66016 3.66211-3.66211 0-2.05078-1.66016-3.66211-3.66211-3.66211h-30.6641c-2.00195 0-3.66211 1.61133-3.66211 3.66211 0 2.00195 1.66016 3.66211 3.66211 3.66211Z"/>
  </g>
  <line style="fill:none;stroke:#00AEEF;stroke-width:0.5;opacity:1.0;" x1="792.836" x2="792.836" y1="1919" y2="1933"/>
  <text style="stroke:none;fill:black;font-family:sans-serif;font-size:13;font-weight:bold;" transform="matrix(1 0 0 1 776 1953)">Margins</text>
  <text style="stroke:none;fill:black;font-family:sans-serif;font-size:13;" transform="matrix(1 0 0 1 776 1971)">Leading and trailing margins on the left and right side of each symbol</text>
  <text style="stroke:none;fill:black;font-family:sans-serif;font-size:13;" transform="matrix(1 0 0 1 776 1989)">can be adjusted by modifying the x-location of the margin guidelines.</text>
  <text style="stroke:none;fill:black;font-family:sans-serif;font-size:13;" transform="matrix(1 0 0 1 776 2007)">Modifications are automatically applied proportionally to all</text>
  <text style="stroke:none;fill:black;font-family:sans-serif;font-size:13;" transform="matrix(1 0 0 1 776 2025)">scales and weights.</text>
  <g transform="matrix(0.2 0 0 0.2 1289 1933)">
   <path d="m14.209 13.1348 7.86133 7.86133c4.29688 4.39453 9.32617 4.10156 13.8672-1.02539l60.6934-68.2129-4.88281-4.88281-60.2539 67.6758c-1.80664 1.95312-3.4668 2.44141-5.81055 0.0976562l-5.17578-5.12695c-2.29492-2.29492-1.80664-3.95508 0.195312-5.81055l67.4805-62.1582-4.88281-4.83398-68.0664 62.5977c-4.98047 4.58984-5.32227 9.47266-1.02539 13.8184Zm44.873-97.4609c-2.05078 2.00195-2.24609 4.88281-1.07422 6.78711 1.12305 1.80664 3.4668 3.02734 6.5918 2.24609 5.85938-1.66016 12.5977-2.39258 18.8965 0.927734l-2.68555 7.12891c-1.61133 4.00391-0.732422 6.88477 1.70898 9.42383l10.2539 10.3027c2.34375 2.39258 4.54102 2.44141 7.08008 1.95312l4.44336-0.732422 2.58789 2.53906-0.195312 2.24609c-0.0976562 2.29492 0.537109 4.29688 2.7832 6.49414l3.36914 3.32031c2.29492 2.29492 5.51758 2.49023 7.8125 0.195312l12.9883-13.0371c2.29492-2.34375 2.14844-5.37109-0.195312-7.66602l-3.41797-3.41797c-2.19727-2.19727-4.05273-3.02734-6.34766-2.88086l-2.34375 0.244141-2.44141-2.44141 1.02539-4.6875c0.634766-2.73438-0.244141-4.98047-2.88086-7.61719l-11.2793-11.1816c-12.9395-12.8418-35.5957-11.0352-46.6797-0.146484Zm7.08008 2.05078c8.78906-6.39648 25.9766-5.66406 33.6914 1.95312l12.3047 12.207c1.02539 1.02539 1.2207 1.80664 0.927734 3.32031l-1.46484 6.64062 6.73828 6.68945 4.39453-0.244141c1.12305-0.0488281 1.51367 0.0488281 2.34375 0.878906l2.53906 2.49023-10.8398 10.8398-2.49023-2.49023c-0.830078-0.878906-0.976562-1.2207-0.927734-2.39258l0.292969-4.3457-6.68945-6.73828-6.83594 1.17188c-1.41602 0.292969-2.05078 0.195312-3.17383-0.878906l-8.93555-8.88672c-1.07422-1.02539-1.17188-1.70898-0.488281-3.36914l4.58984-11.4746c-6.10352-6.34766-17.041-7.51953-25.5859-4.58984-0.683594 0.244141-0.927734-0.390625-0.390625-0.78125Z"/>
  </g>
  <text style="stroke:none;fill:black;font-family:sans-serif;font-size:13;font-weight:bold;" transform="matrix(1 0 0 1 1289 1953)">Exporting</text>
  <text style="stroke:none;fill:black;font-family:sans-serif;font-size:13;" transform="matrix(1 0 0 1 1289 1971)">Symbols should be outlined when exporting to ensure the</text>
  <text style="stroke:none;fill:black;font-family:sans-serif;font-size:13;" transform="matrix(1 0 0 1 1289 1989)">design is preserved when submitting to Xcode.</text>
  <text id="template-version" style="stroke:none;fill:black;font-family:sans-serif;font-size:13;text-anchor:end;" transform="matrix(1 0 0 1 3036 1933)">Template v.7.0</text>
  <text style="stroke:none;fill:black;font-family:sans-serif;font-size:13;text-anchor:end;" transform="matrix(1 0 0 1 3036 1951)">Requires Xcode 26 or greater</text>
  <text id="descriptive-name" style="stroke:none;fill:black;font-family:sans-serif;font-size:13;text-anchor:end;" transform="matrix(1 0 0 1 3036 1969)">Generated from bottlecap.plus</text>
  <text style="stroke:none;fill:black;font-family:sans-serif;font-size:13;text-anchor:end;" transform="matrix(1 0 0 1 3036 1987)">Typeset at 100.0 points</text>
  <text style="stroke:none;fill:black;font-family:sans-serif;font-size:13;" transform="matrix(1 0 0 1 263 726)">Small</text>
  <text style="stroke:none;fill:black;font-family:sans-serif;font-size:13;" transform="matrix(1 0 0 1 263 1156)">Medium</text>
  <text style="stroke:none;fill:black;font-family:sans-serif;font-size:13;" transform="matrix(1 0 0 1 263 1586)">Large</text>
 </g>
 <g id="Guides">
  <g id="H-reference" style="fill:#27AAE1;stroke:none;" transform="matrix(1 0 0 1 339 696)">
   <path d="M0.993654 0L3.63775 0L29.3281-67.1323L30.0303-67.1323L30.0303-70.459L28.1226-70.459ZM11.6885-24.4799L46.9815-24.4799L46.2315-26.7285L12.4385-26.7285ZM55.1196 0L57.7637 0L30.6382-70.459L29.4326-70.459L29.4326-67.1323Z"/>
  </g>
  <line id="Baseline-S" style="fill:none;stroke:#27AAE1;opacity:1;stroke-width:0.5;" x1="263" x2="3036" y1="696" y2="696"/>
  <line id="Capline-S" style="fill:none;stroke:#27AAE1;opacity:1;stroke-width:0.5;" x1="263" x2="3036" y1="625.541" y2="625.541"/>
  <g id="H-reference" style="fill:#27AAE1;stroke:none;" transform="matrix(1 0 0 1 339 1126)">
   <path d="M0.993654 0L3.63775 0L29.3281-67.1323L30.0303-67.1323L30.0303-70.459L28.1226-70.459ZM11.6885-24.4799L46.9815-24.4799L46.2315-26.7285L12.4385-26.7285ZM55.1196 0L57.7637 0L30.6382-70.459L29.4326-70.459L29.4326-67.1323Z"/>
  </g>
  <line id="Baseline-M" style="fill:none;stroke:#27AAE1;opacity:1;stroke-width:0.5;" x1="263" x2="3036" y1="1126" y2="1126"/>
  <line id="Capline-M" style="fill:none;stroke:#27AAE1;opacity:1;stroke-width:0.5;" x1="263" x2="3036" y1="1055.54" y2="1055.54"/>
  <g id="H-reference" style="fill:#27AAE1;stroke:none;" transform="matrix(1 0 0 1 339 1556)">
   <path d="M0.993654 0L3.63775 0L29.3281-67.1323L30.0303-67.1323L30.0303-70.459L28.1226-70.459ZM11.6885-24.4799L46.9815-24.4799L46.2315-26.7285L12.4385-26.7285ZM55.1196 0L57.7637 0L30.6382-70.459L29.4326-70.459L29.4326-67.1323Z"/>
  </g>
  <line id="Baseline-L" style="fill:none;stroke:#27AAE1;opacity:1;stroke-width:0.5;" x1="263" x2="3036" y1="1556" y2="1556"/>
  <line id="Capline-L" style="fill:none;stroke:#27AAE1;opacity:1;stroke-width:0.5;" x1="263" x2="3036" y1="1485.54" y2="1485.54"/>
  <line id="right-margin-Black-S" style="fill:none;stroke:#00AEEF;stroke-width:0.5;opacity:1.0;" x1="2983.6" x2="2983.6" y1="600.785" y2="720.121"/>
  <line id="left-margin-Black-S" style="fill:none;stroke:#00AEEF;stroke-width:0.5;opacity:1.0;" x1="2883.2" x2="2883.2" y1="600.785" y2="720.121"/>
  <line id="right-margin-Regular-S" style="fill:none;stroke:#00AEEF;stroke-width:0.5;opacity:1.0;" x1="1497.94" x2="1497.94" y1="600.785" y2="720.121"/>
  <line id="left-margin-Regular-S" style="fill:none;stroke:#00AEEF;stroke-width:0.5;opacity:1.0;" x1="1401.75" x2="1401.75" y1="600.785" y2="720.121"/>
  <line id="right-margin-Ultralight-S" style="fill:none;stroke:#FF3B30;stroke-width:0.5;opacity:1.0;" x1="604.071" x2="604.071" y1="600.785" y2="720.121"/>
  <line id="left-margin-Ultralight-S" style="fill:none;stroke:#FF3B30;stroke-width:0.5;opacity:1.0;" x1="515.351" x2="515.351" y1="600.785" y2="720.121"/>
 </g>
 <g id="Symbols">
  <g id="Black-L" transform="matrix(1 0 0 1 2850.82 1556)">
   <path class="monochrome-0 multicolor-0:labelColor hierarchical-0:tertiary SFSymbolsPreviewWireframe" d="M88.624-110.297C87.2815-116.875 77.8804-116.874 76.5368-110.297C76.5209-110.221 76.4766-110.148 76.4587-110.074C72.634-109.765 68.8931-109.164 65.2533-108.299C65.2146-108.362 65.1678-108.424 65.1305-108.489C61.821-114.331 52.8786-111.422 53.6349-104.75C53.6433-104.673 53.629-104.592 53.6349-104.516C50.1346-103.041 46.7717-101.307 43.5679-99.337C43.4964-99.3972 43.4151-99.4515 43.3447-99.5156C38.3919-104.048 30.7871-98.5172 33.5679-92.4062C33.6164-92.2986 33.6372-92.1789 33.6795-92.0714C30.8545-89.6159 28.2162-86.9524 25.7888-84.1026C25.6625-84.151 25.5246-84.1794 25.3982-84.2365C19.2872-87.0173 13.7566-79.4125 18.2888-74.4597C18.3951-74.3432 18.4835-74.2114 18.579-74.0914C16.682-70.9283 15.0306-67.6034 13.6124-64.1583C13.4298-64.1636 13.2421-64.1485 13.0544-64.1695C6.38283-64.9258 3.47357-55.9834 9.31554-52.6739C9.51308-52.5617 9.6954-52.4317 9.87358-52.3056C9.07881-48.7879 8.53293-45.1776 8.25527-41.4908C8.01408-41.4112 7.76802-41.3208 7.5075-41.2676C0.930492-39.924 0.929602-30.5229 7.5075-29.1804C7.79881-29.1209 8.07745-29.0384 8.34456-28.9461C8.67601-25.3224 9.27636-21.7758 10.108-18.321C9.86149-18.1291 9.60291-17.9369 9.31554-17.7741C3.47517-14.464 6.38329-5.522 13.0544-6.279C13.4094-6.319 13.7562-6.339 14.0923-6.323C15.502-3.057 17.1369 0.092 18.9808 3.096C18.7826 3.408 18.5549 3.721 18.2888 4.012C13.7637 8.965 19.2891 16.568 25.3982 13.789C25.7967 13.607 26.1957 13.47 26.5924 13.376C28.8787 15.973 31.3463 18.406 33.9697 20.664C33.8758 21.087 33.7611 21.521 33.5679 21.947C30.7884 28.058 38.3922 33.589 43.3447 29.056C43.7022 28.729 44.0841 28.467 44.472 28.242C47.3954 29.982 50.4486 31.528 53.6126 32.862C53.6634 33.322 53.6914 33.804 53.6349 34.302C52.8827 40.97 61.8212 43.869 65.1305 38.03C65.3863 37.579 65.6879 37.186 66.0122 36.836C69.2771 37.575 72.6226 38.092 76.0346 38.387C76.2448 38.833 76.4294 39.312 76.5368 39.838C77.8806 46.414 87.2806 46.414 88.624 39.838C88.7313 39.313 88.9053 38.832 89.115 38.387C92.5205 38.089 95.8565 37.554 99.1151 36.813C99.449 37.17 99.7682 37.568 100.03 38.03C103.34 43.868 112.277 40.969 111.526 34.302C111.469 33.797 111.473 33.306 111.526 32.84C114.681 31.506 117.717 29.947 120.633 28.208C121.039 28.439 121.443 28.715 121.816 29.056C126.768 33.583 134.371 28.056 131.593 21.947C131.39 21.501 131.252 21.051 131.158 20.608C133.759 18.364 136.199 15.943 138.468 13.364C138.893 13.459 139.324 13.594 139.751 13.789C145.86 16.567 151.387 8.964 146.861 4.012C146.573 3.697 146.333 3.357 146.124 3.018C147.947 0.04 149.56-3.077 150.957-6.312C151.327-6.335 151.713-6.323 152.106-6.279C158.774-5.527 161.672-14.465 155.834-17.7741C155.52-17.9524 155.229-18.1528 154.964-18.3657C155.788-21.7994 156.374-25.3234 156.705-28.9237C157.001-29.0317 157.315-29.1135 157.642-29.1804C164.22-30.5232 164.219-39.9242 157.642-41.2676C157.35-41.3273 157.073-41.4203 156.805-41.5131C156.528-45.1768 155.986-48.7643 155.198-52.2609C155.398-52.4069 155.609-52.546 155.834-52.6739C161.675-55.9829 158.776-64.9225 152.106-64.1695C151.885-64.1443 151.662-64.1613 151.448-64.1583C150.038-67.5818 148.386-70.8793 146.504-74.0244C146.616-74.1706 146.732-74.3188 146.861-74.4597C151.394-79.4124 145.863-87.0171 139.751-84.2365C139.599-84.1674 139.435-84.1362 139.283-84.0803C136.87-86.9148 134.243-89.5596 131.437-92.0044C131.487-92.1367 131.533-92.274 131.593-92.4062C134.372-98.5155 126.769-104.042 121.816-99.5156C121.731-99.4374 121.625-99.3758 121.537-99.3036C118.343-101.27 114.993-103.008 111.504-104.482C111.51-104.57 111.516-104.661 111.526-104.75C112.282-111.421 103.34-114.329 100.03-108.489C99.9896-108.417 99.9276-108.357 99.8852-108.288C96.2464-109.156 92.5039-109.75 88.6798-110.063C88.6612-110.139 88.6401-110.218 88.624-110.297Z"/>
   <path class="monochrome-1 multicolor-1:tintColor hierarchical-1:primary SFSymbolsPreviewWireframe" d="M82.597-69.5159C78.6521-69.5159 75.4542-66.3179 75.4542-62.373L75.4542-42.4622L55.5768-42.4622C51.5643-42.4594 48.3112-39.1986 48.3112-35.1854C48.3124-31.1732 51.5651-27.9225 55.5768-27.9197L75.4542-27.9197L75.4542-8.087C75.457-4.145 78.6539-0.944 82.597-0.944C86.54-0.944 89.7371-4.145 89.7399-8.087L89.7399-27.9197L109.573-27.9197C113.585-27.9212 116.837-31.1725 116.838-35.1854C116.838-39.1993 113.586-42.4607 109.573-42.4622L89.7399-42.4622L89.7399-62.373C89.7399-66.3178 86.5418-69.5157 82.597-69.5159Z"/>
  </g>
  <g id="Regular-L" transform="matrix(1 0 0 1 1371.96 1556)">
   <path class="monochrome-0 multicolor-0:labelColor hierarchical-0:tertiary SFSymbolsPreviewWireframe" d="M83.9297-110.297C82.5872-116.875 73.1861-116.874 71.8425-110.297C71.8266-110.221 71.7823-110.148 71.7644-110.074C67.9397-109.765 64.1988-109.164 60.559-108.299C60.5203-108.362 60.4735-108.424 60.4362-108.489C57.1267-114.331 48.1843-111.422 48.9406-104.75C48.949-104.673 48.9347-104.592 48.9406-104.516C45.4403-103.041 42.0774-101.307 38.8736-99.337C38.8021-99.3972 38.7208-99.4515 38.6504-99.5156C33.6976-104.048 26.0928-98.5172 28.8736-92.4062C28.9221-92.2986 28.9429-92.1789 28.9852-92.0714C26.1602-89.6159 23.5219-86.9524 21.0945-84.1026C20.9682-84.151 20.8303-84.1794 20.7039-84.2365C14.5929-87.0173 9.0623-79.4125 13.5945-74.4597C13.7008-74.3432 13.7892-74.2114 13.8847-74.0914C11.9877-70.9283 10.3363-67.6034 8.9181-64.1583C8.7355-64.1636 8.5478-64.1485 8.3601-64.1695C1.68852-64.9258-1.22075-55.9834 4.62123-52.6739C4.81877-52.5617 5.00109-52.4317 5.17927-52.3056C4.3845-48.7879 3.83862-45.1776 3.56096-41.4908C3.31977-41.4112 3.07371-41.3208 2.81319-41.2676C-3.76382-39.924-3.76471-30.5229 2.81319-29.1804C3.1045-29.1209 3.38314-29.0384 3.65025-28.9461C3.9817-25.3224 4.58205-21.7758 5.41365-18.321C5.16718-18.1291 4.9086-17.9369 4.62123-17.7741C-1.21915-14.464 1.68898-5.522 8.3601-6.279C8.7151-6.319 9.0619-6.339 9.398-6.323C10.8077-3.057 12.4426 0.092 14.2865 3.096C14.0883 3.408 13.8606 3.721 13.5945 4.012C9.0694 8.965 14.5948 16.568 20.7039 13.789C21.1024 13.607 21.5014 13.47 21.8981 13.376C24.1844 15.973 26.652 18.406 29.2754 20.664C29.1815 21.087 29.0668 21.521 28.8736 21.947C26.0941 28.058 33.6979 33.589 38.6504 29.056C39.0079 28.729 39.3898 28.467 39.7777 28.242C42.7011 29.982 45.7543 31.528 48.9183 32.862C48.9691 33.322 48.9971 33.804 48.9406 34.302C48.1884 40.97 57.1269 43.869 60.4362 38.03C60.692 37.579 60.9936 37.186 61.3179 36.836C64.5828 37.575 67.9283 38.092 71.3403 38.387C71.5505 38.833 71.7351 39.312 71.8425 39.838C73.1863 46.414 82.5863 46.414 83.9297 39.838C84.037 39.313 84.211 38.832 84.4207 38.387C87.8262 38.089 91.1622 37.554 94.4208 36.813C94.7547 37.17 95.0739 37.568 95.336 38.03C98.6457 43.868 107.583 40.969 106.832 34.302C106.775 33.797 106.779 33.306 106.832 32.84C109.987 31.506 113.023 29.947 115.939 28.208C116.345 28.439 116.749 28.715 117.122 29.056C122.074 33.583 129.677 28.056 126.899 21.947C126.696 21.501 126.558 21.051 126.464 20.608C129.065 18.364 131.505 15.943 133.774 13.364C134.199 13.459 134.63 13.594 135.057 13.789C141.166 16.567 146.693 8.964 142.167 4.012C141.879 3.697 141.639 3.357 141.43 3.018C143.253 0.04 144.866-3.077 146.263-6.312C146.633-6.335 147.019-6.323 147.412-6.279C154.08-5.527 156.978-14.465 151.14-17.7741C150.826-17.9524 150.535-18.1528 150.27-18.3657C151.094-21.7994 151.68-25.3234 152.011-28.9237C152.307-29.0317 152.621-29.1135 152.948-29.1804C159.526-30.5232 159.525-39.9242 152.948-41.2676C152.656-41.3273 152.379-41.4203 152.111-41.5131C151.834-45.1768 151.292-48.7643 150.504-52.2609C150.704-52.4069 150.915-52.546 151.14-52.6739C156.981-55.9829 154.082-64.9225 147.412-64.1695C147.191-64.1443 146.968-64.1613 146.754-64.1583C145.344-67.5818 143.692-70.8793 141.81-74.0244C141.922-74.1706 142.038-74.3188 142.167-74.4597C146.7-79.4124 141.169-87.0171 135.057-84.2365C134.905-84.1674 134.741-84.1362 134.589-84.0803C132.176-86.9148 129.549-89.5596 126.743-92.0044C126.793-92.1367 126.839-92.274 126.899-92.4062C129.678-98.5155 122.075-104.042 117.122-99.5156C117.037-99.4374 116.931-99.3758 116.843-99.3036C113.649-101.27 110.299-103.008 106.81-104.482C106.816-104.57 106.822-104.661 106.832-104.75C107.588-111.421 98.6457-114.329 95.336-108.489C95.2953-108.417 95.2333-108.357 95.1909-108.288C91.5521-109.156 87.8096-109.75 83.9855-110.063C83.9669-110.139 83.9458-110.218 83.9297-110.297Z"/>
   <path class="monochrome-1 multicolor-1:tintColor hierarchical-1:primary SFSymbolsPreviewWireframe" d="M77.9027-69.5159C73.9578-69.5159 70.7599-66.3179 70.7599-62.373L70.7599-42.4622L50.8825-42.4622C46.87-42.4594 43.6169-39.1986 43.6169-35.1854C43.6181-31.1732 46.8708-27.9225 50.8825-27.9197L70.7599-27.9197L70.7599-8.087C70.7627-4.145 73.9596-0.944 77.9027-0.944C81.8457-0.944 85.0428-4.145 85.0456-8.087L85.0456-27.9197L104.879-27.9197C108.891-27.9212 112.143-31.1725 112.144-35.1854C112.144-39.1993 108.892-42.4607 104.879-42.4622L85.0456-42.4622L85.0456-62.373C85.0456-66.3178 81.8475-69.5157 77.9027-69.5159Z"/>
  </g>
  <g id="Ultralight-L" transform="matrix(1 0 0 1 486.539 1556)">
   <path class="monochrome-0 multicolor-0:labelColor hierarchical-0:tertiary SFSymbolsPreviewWireframe" d="M79.2203-110.297C77.8778-116.875 68.4767-116.874 67.1331-110.297C67.1172-110.221 67.0729-110.148 67.055-110.074C63.2303-109.765 59.4894-109.164 55.8496-108.299C55.8109-108.362 55.7641-108.424 55.7268-108.489C52.4173-114.331 43.4749-111.422 44.2312-104.75C44.2396-104.673 44.2253-104.592 44.2312-104.516C40.7309-103.041 37.368-101.307 34.1642-99.337C34.0927-99.3972 34.0114-99.4515 33.941-99.5156C28.9882-104.048 21.3834-98.5172 24.1642-92.4062C24.2127-92.2986 24.2335-92.1789 24.2758-92.0714C21.4508-89.6159 18.8125-86.9524 16.3851-84.1026C16.2588-84.151 16.1209-84.1794 15.9945-84.2365C9.88355-87.0173 4.35295-79.4125 8.88515-74.4597C8.99145-74.3432 9.07985-74.2114 9.17535-74.0914C7.27835-70.9283 5.62695-67.6034 4.20875-64.1583C4.02615-64.1636 3.83845-64.1485 3.65075-64.1695C-3.02083-64.9258-5.93009-55.9834-0.0881218-52.6739C0.109418-52.5617 0.291738-52.4317 0.469918-52.3056C-0.324852-48.7879-0.870732-45.1776-1.14839-41.4908C-1.38958-41.4112-1.63564-41.3208-1.89616-41.2676C-8.47317-39.924-8.47406-30.5229-1.89616-29.1804C-1.60485-29.1209-1.32621-29.0384-1.0591-28.9461C-0.727652-25.3224-0.127302-21.7758 0.704298-18.321C0.457828-18.1291 0.199248-17.9369-0.0881218-17.7741C-5.9285-14.464-3.02037-5.522 3.65075-6.279C4.00575-6.319 4.35255-6.339 4.68865-6.323C6.09835-3.057 7.73325 0.092 9.57715 3.096C9.37895 3.408 9.15125 3.721 8.88515 4.012C4.36005 8.965 9.88545 16.568 15.9945 13.789C16.393 13.607 16.792 13.47 17.1887 13.376C19.475 15.973 21.9426 18.406 24.566 20.664C24.4721 21.087 24.3574 21.521 24.1642 21.947C21.3847 28.058 28.9885 33.589 33.941 29.056C34.2985 28.729 34.6804 28.467 35.0683 28.242C37.9917 29.982 41.0449 31.528 44.2089 32.862C44.2597 33.322 44.2877 33.804 44.2312 34.302C43.479 40.97 52.4175 43.869 55.7268 38.03C55.9826 37.579 56.2842 37.186 56.6085 36.836C59.8734 37.575 63.2189 38.092 66.6309 38.387C66.8411 38.833 67.0257 39.312 67.1331 39.838C68.4769 46.414 77.8769 46.414 79.2203 39.838C79.3276 39.313 79.5016 38.832 79.7113 38.387C83.1168 38.089 86.4528 37.554 89.7114 36.813C90.0453 37.17 90.3645 37.568 90.6266 38.03C93.9363 43.868 102.873 40.969 102.122 34.302C102.065 33.797 102.069 33.306 102.122 32.84C105.277 31.506 108.313 29.947 111.229 28.208C111.635 28.439 112.039 28.715 112.412 29.056C117.364 33.583 124.967 28.056 122.189 21.947C121.986 21.501 121.848 21.051 121.754 20.608C124.355 18.364 126.795 15.943 129.064 13.364C129.489 13.459 129.92 13.594 130.347 13.789C136.456 16.567 141.983 8.964 137.457 4.012C137.169 3.697 136.929 3.357 136.72 3.018C138.543 0.04 140.156-3.077 141.553-6.312C141.923-6.335 142.309-6.323 142.702-6.279C149.37-5.527 152.268-14.465 146.43-17.7741C146.116-17.9524 145.825-18.1528 145.56-18.3657C146.384-21.7994 146.97-25.3234 147.301-28.9237C147.597-29.0317 147.911-29.1135 148.238-29.1804C154.816-30.5232 154.815-39.9242 148.238-41.2676C147.946-41.3273 147.669-41.4203 147.401-41.5131C147.124-45.1768 146.582-48.7643 145.794-52.2609C145.994-52.4069 146.205-52.546 146.43-52.6739C152.271-55.9829 149.372-64.9225 142.702-64.1695C142.481-64.1443 142.258-64.1613 142.044-64.1583C140.634-67.5818 138.982-70.8793 137.1-74.0244C137.212-74.1706 137.328-74.3188 137.457-74.4597C141.99-79.4124 136.459-87.0171 130.347-84.2365C130.195-84.1674 130.031-84.1362 129.879-84.0803C127.466-86.9148 124.839-89.5596 122.033-92.0044C122.083-92.1367 122.129-92.274 122.189-92.4062C124.968-98.5155 117.365-104.042 112.412-99.5156C112.327-99.4374 112.221-99.3758 112.133-99.3036C108.939-101.27 105.589-103.008 102.1-104.482C102.106-104.57 102.112-104.661 102.122-104.75C102.878-111.421 93.9363-114.329 90.6266-108.489C90.5859-108.417 90.5239-108.357 90.4815-108.288C86.8427-109.156 83.1002-109.75 79.2761-110.063C79.2575-110.139 79.2364-110.218 79.2203-110.297Z"/>
   <path class="monochrome-1 multicolor-1:tintColor hierarchical-1:primary SFSymbolsPreviewWireframe" d="M73.1933-69.5159C69.2484-69.5159 66.0505-66.3179 66.0505-62.373L66.0505-42.4622L46.1731-42.4622C42.1606-42.4594 38.9075-39.1986 38.9075-35.1854C38.9087-31.1732 42.1614-27.9225 46.1731-27.9197L66.0505-27.9197L66.0505-8.087C66.0533-4.145 69.2502-0.944 73.1933-0.944C77.1363-0.944 80.3334-4.145 80.3362-8.087L80.3362-27.9197L100.169-27.9197C104.181-27.9212 107.433-31.1725 107.434-35.1854C107.434-39.1993 104.182-42.4607 100.169-42.4622L80.3362-42.4622L80.3362-62.373C80.3362-66.3178 77.1381-69.5157 73.1933-69.5159Z"/>
  </g>
  <g id="Black-M" transform="matrix(1 0 0 1 2866.79 1126)">
   <path class="monochrome-0 multicolor-0:labelColor hierarchical-0:tertiary SFSymbolsPreviewWireframe" d="M71.4444-95.2835C70.3704-100.546 62.8495-100.545 61.7746-95.2835C61.7619-95.2225 61.7265-95.1647 61.7122-95.105C58.6524-94.858 55.6597-94.3769 52.7478-93.6853C52.7169-93.7359 52.6794-93.7849 52.6496-93.8371C50.002-98.5107 42.8481-96.1833 43.4531-90.846C43.4598-90.7842 43.4484-90.7197 43.4531-90.6585C40.6529-89.4791 37.9626-88.0913 35.3995-86.5156C35.3423-86.5638 35.2773-86.6072 35.221-86.6585C31.2587-90.2842 25.1749-85.8598 27.3995-80.971C27.4383-80.8849 27.455-80.7891 27.4888-80.7031C25.2288-78.7387 23.1182-76.6079 21.1762-74.3281C21.0752-74.3668 20.9649-74.3895 20.8638-74.4352C15.975-76.6598 11.5505-70.576 15.1762-66.6138C15.2613-66.5206 15.332-66.4151 15.4084-66.3191C13.8908-63.7886 12.5697-61.1287 11.4351-58.3726C11.289-58.3769 11.1389-58.3648 10.9887-58.3816C5.65146-58.9866 3.32405-51.8327 7.99763-49.1851C8.15566-49.0954 8.30152-48.9914 8.44406-48.8905C7.80824-46.0763 7.37154-43.1881 7.14941-40.2386C6.95646-40.175 6.75961-40.1026 6.5512-40.0601C1.28959-38.9852 1.28888-31.4643 6.5512-30.3903C6.78424-30.3427 7.00716-30.2767 7.22084-30.2029C7.486-27.3039 7.96628-24.4666 8.63156-21.7028C8.43439-21.5493 8.22752-21.3955 7.99763-21.2653C3.32533-18.6172 5.65183-11.4636 10.9887-12.0692C11.2727-12.1012 11.5502-12.1172 11.819-12.1044C12.9468-9.4916 14.2547-6.9724 15.7298-4.5692C15.5713-4.3196 15.3891-4.0692 15.1762-3.8364C11.5562 0.126 15.9765 6.2084 20.8638 3.9852C21.1826 3.8396 21.5018 3.73 21.8191 3.6548C23.6482 5.7324 25.6222 7.6788 27.721 9.4852C27.6458 9.8236 27.5541 10.1708 27.3995 10.5116C25.1759 15.4004 31.259 19.8252 35.221 16.1988C35.507 15.9372 35.8125 15.7276 36.1228 15.5476C38.4615 16.9396 40.9041 18.1764 43.4353 19.2436C43.4759 19.6116 43.4983 19.9972 43.4531 20.3956C42.8514 25.73 50.0022 28.0492 52.6496 23.378C52.8542 23.0172 53.0955 22.7028 53.355 22.4228C55.9669 23.014 58.6433 23.4276 61.3729 23.6636C61.541 24.0204 61.6887 24.4036 61.7746 24.8244C62.8497 30.0852 70.3697 30.0852 71.4444 24.8244C71.5302 24.4044 71.6694 24.0196 71.8372 23.6636C74.5616 23.4252 77.2304 22.9972 79.8373 22.4044C80.1044 22.69 80.3598 23.0084 80.5694 23.378C83.2172 28.0484 90.3668 25.7292 89.766 20.3956C89.7204 19.9916 89.7236 19.5988 89.766 19.226C92.29 18.1588 94.7188 16.9116 97.0516 15.5204C97.3764 15.7052 97.6996 15.926 97.998 16.1988C101.96 19.8204 108.042 15.3988 105.82 10.5116C105.657 10.1548 105.547 9.7948 105.472 9.4404C107.552 7.6452 109.504 5.7084 111.32 3.6452C111.66 3.7212 112.004 3.8292 112.346 3.9852C117.233 6.2076 121.655 0.1252 118.034-3.8364C117.804-4.0884 117.612-4.3604 117.444-4.6316C118.903-7.014 120.193-9.5076 121.311-12.0956C121.607-12.114 121.916-12.1044 122.23-12.0692C127.564-11.4676 129.883-18.618 125.212-21.2653C124.961-21.4079 124.728-21.5682 124.516-21.7386C125.176-24.4855 125.644-27.3047 125.909-30.185C126.146-30.2714 126.397-30.3368 126.659-30.3903C131.921-31.4646 131.92-38.9854 126.659-40.0601C126.425-40.1078 126.204-40.1822 125.989-40.2565C125.768-43.1874 125.334-46.0574 124.704-48.8547C124.864-48.9715 125.032-49.0828 125.212-49.1851C129.885-51.8323 127.566-58.984 122.23-58.3816C122.053-58.3614 121.875-58.375 121.704-58.3726C120.576-61.1114 119.254-63.7494 117.748-66.2655C117.838-66.3825 117.931-66.501 118.034-66.6138C121.66-70.5759 117.236-76.6597 112.346-74.4352C112.224-74.3799 112.093-74.355 111.972-74.3102C110.041-76.5778 107.94-78.6937 105.695-80.6495C105.735-80.7554 105.772-80.8652 105.82-80.971C108.043-85.8584 101.96-90.2792 97.998-86.6585C97.93-86.5959 97.8452-86.5466 97.7748-86.4889C95.2196-88.0619 92.5396-89.4526 89.7484-90.6317C89.7532-90.7022 89.758-90.7746 89.766-90.846C90.3708-96.1829 83.2172-98.5094 80.5694-93.8371C80.5369-93.78 80.4873-93.7315 80.4534-93.6764C77.5423-94.3708 74.5483-94.8461 71.489-95.096C71.4742-95.1575 71.4573-95.2207 71.4444-95.2835Z"/>
   <path class="monochrome-1 multicolor-1:tintColor hierarchical-1:primary SFSymbolsPreviewWireframe" d="M66.6228-62.6587C63.4669-62.6587 60.9086-60.1003 60.9086-56.9444L60.9086-41.0158L45.0066-41.0158C41.7966-41.0135 39.1942-38.4049 39.1942-35.1943C39.1951-31.9846 41.7973-29.384 45.0066-29.3818L60.9086-29.3818L60.9086-13.5156C60.9108-10.362 63.4683-7.8012 66.6228-7.8012C69.7772-7.8012 72.3349-10.362 72.3371-13.5156L72.3371-29.3818L88.2036-29.3818C91.4132-29.383 94.0148-31.984 94.0156-35.1943C94.0156-38.4054 91.414-41.0146 88.2036-41.0158L72.3371-41.0158L72.3371-56.9444C72.3371-60.1002 69.7786-62.6586 66.6228-62.6587Z"/>
  </g>
  <g id="Regular-M" transform="matrix(1 0 0 1 1386.59 1126)">
   <path class="monochrome-0 multicolor-0:labelColor hierarchical-0:tertiary SFSymbolsPreviewWireframe" d="M68.0918-95.2835C67.0178-100.546 59.497-100.545 58.4221-95.2835C58.4094-95.2225 58.3739-95.1647 58.3596-95.105C55.2998-94.858 52.3071-94.3769 49.3953-93.6853C49.3643-93.7359 49.3269-93.7849 49.297-93.8371C46.6494-98.5107 39.4955-96.1833 40.1006-90.846C40.1073-90.7842 40.0958-90.7197 40.1006-90.6585C37.3003-89.4791 34.61-88.0913 32.047-86.5156C31.9898-86.5638 31.9247-86.6072 31.8684-86.6585C27.9062-90.2842 21.8223-85.8598 24.047-80.971C24.0858-80.8849 24.1024-80.7891 24.1362-80.7031C21.8762-78.7387 19.7656-76.6079 17.8237-74.3281C17.7226-74.3668 17.6123-74.3895 17.5112-74.4352C12.6224-76.6598 8.19792-70.576 11.8237-66.6138C11.9087-66.5206 11.9794-66.4151 12.0558-66.3191C10.5382-63.7886 9.21712-61.1287 8.08256-58.3726C7.93648-58.3769 7.78632-58.3648 7.63616-58.3816C2.2989-58.9866-0.0285116-51.8327 4.64507-49.1851C4.8031-49.0954 4.94895-48.9914 5.0915-48.8905C4.45568-46.0763 4.01898-43.1881 3.79685-40.2386C3.6039-40.175 3.40705-40.1026 3.19863-40.0601C-2.06297-38.9852-2.06369-31.4643 3.19863-30.3903C3.43168-30.3427 3.65459-30.2767 3.86828-30.2029C4.13344-27.3039 4.61372-24.4666 5.279-21.7028C5.08183-21.5493 4.87496-21.3955 4.64507-21.2653C-0.0272332-18.6172 2.29927-11.4636 7.63616-12.0692C7.92016-12.1012 8.1976-12.1172 8.46648-12.1044C9.59424-9.4916 10.9022-6.9724 12.3773-4.5692C12.2187-4.3196 12.0366-4.0692 11.8237-3.8364C8.2036 0.126 12.6239 6.2084 17.5112 3.9852C17.83 3.8396 18.1492 3.73 18.4666 3.6548C20.2956 5.7324 22.2697 7.6788 24.3684 9.4852C24.2933 9.8236 24.2015 10.1708 24.047 10.5116C21.8234 15.4004 27.9064 19.8252 31.8684 16.1988C32.1544 15.9372 32.4599 15.7276 32.7702 15.5476C35.109 16.9396 37.5515 18.1764 40.0827 19.2436C40.1234 19.6116 40.1458 19.9972 40.1006 20.3956C39.4988 25.73 46.6496 28.0492 49.297 23.378C49.5017 23.0172 49.743 22.7028 50.0024 22.4228C52.6143 23.014 55.2907 23.4276 58.0203 23.6636C58.1885 24.0204 58.3362 24.4036 58.4221 24.8244C59.4971 30.0852 67.0171 30.0852 68.0918 24.8244C68.1777 24.4044 68.3169 24.0196 68.4846 23.6636C71.209 23.4252 73.8778 22.9972 76.4847 22.4044C76.7518 22.69 77.0072 23.0084 77.2169 23.378C79.8646 28.0484 87.0142 25.7292 86.4134 20.3956C86.3678 19.9916 86.371 19.5988 86.4134 19.226C88.9374 18.1588 91.3662 16.9116 93.699 15.5204C94.0238 15.7052 94.347 15.926 94.6454 16.1988C98.607 19.8204 104.689 15.3988 102.467 10.5116C102.305 10.1548 102.194 9.7948 102.119 9.4404C104.2 7.6452 106.152 5.7084 107.967 3.6452C108.307 3.7212 108.652 3.8292 108.993 3.9852C113.881 6.2076 118.302 0.1252 114.681-3.8364C114.451-4.0884 114.259-4.3604 114.092-4.6316C115.55-7.014 116.841-9.5076 117.958-12.0956C118.254-12.114 118.563-12.1044 118.877-12.0692C124.212-11.4676 126.53-18.618 121.86-21.2653C121.609-21.4079 121.376-21.5682 121.164-21.7386C121.823-24.4855 122.292-27.3047 122.557-30.185C122.793-30.2714 123.045-30.3368 123.306-30.3903C128.569-31.4646 128.568-38.9854 123.306-40.0601C123.073-40.1078 122.851-40.1822 122.637-40.2565C122.415-43.1874 121.981-46.0574 121.351-48.8547C121.511-48.9715 121.68-49.0828 121.86-49.1851C126.533-51.8323 124.213-58.984 118.877-58.3816C118.701-58.3614 118.522-58.375 118.351-58.3726C117.223-61.1114 115.901-63.7494 114.396-66.2655C114.485-66.3825 114.578-66.501 114.681-66.6138C118.308-70.5759 113.883-76.6597 108.993-74.4352C108.872-74.3799 108.741-74.355 108.619-74.3102C106.689-76.5778 104.587-78.6937 102.342-80.6495C102.382-80.7554 102.419-80.8652 102.467-80.971C104.69-85.8584 98.6078-90.2792 94.6454-86.6585C94.5774-86.5959 94.4926-86.5466 94.4222-86.4889C91.867-88.0619 89.187-89.4526 86.3958-90.6317C86.4006-90.7022 86.4054-90.7746 86.4134-90.846C87.0182-96.1829 79.8646-98.5094 77.2169-93.8371C77.1843-93.78 77.1347-93.7315 77.1008-93.6764C74.1898-94.3708 71.1958-94.8461 68.1365-95.096C68.1216-95.1575 68.1047-95.2207 68.0918-95.2835Z"/>
   <path class="monochrome-1 multicolor-1:tintColor hierarchical-1:primary SFSymbolsPreviewWireframe" d="M63.2702-62.6587C60.1143-62.6587 57.556-60.1003 57.556-56.9444L57.556-41.0158L41.6541-41.0158C38.4441-41.0135 35.8416-38.4049 35.8416-35.1943C35.8426-31.9846 38.4447-29.384 41.6541-29.3818L57.556-29.3818L57.556-13.5156C57.5582-10.362 60.1158-7.8012 63.2702-7.8012C66.4246-7.8012 68.9823-10.362 68.9846-13.5156L68.9846-29.3818L84.851-29.3818C88.0606-29.383 90.6622-31.984 90.663-35.1943C90.663-38.4054 88.0614-41.0146 84.851-41.0158L68.9846-41.0158L68.9846-56.9444C68.9846-60.1002 66.4261-62.6586 63.2702-62.6587Z"/>
  </g>
  <g id="Ultralight-M" transform="matrix(1 0 0 1 500.68 1126)">
   <path class="monochrome-0 multicolor-0:labelColor hierarchical-0:tertiary SFSymbolsPreviewWireframe" d="M63.8697-95.2835C62.7957-100.546 55.2748-100.545 54.1999-95.2835C54.1872-95.2225 54.1517-95.1647 54.1374-95.105C51.0777-94.858 48.0849-94.3769 45.1731-93.6853C45.1421-93.7359 45.1047-93.7849 45.0749-93.8371C42.4273-98.5107 35.2733-96.1833 35.8784-90.846C35.8851-90.7842 35.8737-90.7197 35.8784-90.6585C33.0781-89.4791 30.3878-88.0913 27.8248-86.5156C27.7676-86.5638 27.7025-86.6072 27.6462-86.6585C23.684-90.2842 17.6001-85.8598 19.8248-80.971C19.8636-80.8849 19.8802-80.7891 19.9141-80.7031C17.6541-78.7387 15.5434-76.6079 13.6015-74.3281C13.5005-74.3668 13.3901-74.3895 13.289-74.4352C8.40023-76.6598 3.97575-70.576 7.60151-66.6138C7.68655-66.5206 7.75727-66.4151 7.83367-66.3191C6.31607-63.7886 4.99495-61.1287 3.86039-58.3726C3.71431-58.3769 3.56415-58.3648 3.41399-58.3816C-1.92328-58.9866-4.25069-51.8327 0.422892-49.1851C0.580924-49.0954 0.72678-48.9914 0.869324-48.8905C0.233508-46.0763-0.203196-43.1881-0.425324-40.2386C-0.618276-40.175-0.815124-40.1026-1.02354-40.0601C-6.28515-38.9852-6.28586-31.4643-1.02354-30.3903C-0.790492-30.3427-0.56758-30.2767-0.353892-30.2029C-0.0887319-27.3039 0.391548-24.4666 1.05683-21.7028C0.859652-21.5493 0.652788-21.3955 0.422892-21.2653C-4.24941-18.6172-1.92291-11.4636 3.41399-12.0692C3.69799-12.1012 3.97543-12.1172 4.24431-12.1044C5.37207-9.4916 6.67999-6.9724 8.15511-4.5692C7.99655-4.3196 7.81439-4.0692 7.60151-3.8364C3.98143 0.126 8.40175 6.2084 13.289 3.9852C13.6078 3.8396 13.927 3.73 14.2444 3.6548C16.0734 5.7324 18.0475 7.6788 20.1462 9.4852C20.0711 9.8236 19.9793 10.1708 19.8248 10.5116C17.6012 15.4004 23.6842 19.8252 27.6462 16.1988C27.9322 15.9372 28.2377 15.7276 28.5481 15.5476C30.8868 16.9396 33.3293 18.1764 35.8605 19.2436C35.9012 19.6116 35.9236 19.9972 35.8784 20.3956C35.2766 25.73 42.4274 28.0492 45.0749 23.378C45.2795 23.0172 45.5208 22.7028 45.7802 22.4228C48.3921 23.014 51.0685 23.4276 53.7981 23.6636C53.9663 24.0204 54.114 24.4036 54.1999 24.8244C55.2749 30.0852 62.7949 30.0852 63.8697 24.8244C63.9555 24.4044 64.0947 24.0196 64.2625 23.6636C66.9869 23.4252 69.6557 22.9972 72.2625 22.4044C72.5297 22.69 72.785 23.0084 72.9947 23.378C75.6425 28.0484 82.7921 25.7292 82.1913 20.3956C82.1457 19.9916 82.1489 19.5988 82.1913 19.226C84.7153 18.1588 87.1441 16.9116 89.4769 15.5204C89.8017 15.7052 90.1249 15.926 90.4233 16.1988C94.3849 19.8204 100.467 15.3988 98.2449 10.5116C98.0825 10.1548 97.9721 9.7948 97.8969 9.4404C99.9777 7.6452 101.93 5.7084 103.745 3.6452C104.085 3.7212 104.43 3.8292 104.771 3.9852C109.658 6.2076 114.08 0.1252 110.459-3.8364C110.229-4.0884 110.037-4.3604 109.87-4.6316C111.328-7.014 112.618-9.5076 113.736-12.0956C114.032-12.114 114.341-12.1044 114.655-12.0692C119.99-11.4676 122.308-18.618 117.638-21.2653C117.386-21.4079 117.154-21.5682 116.942-21.7386C117.601-24.4855 118.07-27.3047 118.334-30.185C118.571-30.2714 118.822-30.3368 119.084-30.3903C124.346-31.4646 124.346-38.9854 119.084-40.0601C118.85-40.1078 118.629-40.1822 118.414-40.2565C118.193-43.1874 117.759-46.0574 117.129-48.8547C117.289-48.9715 117.458-49.0828 117.638-49.1851C122.31-51.8323 119.991-58.984 114.655-58.3816C114.478-58.3614 114.3-58.375 114.129-58.3726C113.001-61.1114 111.679-63.7494 110.174-66.2655C110.263-66.3825 110.356-66.501 110.459-66.6138C114.086-70.5759 109.661-76.6597 104.771-74.4352C104.65-74.3799 104.518-74.355 104.397-74.3102C102.466-76.5778 100.365-78.6937 98.1201-80.6495C98.1601-80.7554 98.1969-80.8652 98.2449-80.971C100.468-85.8584 94.3857-90.2792 90.4233-86.6585C90.3553-86.5959 90.2705-86.5466 90.2001-86.4889C87.6449-88.0619 84.9649-89.4526 82.1737-90.6317C82.1785-90.7022 82.1833-90.7746 82.1913-90.846C82.7961-96.1829 75.6425-98.5094 72.9947-93.8371C72.9621-93.78 72.9125-93.7315 72.8786-93.6764C69.9676-94.3708 66.9736-94.8461 63.9143-95.096C63.8994-95.1575 63.8825-95.2207 63.8697-95.2835Z"/>
   <path class="monochrome-1 multicolor-1:tintColor hierarchical-1:primary SFSymbolsPreviewWireframe" d="M59.0481-62.6587C55.8921-62.6587 53.3338-60.1003 53.3338-56.9444L53.3338-41.0158L37.4319-41.0158C34.2219-41.0135 31.6194-38.4049 31.6194-35.1943C31.6204-31.9846 34.2225-29.384 37.4319-29.3818L53.3338-29.3818L53.3338-13.5156C53.3361-10.362 55.8936-7.8012 59.0481-7.8012C62.2025-7.8012 64.7601-10.362 64.7624-13.5156L64.7624-29.3818L80.6289-29.3818C83.8385-29.383 86.4401-31.984 86.4409-35.1943C86.4409-38.4054 83.8393-41.0146 80.6289-41.0158L64.7624-41.0158L64.7624-56.9444C64.7624-60.1002 62.2039-62.6586 59.0481-62.6587Z"/>
  </g>
  <g id="Black-S" transform="matrix(1 0 0 1 2883.2 696)">
   <path class="monochrome-0 multicolor-0:labelColor hierarchical-0:tertiary SFSymbolsPreviewWireframe" d="M53.8288-80.2696C53.0233-84.2164 47.3826-84.2158 46.5765-80.2696C46.5669-80.2239 46.5404-80.1805 46.5296-80.1357C44.2348-79.9505 41.9903-79.5897 39.8064-79.071C39.7832-79.1089 39.7551-79.1457 39.7327-79.1848C37.747-82.69 32.3816-80.9444 32.8353-76.9415C32.8404-76.8951 32.8318-76.8468 32.8353-76.8009C30.7352-75.9163 28.7174-74.8755 26.7951-73.6937C26.7522-73.7298 26.7035-73.7624 26.6612-73.8009C23.6895-76.5202 19.1267-73.2018 20.7951-69.5352C20.8242-69.4707 20.8367-69.3988 20.8621-69.3343C19.1671-67.861 17.5841-66.2629 16.1277-64.5531C16.0519-64.5821 15.9692-64.5991 15.8933-64.6334C12.2267-66.3019 8.90836-61.739 11.6277-58.7673C11.6915-58.6974 11.7445-58.6183 11.8018-58.5463C10.6636-56.6485 9.67276-54.6535 8.82184-52.5865C8.71228-52.5897 8.59966-52.5806 8.48704-52.5932C4.48409-53.047 2.73853-47.6815 6.24372-45.6958C6.36224-45.6285 6.47163-45.5505 6.57854-45.4749C6.10168-43.3642 5.77415-41.1981 5.60756-38.986C5.46284-38.9382 5.31521-38.884 5.15889-38.8521C1.21269-38.0459 1.21215-32.4052 5.15889-31.5997C5.33368-31.564 5.50086-31.5145 5.66113-31.4592C5.86-29.2849 6.22021-27.157 6.71917-25.0841C6.57129-24.969 6.41614-24.8536 6.24372-24.756C2.73949-22.7699 4.48437-17.4047 8.48704-17.8589C8.70004-17.8829 8.90812-17.8949 9.10978-17.8853C9.9556-15.9257 10.9365-14.0363 12.0429-12.2339C11.924-12.0467 11.7873-11.8589 11.6277-11.6843C8.91262-8.7125 12.2279-4.1507 15.8933-5.8181C16.1324-5.9273 16.3718-6.0095 16.6098-6.0659C17.9816-4.5077 19.4622-3.0479 21.0362-1.6931C20.9799-1.4393 20.9111-1.1789 20.7951-0.9233C19.1274 2.7433 23.6897 6.0619 26.6612 3.3421C26.8757 3.1459 27.1049 2.9887 27.3376 2.8537C29.0916 3.8977 30.9236 4.8253 32.822 5.6257C32.8524 5.9017 32.8692 6.1909 32.8353 6.4897C32.384 10.4905 37.7471 12.2299 39.7327 8.7265C39.8862 8.4559 40.0671 8.2201 40.2617 8.0101C42.2207 8.4535 44.228 8.7637 46.2752 8.9407C46.4013 9.2083 46.512 9.4957 46.5765 9.8113C47.3828 13.7569 53.0228 13.7569 53.8288 9.8113C53.8932 9.4963 53.9976 9.2077 54.1234 8.9407C56.1667 8.7619 58.1683 8.4409 60.1235 7.9963C60.3238 8.2105 60.5153 8.4493 60.6726 8.7265C62.6584 12.2293 68.0206 10.4899 67.57 6.4897C67.5358 6.1867 67.5382 5.8921 67.57 5.6125C69.463 4.8121 71.2846 3.8767 73.0342 2.8333C73.2778 2.9719 73.5202 3.1375 73.744 3.3421C76.7152 6.0583 81.277 2.7421 79.6102-0.9233C79.4884-1.1909 79.4056-1.4609 79.3492-1.7267C80.9098-3.0731 82.3738-4.5257 83.7352-6.0731C83.9902-6.0161 84.2488-5.9351 84.505-5.8181C88.1704-4.1513 91.4866-8.7131 88.771-11.6843C88.5982-11.8733 88.4542-12.0773 88.3288-12.2807C89.4226-14.0675 90.3904-15.9377 91.2286-17.8787C91.4506-17.8925 91.6822-17.8853 91.918-17.8589C95.9188-17.4077 97.6576-22.7705 94.1548-24.756C93.9664-24.8629 93.7918-24.9832 93.6328-25.1109C94.1272-27.1711 94.4788-29.2855 94.6774-31.4457C94.855-31.5105 95.0434-31.5596 95.2396-31.5997C99.1864-32.4054 99.1858-38.046 95.2396-38.8521C95.0644-38.8879 94.8982-38.9437 94.7374-38.9994C94.5712-41.1976 94.246-43.3501 93.7732-45.448C93.8932-45.5356 94.0198-45.6191 94.1548-45.6958C97.6594-47.6812 95.92-53.045 91.918-52.5932C91.7854-52.5781 91.6516-52.5883 91.5232-52.5865C90.6772-54.6406 89.686-56.6191 88.5568-58.5061C88.624-58.5939 88.6936-58.6828 88.771-58.7673C91.4908-61.7389 88.1722-66.3018 84.505-64.6334C84.4138-64.5919 84.3154-64.5732 84.2242-64.5397C82.7764-66.2404 81.2002-67.8273 79.5166-69.2941C79.5466-69.3735 79.5742-69.4559 79.6102-69.5352C81.2776-73.2008 76.7158-76.5164 73.744-73.8009C73.693-73.7539 73.6294-73.717 73.5766-73.6737C71.6602-74.8534 69.6502-75.8964 67.5568-76.7808C67.5604-76.8337 67.564-76.8879 67.57-76.9415C68.0236-80.9442 62.6584-82.689 60.6726-79.1848C60.6482-79.142 60.611-79.1057 60.5855-79.0643C58.4022-79.5851 56.1567-79.9416 53.8623-80.129C53.8511-80.1751 53.8385-80.2225 53.8288-80.2696Z"/>
   <path class="monochrome-1 multicolor-1:tintColor hierarchical-1:primary SFSymbolsPreviewWireframe" d="M50.2126-55.801C47.8457-55.801 45.9269-53.8822 45.9269-51.5153L45.9269-39.5688L34.0005-39.5688C31.593-39.5671 29.6411-37.6107 29.6411-35.2027C29.6418-32.7954 31.5935-30.845 34.0005-30.8433L45.9269-30.8433L45.9269-18.9437C45.9286-16.5785 47.8467-14.6579 50.2126-14.6579C52.5784-14.6579 54.4967-16.5785 54.4983-18.9437L54.4983-30.8433L66.3982-30.8433C68.8054-30.8442 70.7566-32.795 70.7572-35.2027C70.7572-37.6111 68.806-39.5679 66.3982-39.5688L54.4983-39.5688L54.4983-51.5153C54.4983-53.8822 52.5795-55.8009 50.2126-55.801Z"/>
  </g>
  <g id="Regular-S" transform="matrix(1 0 0 1 1401.75 696)">
   <path class="monochrome-0 multicolor-0:labelColor hierarchical-0:tertiary SFSymbolsPreviewWireframe" d="M51.7238-80.2696C50.9183-84.2164 45.2776-84.2158 44.4715-80.2696C44.4619-80.2239 44.4354-80.1805 44.4246-80.1357C42.1298-79.9505 39.8853-79.5897 37.7014-79.071C37.6782-79.1089 37.6501-79.1457 37.6277-79.1848C35.642-82.69 30.2766-80.9444 30.7303-76.9415C30.7354-76.8951 30.7268-76.8468 30.7303-76.8009C28.6302-75.9163 26.6124-74.8755 24.6901-73.6937C24.6472-73.7298 24.5985-73.7624 24.5562-73.8009C21.5845-76.5202 17.0217-73.2018 18.6901-69.5352C18.7192-69.4707 18.7317-69.3988 18.7571-69.3343C17.0621-67.861 15.4791-66.2629 14.0227-64.5531C13.9469-64.5821 13.8642-64.5991 13.7883-64.6334C10.1217-66.3019 6.80336-61.739 9.52268-58.7673C9.58646-58.6974 9.6395-58.6183 9.6968-58.5463C8.5586-56.6485 7.56776-54.6535 6.71684-52.5865C6.60728-52.5897 6.49466-52.5806 6.38204-52.5932C2.37909-53.047 0.633535-47.6815 4.13872-45.6958C4.25724-45.6285 4.36663-45.5505 4.47354-45.4749C3.99668-43.3642 3.66915-41.1981 3.50256-38.986C3.35784-38.9382 3.21021-38.884 3.05389-38.8521C-0.892312-38.0459-0.892846-32.4052 3.05389-31.5997C3.22868-31.564 3.39586-31.5145 3.55613-31.4592C3.755-29.2849 4.11521-27.157 4.61417-25.0841C4.46629-24.969 4.31114-24.8536 4.13872-24.756C0.634494-22.7699 2.37937-17.4047 6.38204-17.8589C6.59504-17.8829 6.80312-17.8949 7.00478-17.8853C7.8506-15.9257 8.83154-14.0363 9.93788-12.2339C9.81896-12.0467 9.68234-11.8589 9.52268-11.6843C6.80762-8.7125 10.1229-4.1507 13.7883-5.8181C14.0274-5.9273 14.2668-6.0095 14.5048-6.0659C15.8766-4.5077 17.3572-3.0479 18.9312-1.6931C18.8749-1.4393 18.8061-1.1789 18.6901-0.9233C17.0224 2.7433 21.5847 6.0619 24.5562 3.3421C24.7707 3.1459 24.9999 2.9887 25.2326 2.8537C26.9866 3.8977 28.8186 4.8253 30.717 5.6257C30.7474 5.9017 30.7642 6.1909 30.7303 6.4897C30.279 10.4905 35.6421 12.2299 37.6277 8.7265C37.7812 8.4559 37.9621 8.2201 38.1567 8.0101C40.1157 8.4535 42.123 8.7637 44.1702 8.9407C44.2963 9.2083 44.407 9.4957 44.4715 9.8113C45.2778 13.7569 50.9178 13.7569 51.7238 9.8113C51.7882 9.4963 51.8926 9.2077 52.0184 8.9407C54.0617 8.7619 56.0633 8.4409 58.0185 7.9963C58.2188 8.2105 58.4103 8.4493 58.5676 8.7265C60.5534 12.2293 65.9156 10.4899 65.465 6.4897C65.4308 6.1867 65.4332 5.8921 65.465 5.6125C67.358 4.8121 69.1796 3.8767 70.9292 2.8333C71.1728 2.9719 71.4152 3.1375 71.639 3.3421C74.6102 6.0583 79.172 2.7421 77.5052-0.9233C77.3834-1.1909 77.3006-1.4609 77.2442-1.7267C78.8048-3.0731 80.2688-4.5257 81.6302-6.0731C81.8852-6.0161 82.1438-5.9351 82.4-5.8181C86.0654-4.1513 89.3816-8.7131 86.666-11.6843C86.4932-11.8733 86.3492-12.0773 86.2238-12.2807C87.3176-14.0675 88.2854-15.9377 89.1236-17.8787C89.3456-17.8925 89.5772-17.8853 89.813-17.8589C93.8138-17.4077 95.5526-22.7705 92.0498-24.756C91.8614-24.8629 91.6868-24.9832 91.5278-25.1109C92.0222-27.1711 92.3738-29.2855 92.5724-31.4457C92.75-31.5105 92.9384-31.5596 93.1346-31.5997C97.0814-32.4054 97.0808-38.046 93.1346-38.8521C92.9594-38.8879 92.7932-38.9437 92.6324-38.9994C92.4662-41.1976 92.141-43.3501 91.6682-45.448C91.7882-45.5356 91.9148-45.6191 92.0498-45.6958C95.5544-47.6812 93.815-53.045 89.813-52.5932C89.6804-52.5781 89.5466-52.5883 89.4182-52.5865C88.5722-54.6406 87.581-56.6191 86.4518-58.5061C86.519-58.5939 86.5886-58.6828 86.666-58.7673C89.3858-61.7389 86.0672-66.3018 82.4-64.6334C82.3088-64.5919 82.2104-64.5732 82.1192-64.5397C80.6714-66.2404 79.0952-67.8273 77.4116-69.2941C77.4416-69.3735 77.4692-69.4559 77.5052-69.5352C79.1726-73.2008 74.6108-76.5164 71.639-73.8009C71.588-73.7539 71.5244-73.717 71.4716-73.6737C69.5552-74.8534 67.5452-75.8964 65.4518-76.7808C65.4554-76.8337 65.459-76.8879 65.465-76.9415C65.9186-80.9442 60.5534-82.689 58.5676-79.1848C58.5432-79.142 58.506-79.1057 58.4805-79.0643C56.2972-79.5851 54.0517-79.9416 51.7573-80.129C51.7461-80.1751 51.7335-80.2225 51.7238-80.2696Z"/>
   <path class="monochrome-1 multicolor-1:tintColor hierarchical-1:primary SFSymbolsPreviewWireframe" d="M48.1076-55.801C45.7407-55.801 43.8219-53.8822 43.8219-51.5153L43.8219-39.5688L31.8955-39.5688C29.488-39.5671 27.5361-37.6107 27.5361-35.2027C27.5368-32.7954 29.4885-30.845 31.8955-30.8433L43.8219-30.8433L43.8219-18.9437C43.8236-16.5785 45.7417-14.6579 48.1076-14.6579C50.4734-14.6579 52.3917-16.5785 52.3933-18.9437L52.3933-30.8433L64.2932-30.8433C66.7004-30.8442 68.6516-32.795 68.6522-35.2027C68.6522-37.6111 66.701-39.5679 64.2932-39.5688L52.3933-39.5688L52.3933-51.5153C52.3933-53.8822 50.4745-55.8009 48.1076-55.801Z"/>
  </g>
  <g id="Ultralight-S" transform="matrix(1 0 0 1 515.351 696)">
   <path class="monochrome-0 multicolor-0:labelColor hierarchical-0:tertiary SFSymbolsPreviewWireframe" d="M47.9888-80.2696C47.1833-84.2164 41.5426-84.2158 40.7365-80.2696C40.7269-80.2239 40.7004-80.1805 40.6896-80.1357C38.3948-79.9505 36.1503-79.5897 33.9664-79.071C33.9432-79.1089 33.9151-79.1457 33.8927-79.1848C31.907-82.69 26.5416-80.9444 26.9953-76.9415C27.0004-76.8951 26.9918-76.8468 26.9953-76.8009C24.8952-75.9163 22.8774-74.8755 20.9551-73.6937C20.9122-73.7298 20.8635-73.7624 20.8212-73.8009C17.8495-76.5202 13.2867-73.2018 14.9551-69.5352C14.9842-69.4707 14.9967-69.3988 15.0221-69.3343C13.3271-67.861 11.7441-66.2629 10.2877-64.5531C10.2119-64.5821 10.1292-64.5991 10.0533-64.6334C6.38672-66.3019 3.06836-61.739 5.78768-58.7673C5.85146-58.6974 5.9045-58.6183 5.9618-58.5463C4.8236-56.6485 3.83276-54.6535 2.98184-52.5865C2.87228-52.5897 2.75966-52.5806 2.64704-52.5932C-1.35591-53.047-3.10147-47.6815 0.403718-45.6958C0.522242-45.6285 0.631634-45.5505 0.738542-45.4749C0.26168-43.3642-0.065848-41.1981-0.232444-38.986C-0.377158-38.9382-0.524794-38.884-0.681106-38.8521C-4.62731-38.0459-4.62785-32.4052-0.681106-31.5997C-0.50632-31.564-0.339136-31.5145-0.17887-31.4592C0.02-29.2849 0.38021-27.157 0.87917-25.0841C0.731288-24.969 0.57614-24.8536 0.403718-24.756C-3.10051-22.7699-1.35563-17.4047 2.64704-17.8589C2.86004-17.8829 3.06812-17.8949 3.26978-17.8853C4.1156-15.9257 5.09654-14.0363 6.20288-12.2339C6.08396-12.0467 5.94734-11.8589 5.78768-11.6843C3.07262-8.7125 6.38786-4.1507 10.0533-5.8181C10.2924-5.9273 10.5318-6.0095 10.7698-6.0659C12.1416-4.5077 13.6222-3.0479 15.1962-1.6931C15.1399-1.4393 15.0711-1.1789 14.9551-0.9233C13.2874 2.7433 17.8497 6.0619 20.8212 3.3421C21.0357 3.1459 21.2649 2.9887 21.4976 2.8537C23.2516 3.8977 25.0836 4.8253 26.982 5.6257C27.0124 5.9017 27.0292 6.1909 26.9953 6.4897C26.544 10.4905 31.9071 12.2299 33.8927 8.7265C34.0462 8.4559 34.2271 8.2201 34.4217 8.0101C36.3807 8.4535 38.388 8.7637 40.4352 8.9407C40.5613 9.2083 40.672 9.4957 40.7365 9.8113C41.5428 13.7569 47.1828 13.7569 47.9888 9.8113C48.0532 9.4963 48.1576 9.2077 48.2834 8.9407C50.3267 8.7619 52.3283 8.4409 54.2835 7.9963C54.4838 8.2105 54.6753 8.4493 54.8326 8.7265C56.8184 12.2293 62.1806 10.4899 61.73 6.4897C61.6958 6.1867 61.6982 5.8921 61.73 5.6125C63.623 4.8121 65.4446 3.8767 67.1942 2.8333C67.4378 2.9719 67.6802 3.1375 67.904 3.3421C70.8752 6.0583 75.437 2.7421 73.7702-0.9233C73.6484-1.1909 73.5656-1.4609 73.5092-1.7267C75.0698-3.0731 76.5338-4.5257 77.8952-6.0731C78.1502-6.0161 78.4088-5.9351 78.665-5.8181C82.3304-4.1513 85.6466-8.7131 82.931-11.6843C82.7582-11.8733 82.6142-12.0773 82.4888-12.2807C83.5826-14.0675 84.5504-15.9377 85.3886-17.8787C85.6106-17.8925 85.8422-17.8853 86.078-17.8589C90.0788-17.4077 91.8176-22.7705 88.3148-24.756C88.1264-24.8629 87.9518-24.9832 87.7928-25.1109C88.2872-27.1711 88.6388-29.2855 88.8374-31.4457C89.015-31.5105 89.2034-31.5596 89.3996-31.5997C93.3464-32.4054 93.3458-38.046 89.3996-38.8521C89.2244-38.8879 89.0582-38.9437 88.8974-38.9994C88.7312-41.1976 88.406-43.3501 87.9332-45.448C88.0532-45.5356 88.1798-45.6191 88.3148-45.6958C91.8194-47.6812 90.08-53.045 86.078-52.5932C85.9454-52.5781 85.8116-52.5883 85.6832-52.5865C84.8372-54.6406 83.846-56.6191 82.7168-58.5061C82.784-58.5939 82.8536-58.6828 82.931-58.7673C85.6508-61.7389 82.3322-66.3018 78.665-64.6334C78.5738-64.5919 78.4754-64.5732 78.3842-64.5397C76.9364-66.2404 75.3602-67.8273 73.6766-69.2941C73.7066-69.3735 73.7342-69.4559 73.7702-69.5352C75.4376-73.2008 70.8758-76.5164 67.904-73.8009C67.853-73.7539 67.7894-73.717 67.7366-73.6737C65.8202-74.8534 63.8102-75.8964 61.7168-76.7808C61.7204-76.8337 61.724-76.8879 61.73-76.9415C62.1836-80.9442 56.8184-82.689 54.8326-79.1848C54.8082-79.142 54.771-79.1057 54.7455-79.0643C52.5622-79.5851 50.3167-79.9416 48.0223-80.129C48.0111-80.1751 47.9985-80.2225 47.9888-80.2696Z"/>
   <path class="monochrome-1 multicolor-1:tintColor hierarchical-1:primary SFSymbolsPreviewWireframe" d="M44.3726-55.801C42.0057-55.801 40.0869-53.8822 40.0869-51.5153L40.0869-39.5688L28.1605-39.5688C25.753-39.5671 23.8011-37.6107 23.8011-35.2027C23.8018-32.7954 25.7535-30.845 28.1605-30.8433L40.0869-30.8433L40.0869-18.9437C40.0886-16.5785 42.0067-14.6579 44.3726-14.6579C46.7384-14.6579 48.6567-16.5785 48.6583-18.9437L48.6583-30.8433L60.5582-30.8433C62.9654-30.8442 64.9166-32.795 64.9172-35.2027C64.9172-37.6111 62.966-39.5679 60.5582-39.5688L48.6583-39.5688L48.6583-51.5153C48.6583-53.8822 46.7395-55.8009 44.3726-55.801Z"/>
  </g>
 </g>
</svg>
