<?xml version="1.0" encoding="UTF-8"?>
<!--Generator: Apple Native CoreSVG 341-->
<!DOCTYPE svg
PUBLIC "-//W3C//DTD SVG 1.1//EN"
       "http://www.w3.org/Graphics/SVG/1.1/DTD/svg11.dtd">
<svg version="1.1" xmlns="http://www.w3.org/2000/svg" xmlns:xlink="http://www.w3.org/1999/xlink" viewBox="0 0 3300 2200">
 <!--glyph: "", point size: 100.0, font version: "21.1d1e1", template writer version: "138.0.0"-->
 <style>.defaults {-sfsymbols-variable-value-mode:color;-sfsymbols-draw-reverses-motion-groups:true}

.monochrome-0 {-sfsymbols-motion-group:1;-sfsymbols-layer-tags:fbd654e457e293a}
.monochrome-1 {opacity:0.0;-sfsymbols-clear-behind:true;-sfsymbols-motion-group:0;-sfsymbols-layer-tags:fbd654e457e293a}

.multicolor-0:labelColor {-sfsymbols-motion-group:1;-sfsymbols-layer-tags:fbd654e457e293a}
.multicolor-1:tintColor {-sfsymbols-motion-group:0;-sfsymbols-layer-tags:fbd654e457e293a}

.hierarchical-0:tertiary {-sfsymbols-motion-group:1;-sfsymbols-layer-tags:fbd654e457e293a}
.hierarchical-1:primary {-sfsymbols-motion-group:0;-sfsymbols-layer-tags:fbd654e457e293a}

.SFSymbolsPreviewWireframe {fill:none;opacity:1.0;stroke:black;stroke-width:0.5}
</style>
 <g id="Notes">
  <rect height="2200" id="artboard" style="fill:white;opacity:1" width="3300" x="0" y="0"/>
  <line style="fill:none;stroke:black;opacity:1;stroke-width:0.5;" x1="263" x2="3036" y1="292" y2="292"/>
  <text style="stroke:none;fill:black;font-family:sans-serif;font-size:13;font-weight:bold;" transform="matrix(1 0 0 1 263 322)">Weight/Scale Variations</text>
  <text style="stroke:none;fill:black;font-family:sans-serif;font-size:13;text-anchor:middle;" transform="matrix(1 0 0 1 559.711 322)">Ultralight</text>
  <text style="stroke:none;fill:black;font-family:sans-serif;font-size:13;text-anchor:middle;" transform="matrix(1 0 0 1 856.422 322)">Thin</text>
  <text style="stroke:none;fill:black;font-family:sans-serif;font-size:13;text-anchor:middle;" transform="matrix(1 0 0 1 1153.13 322)">Light</text>
  <text style="stroke:none;fill:black;font-family:sans-serif;font-size:13;text-anchor:middle;" transform="matrix(1 0 0 1 1449.84 322)">Regular</text>
  <text style="stroke:none;fill:black;font-family:sans-serif;font-size:13;text-anchor:middle;" transform="matrix(1 0 0 1 1746.56 322)">Medium</text>
  <text style="stroke:none;fill:black;font-family:sans-serif;font-size:13;text-anchor:middle;" transform="matrix(1 0 0 1 2043.27 322)">Semibold</text>
  <text style="stroke:none;fill:black;font-family:sans-serif;font-size:13;text-anchor:middle;" transform="matrix(1 0 0 1 2339.98 322)">Bold</text>
  <text style="stroke:none;fill:black;font-family:sans-serif;font-size:13;text-anchor:middle;" transform="matrix(1 0 0 1 2636.69 322)">Heavy</text>
  <text style="stroke:none;fill:black;font-family:sans-serif;font-size:13;text-anchor:middle;" transform="matrix(1 0 0 1 2933.4 322)">Black</text>
  <line style="fill:none;stroke:black;opacity:1;stroke-width:0.5;" x1="263" x2="3036" y1="1903" y2="1903"/>
  <g transform="matrix(0.2 0 0 0.2 263 1933)">
   <path d="m46.2402 4.15039c21.7773 0 39.4531-17.627 39.4531-39.4043s-17.6758-39.4043-39.4531-39.4043c-21.7285 0-39.4043 17.627-39.4043 39.4043s17.6758 39.4043 39.4043 39.4043Zm0-7.42188c-17.6758 0-31.9336-14.3066-31.9336-31.9824s14.2578-31.9824 31.9336-31.9824 31.9824 14.3066 31.9824 31.9824-14.3066 31.9824-31.9824 31.9824Zm3.61328-17.7734v-28.4668c0-2.24609-1.46484-3.75977-3.71094-3.75977-2.14844 0-3.61328 1.51367-3.61328 3.75977v28.4668c0 2.19727 1.46484 3.71094 3.61328 3.71094 2.24609 0 3.71094-1.51367 3.71094-3.71094Zm-17.8223-10.5957h28.418c2.19727 0 3.71094-1.46484 3.71094-3.61328 0-2.19727-1.51367-3.71094-3.71094-3.71094h-28.418c-2.24609 0-3.75977 1.51367-3.75977 3.71094 0 2.14844 1.51367 3.61328 3.75977 3.61328Z"/>
  </g>
  <g transform="matrix(0.2 0 0 0.2 281.506 1933)">
   <path d="m58.5449 14.5508c27.4902 0 49.8047-22.3145 49.8047-49.8047s-22.3145-49.8047-49.8047-49.8047-49.8047 22.3145-49.8047 49.8047 22.3145 49.8047 49.8047 49.8047Zm0-8.30078c-22.9492 0-41.5039-18.5547-41.5039-41.5039s18.5547-41.5039 41.5039-41.5039 41.5039 18.5547 41.5039 41.5039-18.5547 41.5039-41.5039 41.5039Zm4.05273-23.0957v-36.9141c0-2.49023-1.70898-4.19922-4.15039-4.19922-2.39258 0-4.05273 1.70898-4.05273 4.19922v36.9141c0 2.44141 1.66016 4.15039 4.05273 4.15039 2.44141 0 4.15039-1.66016 4.15039-4.15039Zm-22.5586-14.4043h36.9629c2.44141 0 4.15039-1.61133 4.15039-4.00391 0-2.44141-1.70898-4.15039-4.15039-4.15039h-36.9629c-2.49023 0-4.15039 1.70898-4.15039 4.15039 0 2.39258 1.66016 4.00391 4.15039 4.00391Z"/>
  </g>
  <g transform="matrix(0.2 0 0 0.2 304.924 1933)">
   <path d="m74.8535 28.3203c35.1074 0 63.623-28.4668 63.623-63.5742s-28.5156-63.623-63.623-63.623-63.5742 28.5156-63.5742 63.623 28.4668 63.5742 63.5742 63.5742Zm0-9.08203c-30.127 0-54.4922-24.3652-54.4922-54.4922s24.3652-54.4922 54.4922-54.4922 54.4922 24.3652 54.4922 54.4922-24.3652 54.4922-54.4922 54.4922Zm4.44336-30.3223v-48.4863c0-2.73438-1.85547-4.63867-4.54102-4.63867-2.58789 0-4.44336 1.9043-4.44336 4.63867v48.4863c0 2.68555 1.85547 4.58984 4.44336 4.58984 2.68555 0 4.54102-1.85547 4.54102-4.58984Zm-28.7109-19.7754h48.4863c2.68555 0 4.58984-1.80664 4.58984-4.39453 0-2.73438-1.85547-4.58984-4.58984-4.58984h-48.4863c-2.73438 0-4.58984 1.85547-4.58984 4.58984 0 2.58789 1.85547 4.39453 4.58984 4.39453Z"/>
  </g>
  <text style="stroke:none;fill:black;font-family:sans-serif;font-size:13;font-weight:bold;" transform="matrix(1 0 0 1 263 1953)">Design Variations</text>
  <text style="stroke:none;fill:black;font-family:sans-serif;font-size:13;" transform="matrix(1 0 0 1 263 1971)">Symbols are supported in up to nine weights and three scales.</text>
  <text style="stroke:none;fill:black;font-family:sans-serif;font-size:13;" transform="matrix(1 0 0 1 263 1989)">For optimal layout with text and other symbols, vertically align</text>
  <text style="stroke:none;fill:black;font-family:sans-serif;font-size:13;" transform="matrix(1 0 0 1 263 2007)">symbols with the adjacent text.</text>
  <line style="fill:none;stroke:#00AEEF;stroke-width:0.5;opacity:1.0;" x1="776" x2="776" y1="1919" y2="1933"/>
  <g transform="matrix(0.2 0 0 0.2 776 1933)">
   <path d="m16.5527 0.78125c2.58789 0 3.85742-0.976562 4.78516-3.71094l20.5566-57.5195h0.244141l20.6055 57.5195c0.927734 2.73438 2.19727 3.71094 4.73633 3.71094 2.58789 0 4.24805-1.5625 4.24805-4.00391 0-0.830078-0.146484-1.61133-0.537109-2.63672l-22.9004-60.9863c-1.12305-2.97852-3.125-4.49219-6.25-4.49219-3.02734 0-5.07812 1.46484-6.15234 4.44336l-22.9004 61.084c-0.390625 1.02539-0.537109 1.80664-0.537109 2.63672 0 2.44141 1.5625 3.95508 4.10156 3.95508Zm10.2051-20.9473h30.6641c2.00195 0 3.66211-1.66016 3.66211-3.66211 0-2.05078-1.66016-3.66211-3.66211-3.66211h-30.6641c-2.00195 0-3.66211 1.61133-3.66211 3.66211 0 2.00195 1.66016 3.66211 3.66211 3.66211Z"/>
  </g>
  <line style="fill:none;stroke:#00AEEF;stroke-width:0.5;opacity:1.0;" x1="792.836" x2="792.836" y1="1919" y2="1933"/>
  <text style="stroke:none;fill:black;font-family:sans-serif;font-size:13;font-weight:bold;" transform="matrix(1 0 0 1 776 1953)">Margins</text>
  <text style="stroke:none;fill:black;font-family:sans-serif;font-size:13;" transform="matrix(1 0 0 1 776 1971)">Leading and trailing margins on the left and right side of each symbol</text>
  <text style="stroke:none;fill:black;font-family:sans-serif;font-size:13;" transform="matrix(1 0 0 1 776 1989)">can be adjusted by modifying the x-location of the margin guidelines.</text>
  <text style="stroke:none;fill:black;font-family:sans-serif;font-size:13;" transform="matrix(1 0 0 1 776 2007)">Modifications are automatically applied proportionally to all</text>
  <text style="stroke:none;fill:black;font-family:sans-serif;font-size:13;" transform="matrix(1 0 0 1 776 2025)">scales and weights.</text>
  <g transform="matrix(0.2 0 0 0.2 1289 1933)">
   <path d="m14.209 13.1348 7.86133 7.86133c4.29688 4.39453 9.32617 4.10156 13.8672-1.02539l60.6934-68.2129-4.88281-4.88281-60.2539 67.6758c-1.80664 1.95312-3.4668 2.44141-5.81055 0.0976562l-5.17578-5.12695c-2.29492-2.29492-1.80664-3.95508 0.195312-5.81055l67.4805-62.1582-4.88281-4.83398-68.0664 62.5977c-4.98047 4.58984-5.32227 9.47266-1.02539 13.8184Zm44.873-97.4609c-2.05078 2.00195-2.24609 4.88281-1.07422 6.78711 1.12305 1.80664 3.4668 3.02734 6.5918 2.24609 5.85938-1.66016 12.5977-2.39258 18.8965 0.927734l-2.68555 7.12891c-1.61133 4.00391-0.732422 6.88477 1.70898 9.42383l10.2539 10.3027c2.34375 2.39258 4.54102 2.44141 7.08008 1.95312l4.44336-0.732422 2.58789 2.53906-0.195312 2.24609c-0.0976562 2.29492 0.537109 4.29688 2.7832 6.49414l3.36914 3.32031c2.29492 2.29492 5.51758 2.49023 7.8125 0.195312l12.9883-13.0371c2.29492-2.34375 2.14844-5.37109-0.195312-7.66602l-3.41797-3.41797c-2.19727-2.19727-4.05273-3.02734-6.34766-2.88086l-2.34375 0.244141-2.44141-2.44141 1.02539-4.6875c0.634766-2.73438-0.244141-4.98047-2.88086-7.61719l-11.2793-11.1816c-12.9395-12.8418-35.5957-11.0352-46.6797-0.146484Zm7.08008 2.05078c8.78906-6.39648 25.9766-5.66406 33.6914 1.95312l12.3047 12.207c1.02539 1.02539 1.2207 1.80664 0.927734 3.32031l-1.46484 6.64062 6.73828 6.68945 4.39453-0.244141c1.12305-0.0488281 1.51367 0.0488281 2.34375 0.878906l2.53906 2.49023-10.8398 10.8398-2.49023-2.49023c-0.830078-0.878906-0.976562-1.2207-0.927734-2.39258l0.292969-4.3457-6.68945-6.73828-6.83594 1.17188c-1.41602 0.292969-2.05078 0.195312-3.17383-0.878906l-8.93555-8.88672c-1.07422-1.02539-1.17188-1.70898-0.488281-3.36914l4.58984-11.4746c-6.10352-6.34766-17.041-7.51953-25.5859-4.58984-0.683594 0.244141-0.927734-0.390625-0.390625-0.78125Z"/>
  </g>
  <text style="stroke:none;fill:black;font-family:sans-serif;font-size:13;font-weight:bold;" transform="matrix(1 0 0 1 1289 1953)">Exporting</text>
  <text style="stroke:none;fill:black;font-family:sans-serif;font-size:13;" transform="matrix(1 0 0 1 1289 1971)">Symbols should be outlined when exporting to ensure the</text>
  <text style="stroke:none;fill:black;font-family:sans-serif;font-size:13;" transform="matrix(1 0 0 1 1289 1989)">design is preserved when submitting to Xcode.</text>
  <text id="template-version" style="stroke:none;fill:black;font-family:sans-serif;font-size:13;text-anchor:end;" transform="matrix(1 0 0 1 3036 1933)">Template v.7.0</text>
  <text style="stroke:none;fill:black;font-family:sans-serif;font-size:13;text-anchor:end;" transform="matrix(1 0 0 1 3036 1951)">Requires Xcode 26 or greater</text>
  <text id="descriptive-name" style="stroke:none;fill:black;font-family:sans-serif;font-size:13;text-anchor:end;" transform="matrix(1 0 0 1 3036 1969)">Generated from bottlecap.plus</text>
  <text style="stroke:none;fill:black;font-family:sans-serif;font-size:13;text-anchor:end;" transform="matrix(1 0 0 1 3036 1987)">Typeset at 100.0 points</text>
  <text style="stroke:none;fill:black;font-family:sans-serif;font-size:13;" transform="matrix(1 0 0 1 263 726)">Small</text>
  <text style="stroke:none;fill:black;font-family:sans-serif;font-size:13;" transform="matrix(1 0 0 1 263 1156)">Medium</text>
  <text style="stroke:none;fill:black;font-family:sans-serif;font-size:13;" transform="matrix(1 0 0 1 263 1586)">Large</text>
 </g>
 <g id="Guides">
  <g id="H-reference" style="fill:#27AAE1;stroke:none;" transform="matrix(1 0 0 1 339 696)">
   <path d="M0.993654 0L3.63775 0L29.3281-67.1323L30.0303-67.1323L30.0303-70.459L28.1226-70.459ZM11.6885-24.4799L46.9815-24.4799L46.2315-26.7285L12.4385-26.7285ZM55.1196 0L57.7637 0L30.6382-70.459L29.4326-70.459L29.4326-67.1323Z"/>
  </g>
  <line id="Baseline-S" style="fill:none;stroke:#27AAE1;opacity:1;stroke-width:0.5;" x1="263" x2="3036" y1="696" y2="696"/>
  <line id="Capline-S" style="fill:none;stroke:#27AAE1;opacity:1;stroke-width:0.5;" x1="263" x2="3036" y1="625.541" y2="625.541"/>
  <g id="H-reference" style="fill:#27AAE1;stroke:none;" transform="matrix(1 0 0 1 339 1126)">
   <path d="M0.993654 0L3.63775 0L29.3281-67.1323L30.0303-67.1323L30.0303-70.459L28.1226-70.459ZM11.6885-24.4799L46.9815-24.4799L46.2315-26.7285L12.4385-26.7285ZM55.1196 0L57.7637 0L30.6382-70.459L29.4326-70.459L29.4326-67.1323Z"/>
  </g>
  <line id="Baseline-M" style="fill:none;stroke:#27AAE1;opacity:1;stroke-width:0.5;" x1="263" x2="3036" y1="1126" y2="1126"/>
  <line id="Capline-M" style="fill:none;stroke:#27AAE1;opacity:1;stroke-width:0.5;" x1="263" x2="3036" y1="1055.54" y2="1055.54"/>
  <g id="H-reference" style="fill:#27AAE1;stroke:none;" transform="matrix(1 0 0 1 339 1556)">
   <path d="M0.993654 0L3.63775 0L29.3281-67.1323L30.0303-67.1323L30.0303-70.459L28.1226-70.459ZM11.6885-24.4799L46.9815-24.4799L46.2315-26.7285L12.4385-26.7285ZM55.1196 0L57.7637 0L30.6382-70.459L29.4326-70.459L29.4326-67.1323Z"/>
  </g>
  <line id="Baseline-L" style="fill:none;stroke:#27AAE1;opacity:1;stroke-width:0.5;" x1="263" x2="3036" y1="1556" y2="1556"/>
  <line id="Capline-L" style="fill:none;stroke:#27AAE1;opacity:1;stroke-width:0.5;" x1="263" x2="3036" y1="1485.54" y2="1485.54"/>
  <line id="right-margin-Black-S" style="fill:none;stroke:#00AEEF;stroke-width:0.5;opacity:1.0;" x1="2983.6" x2="2983.6" y1="600.785" y2="720.121"/>
  <line id="left-margin-Black-S" style="fill:none;stroke:#00AEEF;stroke-width:0.5;opacity:1.0;" x1="2883.2" x2="2883.2" y1="600.785" y2="720.121"/>
  <line id="right-margin-Regular-S" style="fill:none;stroke:#00AEEF;stroke-width:0.5;opacity:1.0;" x1="1497.94" x2="1497.94" y1="600.785" y2="720.121"/>
  <line id="left-margin-Regular-S" style="fill:none;stroke:#00AEEF;stroke-width:0.5;opacity:1.0;" x1="1401.75" x2="1401.75" y1="600.785" y2="720.121"/>
  <line id="right-margin-Ultralight-S" style="fill:none;stroke:#00AEEF;stroke-width:0.5;opacity:1.0;" x1="604.071" x2="604.071" y1="600.785" y2="720.121"/>
  <line id="left-margin-Ultralight-S" style="fill:none;stroke:#00AEEF;stroke-width:0.5;opacity:1.0;" x1="515.351" x2="515.351" y1="600.785" y2="720.121"/>
 </g>
 <g id="Symbols">
  <g id="Black-L" transform="matrix(1 0 0 1 2850.94 1556)">
   <path class="monochrome-0 multicolor-0:labelColor hierarchical-0:tertiary SFSymbolsPreviewWireframe" d="M87.7498-100.913C86.5752-106.669 78.3492-106.668 77.1736-100.913C77.1596-100.847 77.1209-100.783 77.1052-100.718C73.7586-100.448 70.4853-99.9216 67.3006-99.1652C67.2667-99.2205 67.2257-99.2741 67.1931-99.3312C64.2973-104.443 56.4728-101.897 57.1345-96.0597C57.1418-95.9921 57.1293-95.9215 57.1345-95.8546C54.0718-94.5647 51.1292-93.0467 48.3259-91.3234C48.2633-91.376 48.1922-91.4236 48.1306-91.4796C43.7969-95.4453 37.1427-90.606 39.5759-85.2589C39.6184-85.1648 39.6366-85.06 39.6736-84.966C37.2018-82.8174 34.8932-80.4869 32.7693-77.9933C32.6587-78.0356 32.5381-78.0605 32.4275-78.1105C27.0804-80.5437 22.2412-73.8895 26.2068-69.5558C26.2999-69.4539 26.3772-69.3386 26.4607-69.2335C24.8009-66.4659 23.3559-63.5566 22.115-60.5421C21.9552-60.5468 21.791-60.5335 21.6267-60.5519C15.7891-61.2137 13.2435-53.3892 18.3552-50.4933C18.5281-50.3952 18.6876-50.2814 18.8435-50.171C18.1481-47.0931 17.6705-43.9341 17.4275-40.7081C17.2165-40.6385 17.0012-40.5594 16.7732-40.5128C11.0184-39.3373 11.0176-31.1113 16.7732-29.9367C17.0281-29.8846 17.2719-29.8124 17.5056-29.7316C17.7957-26.5609 18.321-23.4577 19.0486-20.4347C18.8329-20.2668 18.6067-20.0986 18.3552-19.9562C13.2449-17.0599 15.7895-9.236 21.6267-9.898C21.9374-9.933 22.2408-9.95 22.5349-9.937C23.7684-7.078 25.1989-4.324 26.8123-1.694C26.6389-1.422 26.4396-1.148 26.2068-0.894C22.2473 3.44 27.082 10.093 32.4275 7.661C32.7762 7.502 33.1253 7.382 33.4724 7.3C35.4729 9.573 37.6321 11.701 39.9275 13.677C39.8454 14.047 39.745 14.427 39.5759 14.8C37.1439 20.147 43.7972 24.986 48.1306 21.02C48.4435 20.734 48.7776 20.504 49.117 20.307C51.6749 21.831 54.3465 23.183 57.115 24.35C57.1594 24.753 57.1839 25.175 57.1345 25.61C56.4763 31.445 64.2975 33.982 67.1931 28.872C67.4169 28.478 67.6808 28.134 67.9646 27.827C70.8214 28.474 73.7486 28.926 76.7342 29.184C76.918 29.575 77.0796 29.994 77.1736 30.454C78.3494 36.208 86.5744 36.208 87.7498 30.454C87.8437 29.995 87.9959 29.574 88.1795 29.184C91.1592 28.924 94.0782 28.456 96.9295 27.807C97.2217 28.12 97.501 28.468 97.7302 28.872C100.626 33.98 108.446 31.444 107.789 25.61C107.739 25.168 107.742 24.739 107.789 24.331C110.55 23.164 113.206 21.8 115.758 20.278C116.113 20.48 116.466 20.722 116.793 21.02C121.126 24.981 127.778 20.145 125.347 14.8C125.17 14.409 125.049 14.016 124.967 13.628C127.243 11.664 129.377 9.546 131.363 7.29C131.735 7.372 132.112 7.491 132.486 7.661C137.831 10.092 142.667 3.44 138.707-0.894C138.455-1.169 138.245-1.466 138.062-1.763C139.657-4.369 141.069-7.097 142.291-9.927C142.615-9.947 142.952-9.937 143.297-9.898C149.131-9.24 151.667-17.0603 146.558-19.9562C146.283-20.1122 146.029-20.2875 145.797-20.4738C146.518-23.4783 147.031-26.5617 147.32-29.712C147.579-29.8065 147.854-29.8781 148.14-29.9367C153.896-31.1116 153.895-39.3374 148.14-40.5128C147.885-40.5651 147.642-40.6464 147.408-40.7277C147.166-43.9334 146.691-47.0725 146.002-50.132C146.177-50.2597 146.361-50.3815 146.558-50.4933C151.669-53.3887 149.132-61.2108 143.297-60.5519C143.103-60.5299 142.908-60.5448 142.72-60.5421C141.487-63.5377 140.041-66.423 138.394-69.1749C138.493-69.3029 138.594-69.4325 138.707-69.5558C142.673-73.8895 137.833-80.5435 132.486-78.1105C132.353-78.0501 132.209-78.0227 132.076-77.9738C129.965-80.454 127.666-82.7682 125.211-84.9074C125.255-85.0231 125.295-85.1433 125.347-85.2589C127.78-90.6045 121.126-95.4397 116.793-91.4796C116.718-91.4112 116.625-91.3573 116.549-91.2941C113.754-93.0146 110.822-94.5356 107.769-95.8253C107.775-95.9025 107.78-95.9816 107.789-96.0597C108.451-101.897 100.627-104.441 97.7302-99.3312C97.6946-99.2687 97.6404-99.2157 97.6033-99.1554C94.4193-99.9149 91.1447-100.435 87.7986-100.708C87.7824-100.775 87.7639-100.844 87.7498-100.913Z"/>
   <path class="monochrome-1 multicolor-1:tintColor hierarchical-1:primary SFSymbolsPreviewWireframe" d="M82.4763-65.23C79.0245-65.23 76.2263-62.4318 76.2263-58.98L76.2263-41.5581L58.8337-41.5581C55.3227-41.5557 52.4763-38.7025 52.4763-35.1909C52.4774-31.6803 55.3234-28.8359 58.8337-28.8335L76.2263-28.8335L76.2263-11.48C76.2288-8.03 79.026-5.23 82.4763-5.23C85.9264-5.23 88.7238-8.03 88.7263-11.48L88.7263-28.8335L106.08-28.8335C109.591-28.8349 112.436-31.6797 112.437-35.1909C112.437-38.7031 109.592-41.5568 106.08-41.5581L88.7263-41.5581L88.7263-58.98C88.7263-62.4317 85.9279-65.2298 82.4763-65.23Z"/>
  </g>
  <g id="Regular-L" transform="matrix(1 0 0 1 1372.08 1556)">
   <path class="monochrome-0 multicolor-0:labelColor hierarchical-0:tertiary SFSymbolsPreviewWireframe" d="M83.0555-100.913C81.8809-106.669 73.6549-106.668 72.4793-100.913C72.4653-100.847 72.4266-100.783 72.4109-100.718C69.0643-100.448 65.791-99.9216 62.6063-99.1652C62.5724-99.2205 62.5314-99.2741 62.4988-99.3312C59.603-104.443 51.7785-101.897 52.4402-96.0597C52.4475-95.9921 52.435-95.9215 52.4402-95.8546C49.3775-94.5647 46.4349-93.0467 43.6316-91.3234C43.569-91.376 43.4979-91.4236 43.4363-91.4796C39.1026-95.4453 32.4484-90.606 34.8816-85.2589C34.9241-85.1648 34.9423-85.06 34.9793-84.966C32.5075-82.8174 30.1989-80.4869 28.075-77.9933C27.9644-78.0356 27.8438-78.0605 27.7332-78.1105C22.3861-80.5437 17.5469-73.8895 21.5125-69.5558C21.6056-69.4539 21.6829-69.3386 21.7664-69.2335C20.1066-66.4659 18.6616-63.5566 17.4207-60.5421C17.2609-60.5468 17.0967-60.5335 16.9324-60.5519C11.0948-61.2137 8.54919-53.3892 13.6609-50.4933C13.8338-50.3952 13.9933-50.2814 14.1492-50.171C13.4538-47.0931 12.9762-43.9341 12.7332-40.7081C12.5222-40.6385 12.3069-40.5594 12.0789-40.5128C6.32405-39.3373 6.32327-31.1113 12.0789-29.9367C12.3338-29.8846 12.5776-29.8124 12.8113-29.7316C13.1014-26.5609 13.6267-23.4577 14.3543-20.4347C14.1386-20.2668 13.9124-20.0986 13.6609-19.9562C8.55059-17.0599 11.0952-9.236 16.9324-9.898C17.2431-9.933 17.5465-9.95 17.8406-9.937C19.0741-7.078 20.5046-4.324 22.118-1.694C21.9446-1.422 21.7453-1.148 21.5125-0.894C17.553 3.44 22.3877 10.093 27.7332 7.661C28.0819 7.502 28.431 7.382 28.7781 7.3C30.7786 9.573 32.9378 11.701 35.2332 13.677C35.1511 14.047 35.0507 14.427 34.8816 14.8C32.4496 20.147 39.1029 24.986 43.4363 21.02C43.7492 20.734 44.0833 20.504 44.4227 20.307C46.9806 21.831 49.6522 23.183 52.4207 24.35C52.4651 24.753 52.4896 25.175 52.4402 25.61C51.782 31.445 59.6032 33.982 62.4988 28.872C62.7226 28.478 62.9865 28.134 63.2703 27.827C66.1271 28.474 69.0543 28.926 72.0399 29.184C72.2237 29.575 72.3853 29.994 72.4793 30.454C73.6551 36.208 81.8801 36.208 83.0555 30.454C83.1494 29.995 83.3016 29.574 83.4852 29.184C86.4649 28.924 89.3839 28.456 92.2352 27.807C92.5274 28.12 92.8067 28.468 93.0359 28.872C95.9318 33.98 103.752 31.444 103.095 25.61C103.045 25.168 103.048 24.739 103.095 24.331C105.856 23.164 108.512 21.8 111.064 20.278C111.419 20.48 111.772 20.722 112.099 21.02C116.432 24.981 123.084 20.145 120.653 14.8C120.476 14.409 120.355 14.016 120.273 13.628C122.549 11.664 124.683 9.546 126.669 7.29C127.041 7.372 127.418 7.491 127.792 7.661C133.137 10.092 137.973 3.44 134.013-0.894C133.761-1.169 133.551-1.466 133.368-1.763C134.963-4.369 136.375-7.097 137.597-9.927C137.921-9.947 138.258-9.937 138.603-9.898C144.437-9.24 146.973-17.0603 141.864-19.9562C141.589-20.1122 141.335-20.2875 141.103-20.4738C141.824-23.4783 142.337-26.5617 142.626-29.712C142.885-29.8065 143.16-29.8781 143.446-29.9367C149.202-31.1116 149.201-39.3374 143.446-40.5128C143.191-40.5651 142.948-40.6464 142.714-40.7277C142.472-43.9334 141.997-47.0725 141.308-50.132C141.483-50.2597 141.667-50.3815 141.864-50.4933C146.975-53.3887 144.438-61.2108 138.603-60.5519C138.409-60.5299 138.214-60.5448 138.026-60.5421C136.793-63.5377 135.347-66.423 133.7-69.1749C133.799-69.3029 133.9-69.4325 134.013-69.5558C137.979-73.8895 133.139-80.5435 127.792-78.1105C127.659-78.0501 127.515-78.0227 127.382-77.9738C125.271-80.454 122.972-82.7682 120.517-84.9074C120.561-85.0231 120.601-85.1433 120.653-85.2589C123.086-90.6045 116.432-95.4397 112.099-91.4796C112.024-91.4112 111.931-91.3573 111.855-91.2941C109.06-93.0146 106.128-94.5356 103.075-95.8253C103.081-95.9025 103.086-95.9816 103.095-96.0597C103.757-101.897 95.9323-104.441 93.0359-99.3312C93.0003-99.2687 92.9461-99.2157 92.909-99.1554C89.725-99.9149 86.4504-100.435 83.1043-100.708C83.0881-100.775 83.0696-100.844 83.0555-100.913Z"/>
   <path class="monochrome-1 multicolor-1:tintColor hierarchical-1:primary SFSymbolsPreviewWireframe" d="M77.782-65.23C74.3302-65.23 71.532-62.4318 71.532-58.98L71.532-41.5581L54.1394-41.5581C50.6284-41.5557 47.782-38.7025 47.782-35.1909C47.7831-31.6803 50.6291-28.8359 54.1394-28.8335L71.532-28.8335L71.532-11.48C71.5345-8.03 74.3317-5.23 77.782-5.23C81.2321-5.23 84.0295-8.03 84.032-11.48L84.032-28.8335L101.386-28.8335C104.897-28.8349 107.742-31.6797 107.743-35.1909C107.743-38.7031 104.898-41.5568 101.386-41.5581L84.032-41.5581L84.032-58.98C84.032-62.4317 81.2336-65.2298 77.782-65.23Z"/>
  </g>
  <g id="Ultralight-L" transform="matrix(1 0 0 1 486.657 1556)">
   <path class="monochrome-0 multicolor-0:labelColor hierarchical-0:tertiary SFSymbolsPreviewWireframe" d="M78.3461-100.913C77.1715-106.669 68.9455-106.668 67.7699-100.913C67.7559-100.847 67.7172-100.783 67.7015-100.718C64.3549-100.448 61.0816-99.9216 57.8969-99.1652C57.863-99.2205 57.822-99.2741 57.7894-99.3312C54.8936-104.443 47.0691-101.897 47.7308-96.0597C47.7381-95.9921 47.7256-95.9215 47.7308-95.8546C44.6681-94.5647 41.7255-93.0467 38.9222-91.3234C38.8596-91.376 38.7885-91.4236 38.7269-91.4796C34.3932-95.4453 27.739-90.606 30.1722-85.2589C30.2147-85.1648 30.2329-85.06 30.2699-84.966C27.7981-82.8174 25.4895-80.4869 23.3656-77.9933C23.255-78.0356 23.1344-78.0605 23.0238-78.1105C17.6767-80.5437 12.8375-73.8895 16.8031-69.5558C16.8962-69.4539 16.9735-69.3386 17.057-69.2335C15.3972-66.4659 13.9522-63.5566 12.7113-60.5421C12.5515-60.5468 12.3873-60.5335 12.223-60.5519C6.38544-61.2137 3.83984-53.3892 8.95154-50.4933C9.12444-50.3952 9.28394-50.2814 9.43984-50.171C8.74444-47.0931 8.26684-43.9341 8.02384-40.7081C7.81284-40.6385 7.59754-40.5594 7.36954-40.5128C1.6147-39.3373 1.61392-31.1113 7.36954-29.9367C7.62444-29.8846 7.86824-29.8124 8.10194-29.7316C8.39204-26.5609 8.91734-23.4577 9.64494-20.4347C9.42924-20.2668 9.20304-20.0986 8.95154-19.9562C3.84124-17.0599 6.38584-9.236 12.223-9.898C12.5337-9.933 12.8371-9.95 13.1312-9.937C14.3647-7.078 15.7952-4.324 17.4086-1.694C17.2352-1.422 17.0359-1.148 16.8031-0.894C12.8436 3.44 17.6783 10.093 23.0238 7.661C23.3725 7.502 23.7216 7.382 24.0687 7.3C26.0692 9.573 28.2284 11.701 30.5238 13.677C30.4417 14.047 30.3413 14.427 30.1722 14.8C27.7402 20.147 34.3935 24.986 38.7269 21.02C39.0398 20.734 39.3739 20.504 39.7133 20.307C42.2712 21.831 44.9428 23.183 47.7113 24.35C47.7557 24.753 47.7802 25.175 47.7308 25.61C47.0726 31.445 54.8938 33.982 57.7894 28.872C58.0132 28.478 58.2771 28.134 58.5609 27.827C61.4177 28.474 64.3449 28.926 67.3305 29.184C67.5143 29.575 67.6759 29.994 67.7699 30.454C68.9457 36.208 77.1707 36.208 78.3461 30.454C78.44 29.995 78.5922 29.574 78.7758 29.184C81.7555 28.924 84.6745 28.456 87.5258 27.807C87.818 28.12 88.0973 28.468 88.3265 28.872C91.2224 33.98 99.0423 31.444 98.3853 25.61C98.3353 25.168 98.3383 24.739 98.3853 24.331C101.146 23.164 103.802 21.8 106.354 20.278C106.709 20.48 107.062 20.722 107.389 21.02C111.722 24.981 118.374 20.145 115.943 14.8C115.766 14.409 115.645 14.016 115.563 13.628C117.839 11.664 119.973 9.546 121.959 7.29C122.331 7.372 122.708 7.491 123.082 7.661C128.427 10.092 133.263 3.44 129.303-0.894C129.051-1.169 128.841-1.466 128.658-1.763C130.253-4.369 131.665-7.097 132.887-9.927C133.211-9.947 133.548-9.937 133.893-9.898C139.727-9.24 142.263-17.0603 137.154-19.9562C136.879-20.1122 136.625-20.2875 136.393-20.4738C137.114-23.4783 137.627-26.5617 137.916-29.712C138.175-29.8065 138.45-29.8781 138.736-29.9367C144.492-31.1116 144.491-39.3374 138.736-40.5128C138.481-40.5651 138.238-40.6464 138.004-40.7277C137.762-43.9334 137.287-47.0725 136.598-50.132C136.773-50.2597 136.957-50.3815 137.154-50.4933C142.265-53.3887 139.728-61.2108 133.893-60.5519C133.699-60.5299 133.504-60.5448 133.316-60.5421C132.083-63.5377 130.637-66.423 128.99-69.1749C129.089-69.3029 129.19-69.4325 129.303-69.5558C133.269-73.8895 128.429-80.5435 123.082-78.1105C122.949-78.0501 122.805-78.0227 122.672-77.9738C120.561-80.454 118.262-82.7682 115.807-84.9074C115.851-85.0231 115.891-85.1433 115.943-85.2589C118.376-90.6045 111.722-95.4397 107.389-91.4796C107.314-91.4112 107.221-91.3573 107.145-91.2941C104.35-93.0146 101.418-94.5356 98.3653-95.8253C98.3713-95.9025 98.3763-95.9816 98.3853-96.0597C99.0473-101.897 91.2229-104.441 88.3265-99.3312C88.2909-99.2687 88.2367-99.2157 88.1996-99.1554C85.0156-99.9149 81.741-100.435 78.3949-100.708C78.3787-100.775 78.3602-100.844 78.3461-100.913Z"/>
   <path class="monochrome-1 multicolor-1:tintColor hierarchical-1:primary SFSymbolsPreviewWireframe" d="M73.0726-65.23C69.6208-65.23 66.8226-62.4318 66.8226-58.98L66.8226-41.5581L49.43-41.5581C45.919-41.5557 43.0726-38.7025 43.0726-35.1909C43.0737-31.6803 45.9197-28.8359 49.43-28.8335L66.8226-28.8335L66.8226-11.48C66.8251-8.03 69.6223-5.23 73.0726-5.23C76.5227-5.23 79.3201-8.03 79.3226-11.48L79.3226-28.8335L96.6763-28.8335C100.187-28.8349 103.032-31.6797 103.033-35.1909C103.033-38.7031 100.188-41.5568 96.6763-41.5581L79.3226-41.5581L79.3226-58.98C79.3226-62.4317 76.5242-65.2298 73.0726-65.23Z"/>
  </g>
  <g id="Black-M" transform="matrix(1 0 0 1 2867.14 1126)">
   <path class="monochrome-0 multicolor-0:labelColor hierarchical-0:tertiary SFSymbolsPreviewWireframe" d="M70.4954-87.7766C69.5558-92.3811 62.975-92.3805 62.0345-87.7766C62.0233-87.7232 61.9923-87.6726 61.9798-87.6203C59.3025-87.4042 56.6838-86.9833 54.1361-86.3782C54.109-86.4224 54.0762-86.4653 54.0501-86.511C51.7334-90.6003 45.4738-88.5638 46.0032-83.8938C46.009-83.8397 45.999-83.7832 46.0032-83.7297C43.553-82.6978 41.199-81.4834 38.9563-80.1047C38.9062-80.1468 38.8494-80.1849 38.8001-80.2297C35.3331-83.4022 30.0098-79.5308 31.9563-75.2531C31.9903-75.1778 32.0049-75.094 32.0345-75.0188C30.057-73.2999 28.2102-71.4355 26.511-69.4406C26.4226-69.4745 26.3261-69.4944 26.2376-69.5344C21.9599-71.481 18.0886-66.1576 21.261-62.6906C21.3355-62.6091 21.3974-62.5169 21.4642-62.4328C20.1363-60.2187 18.9803-57.8913 17.9876-55.4797C17.8598-55.4834 17.7284-55.4728 17.597-55.4875C12.9269-56.017 10.8904-49.7574 14.9798-47.4406C15.1181-47.3622 15.2457-47.2711 15.3704-47.1828C14.8141-44.7205 14.432-42.1933 14.2376-39.6125C14.0688-39.5568 13.8966-39.4935 13.7142-39.4562C9.11028-38.5158 9.10965-31.935 13.7142-30.9954C13.9181-30.9537 14.1131-30.8959 14.3001-30.8313C14.5322-28.2947 14.9524-25.8122 15.5345-23.3938C15.3619-23.2594 15.181-23.1249 14.9798-23.011C10.8915-20.6939 12.9272-14.4348 17.597-14.9644C17.8455-14.9924 18.0882-15.006 18.3235-14.9956C19.3103-12.7084 20.4547-10.5052 21.7454-8.4012C21.6067-8.1836 21.4473-7.9644 21.261-7.7612C18.0934-4.294 21.9612 1.0284 26.2376-0.9172C26.5166-1.0444 26.7958-1.1404 27.0735-1.206C28.6739 0.6124 30.4013 2.3148 32.2376 3.8956C32.1719 4.1916 32.0916 4.4956 31.9563 4.794C30.0107 9.0716 35.3334 12.9428 38.8001 9.77C39.0504 9.5412 39.3177 9.3572 39.5892 9.1996C41.6355 10.4188 43.7728 11.5004 45.9876 12.434C46.0231 12.7564 46.0427 13.094 46.0032 13.442C45.4766 18.11 51.7336 20.1396 54.0501 16.0516C54.2291 15.7364 54.4402 15.4612 54.6673 15.2156C56.9527 15.7332 59.2945 16.0948 61.683 16.3012C61.83 16.614 61.9593 16.9492 62.0345 17.3172C62.9751 21.9204 69.5551 21.9204 70.4954 17.3172C70.5706 16.95 70.6923 16.6132 70.8392 16.3012C73.223 16.0932 75.5582 15.7188 77.8392 15.1996C78.073 15.45 78.2964 15.7284 78.4798 16.0516C80.7965 20.138 87.0524 18.1092 86.5268 13.442C86.4868 13.0884 86.4892 12.7452 86.5268 12.4188C88.7356 11.4852 90.8604 10.394 92.902 9.1764C93.186 9.338 93.4684 9.5316 93.73 9.77C97.1964 12.9388 102.518 9.07 100.573 4.794C100.432 4.4812 100.335 4.1668 100.269 3.8564C102.09 2.2852 103.797 0.5908 105.386-1.214C105.684-1.1484 105.985-1.0532 106.284-0.9172C110.56 1.0276 114.429-4.294 111.261-7.7612C111.06-7.9812 110.892-8.2188 110.745-8.4564C112.021-10.5412 113.151-12.7236 114.128-14.9876C114.388-15.0036 114.657-14.9956 114.933-14.9644C119.6-14.438 121.629-20.6942 117.542-23.011C117.322-23.1358 117.119-23.276 116.933-23.425C117.51-25.8286 117.92-28.2954 118.152-30.8156C118.359-30.8912 118.579-30.9485 118.808-30.9954C123.412-31.9353 123.412-38.5159 118.808-39.4562C118.604-39.4981 118.409-39.5631 118.222-39.6282C118.028-42.1927 117.648-44.704 117.097-47.1516C117.237-47.2538 117.384-47.3512 117.542-47.4406C121.631-49.757 119.601-56.0146 114.933-55.4875C114.778-55.4699 114.622-55.4818 114.472-55.4797C113.485-57.8762 112.328-60.1844 111.011-62.3859C111.09-62.4883 111.171-62.592 111.261-62.6906C114.434-66.1576 110.562-71.4808 106.284-69.5344C106.178-69.4861 106.063-69.4642 105.956-69.425C104.268-71.4092 102.428-73.2606 100.464-74.9719C100.5-75.0645 100.532-75.1606 100.573-75.2531C102.52-79.5296 97.1964-83.3978 93.73-80.2297C93.67-80.175 93.5956-80.1318 93.5348-80.0813C91.2988-81.4577 88.9532-82.6745 86.5108-83.7062C86.5156-83.768 86.5196-83.8313 86.5268-83.8938C87.0564-88.5635 80.7969-90.5992 78.4798-86.511C78.4513-86.461 78.4079-86.4186 78.3782-86.3703C75.831-86.9779 73.2114-87.3938 70.5345-87.6125C70.5215-87.6662 70.5067-87.7216 70.4954-87.7766Z"/>
   <path class="monochrome-1 multicolor-1:tintColor hierarchical-1:primary SFSymbolsPreviewWireframe" d="M66.2766-59.23C63.5152-59.23 61.2766-56.9914 61.2766-54.23L61.2766-40.2925L47.3626-40.2925C44.5538-40.2906 42.2766-38.008 42.2766-35.1987C42.2775-32.3902 44.5543-30.1147 47.3626-30.1128L61.2766-30.1128L61.2766-16.23C61.2786-13.47 63.5164-11.23 66.2766-11.23C69.0367-11.23 71.2746-13.47 71.2766-16.23L71.2766-30.1128L85.1596-30.1128C87.9684-30.1139 90.2444-32.3898 90.2452-35.1987C90.2452-38.0085 87.9692-40.2914 85.1596-40.2925L71.2766-40.2925L71.2766-54.23C71.2766-56.9914 69.0379-59.2298 66.2766-59.23Z"/>
  </g>
  <g id="Regular-M" transform="matrix(1 0 0 1 1386.94 1126)">
   <path class="monochrome-0 multicolor-0:labelColor hierarchical-0:tertiary SFSymbolsPreviewWireframe" d="M67.1429-87.7766C66.2032-92.3811 59.6224-92.3805 58.6819-87.7766C58.6707-87.7232 58.6397-87.6726 58.6272-87.6203C55.9499-87.4042 53.3313-86.9833 50.7835-86.3782C50.7564-86.4224 50.7236-86.4653 50.6975-86.511C48.3809-90.6003 42.1213-88.5638 42.6506-83.8938C42.6565-83.8397 42.6465-83.7832 42.6506-83.7297C40.2005-82.6978 37.8464-81.4834 35.6037-80.1047C35.5537-80.1468 35.4968-80.1849 35.4475-80.2297C31.9805-83.4022 26.6572-79.5308 28.6037-75.2531C28.6377-75.1778 28.6523-75.094 28.6819-75.0188C26.7045-73.2999 24.8576-71.4355 23.1585-69.4406C23.07-69.4745 22.9735-69.4944 22.885-69.5344C18.6073-71.481 14.736-66.1576 17.9085-62.6906C17.9829-62.6091 18.0448-62.5169 18.1116-62.4328C16.7837-60.2187 15.6277-57.8913 14.635-55.4797C14.5072-55.4834 14.3758-55.4728 14.2444-55.4875C9.57431-56.017 7.53783-49.7574 11.6272-47.4406C11.7655-47.3622 11.8931-47.2711 12.0178-47.1828C11.4615-44.7205 11.0794-42.1933 10.885-39.6125C10.7162-39.5568 10.544-39.4935 10.3616-39.4562C5.75772-38.5158 5.75709-31.935 10.3616-30.9954C10.5655-30.9537 10.7605-30.8959 10.9475-30.8313C11.1796-28.2947 11.5998-25.8122 12.1819-23.3938C12.0093-23.2594 11.8284-23.1249 11.6272-23.011C7.53895-20.6939 9.57463-14.4348 14.2444-14.9644C14.4929-14.9924 14.7357-15.006 14.9709-14.9956C15.9577-12.7084 17.1021-10.5052 18.3929-8.4012C18.2541-8.1836 18.0947-7.9644 17.9085-7.7612C14.7409-4.294 18.6086 1.0284 22.885-0.9172C23.164-1.0444 23.4433-1.1404 23.7209-1.206C25.3213 0.6124 27.0487 2.3148 28.885 3.8956C28.8193 4.1916 28.739 4.4956 28.6037 4.794C26.6581 9.0716 31.9808 12.9428 35.4475 9.77C35.6978 9.5412 35.9651 9.3572 36.2366 9.1996C38.2829 10.4188 40.4202 11.5004 42.635 12.434C42.6705 12.7564 42.6901 13.094 42.6506 13.442C42.1241 18.11 48.381 20.1396 50.6975 16.0516C50.8765 15.7364 51.0877 15.4612 51.3147 15.2156C53.6001 15.7332 55.9419 16.0948 58.3304 16.3012C58.4774 16.614 58.6067 16.9492 58.6819 17.3172C59.6225 21.9204 66.2025 21.9204 67.1429 17.3172C67.218 16.95 67.3397 16.6132 67.4866 16.3012C69.8704 16.0932 72.2056 15.7188 74.4866 15.1996C74.7204 15.45 74.9438 15.7284 75.1272 16.0516C77.4439 20.138 83.6998 18.1092 83.1742 13.442C83.1342 13.0884 83.1366 12.7452 83.1742 12.4188C85.383 11.4852 87.5078 10.394 89.5494 9.1764C89.8334 9.338 90.1158 9.5316 90.3774 9.77C93.8438 12.9388 99.1654 9.07 97.2206 4.794C97.079 4.4812 96.9822 4.1668 96.9166 3.8564C98.7374 2.2852 100.445 0.5908 102.033-1.214C102.331-1.1484 102.633-1.0532 102.932-0.9172C107.208 1.0276 111.077-4.294 107.909-7.7612C107.707-7.9812 107.539-8.2188 107.393-8.4564C108.669-10.5412 109.798-12.7236 110.776-14.9876C111.035-15.0036 111.305-14.9956 111.581-14.9644C116.248-14.438 118.277-20.6942 114.189-23.011C113.969-23.1358 113.766-23.276 113.581-23.425C114.157-25.8286 114.568-28.2954 114.799-30.8156C115.006-30.8912 115.226-30.9485 115.455-30.9954C120.06-31.9353 120.059-38.5159 115.455-39.4562C115.251-39.4981 115.057-39.5631 114.869-39.6282C114.676-42.1927 114.296-44.704 113.745-47.1516C113.885-47.2538 114.032-47.3512 114.189-47.4406C118.278-49.757 116.249-56.0146 111.581-55.4875C111.425-55.4699 111.269-55.4818 111.119-55.4797C110.133-57.8762 108.976-60.1844 107.658-62.3859C107.737-62.4883 107.818-62.592 107.909-62.6906C111.081-66.1576 107.209-71.4808 102.932-69.5344C102.825-69.4861 102.71-69.4642 102.604-69.425C100.915-71.4092 99.0758-73.2606 97.1118-74.9719C97.147-75.0645 97.179-75.1606 97.2206-75.2531C99.167-79.5296 93.8438-83.3978 90.3774-80.2297C90.3174-80.175 90.243-80.1318 90.1822-80.0813C87.9462-81.4577 85.6006-82.6745 83.1582-83.7062C83.163-83.768 83.167-83.8313 83.1742-83.8938C83.7038-88.5635 77.4443-90.5992 75.1272-86.511C75.0987-86.461 75.0553-86.4186 75.0257-86.3703C72.4785-86.9779 69.8588-87.3938 67.1819-87.6125C67.1689-87.6662 67.1541-87.7216 67.1429-87.7766Z"/>
   <path class="monochrome-1 multicolor-1:tintColor hierarchical-1:primary SFSymbolsPreviewWireframe" d="M62.9241-59.23C60.1626-59.23 57.9241-56.9914 57.9241-54.23L57.9241-40.2925L44.01-40.2925C41.2012-40.2906 38.9241-38.008 38.9241-35.1987C38.9249-32.3902 41.2017-30.1147 44.01-30.1128L57.9241-30.1128L57.9241-16.23C57.9261-13.47 60.1638-11.23 62.9241-11.23C65.6841-11.23 67.9221-13.47 67.9241-16.23L67.9241-30.1128L81.807-30.1128C84.6158-30.1139 86.8918-32.3898 86.8926-35.1987C86.8926-38.0085 84.6166-40.2914 81.807-40.2925L67.9241-40.2925L67.9241-54.23C67.9241-56.9914 65.6853-59.2298 62.9241-59.23Z"/>
  </g>
  <g id="Ultralight-M" transform="matrix(1 0 0 1 501.024 1126)">
   <path class="monochrome-0 multicolor-0:labelColor hierarchical-0:tertiary SFSymbolsPreviewWireframe" d="M62.9207-87.7766C61.981-92.3811 55.4002-92.3805 54.4597-87.7766C54.4485-87.7232 54.4176-87.6726 54.405-87.6203C51.7277-87.4042 49.1091-86.9833 46.5613-86.3782C46.5342-86.4224 46.5014-86.4653 46.4753-86.511C44.1587-90.6003 37.8991-88.5638 38.4285-83.8938C38.4343-83.8397 38.4243-83.7832 38.4285-83.7297C35.9783-82.6978 33.6242-81.4834 31.3816-80.1047C31.3315-80.1468 31.2746-80.1849 31.2253-80.2297C27.7584-83.4022 22.435-79.5308 24.3816-75.2531C24.4156-75.1778 24.4301-75.094 24.4597-75.0188C22.4823-73.2999 20.6354-71.4355 18.9363-69.4406C18.8478-69.4745 18.7513-69.4944 18.6629-69.5344C14.3852-71.481 10.5138-66.1576 13.6863-62.6906C13.7608-62.6091 13.8226-62.5169 13.8894-62.4328C12.5616-60.2187 11.4056-57.8913 10.4129-55.4797C10.285-55.4834 10.1537-55.4728 10.0222-55.4875C5.35214-56.017 3.31566-49.7574 7.40502-47.4406C7.54334-47.3622 7.67094-47.2711 7.79566-47.1828C7.23934-44.7205 6.85726-42.1933 6.66286-39.6125C6.49406-39.5568 6.32182-39.4935 6.13942-39.4562C1.53554-38.5158 1.53492-31.935 6.13942-30.9954C6.34334-30.9537 6.53838-30.8959 6.72534-30.8313C6.95742-28.2947 7.37766-25.8122 7.95974-23.3938C7.78718-23.2594 7.60622-23.1249 7.40502-23.011C3.31678-20.6939 5.35246-14.4348 10.0222-14.9644C10.2708-14.9924 10.5135-15.006 10.7488-14.9956C11.7356-12.7084 12.88-10.5052 14.1707-8.4012C14.032-8.1836 13.8725-7.9644 13.6863-7.7612C10.5187-4.294 14.3865 1.0284 18.6629-0.9172C18.9418-1.0444 19.2211-1.1404 19.4988-1.206C21.0992 0.6124 22.8265 2.3148 24.6629 3.8956C24.5972 4.1916 24.5169 4.4956 24.3816 4.794C22.436 9.0716 27.7586 12.9428 31.2253 9.77C31.4757 9.5412 31.7429 9.3572 32.0145 9.1996C34.0608 10.4188 36.1981 11.5004 38.4129 12.434C38.4484 12.7564 38.468 13.094 38.4285 13.442C37.9019 18.11 44.1589 20.1396 46.4753 16.0516C46.6544 15.7364 46.8655 15.4612 47.0925 15.2156C49.378 15.7332 51.7197 16.0948 54.1082 16.3012C54.2553 16.614 54.3845 16.9492 54.4597 17.3172C55.4004 21.9204 61.9804 21.9204 62.9207 17.3172C62.9958 16.95 63.1176 16.6132 63.2645 16.3012C65.6482 16.0932 67.9834 15.7188 70.2645 15.1996C70.4982 15.45 70.7217 15.7284 70.905 16.0516C73.2217 20.138 79.4777 18.1092 78.9521 13.442C78.9121 13.0884 78.9145 12.7452 78.9521 12.4188C81.1609 11.4852 83.2857 10.394 85.3273 9.1764C85.6113 9.338 85.8937 9.5316 86.1553 9.77C89.6217 12.9388 94.9433 9.07 92.9985 4.794C92.8569 4.4812 92.7601 4.1668 92.6945 3.8564C94.5153 2.2852 96.2225 0.5908 97.8113-1.214C98.1089-1.1484 98.4105-1.0532 98.7097-0.9172C102.986 1.0276 106.854-4.294 103.686-7.7612C103.485-7.9812 103.317-8.2188 103.17-8.4564C104.446-10.5412 105.576-12.7236 106.554-14.9876C106.813-15.0036 107.082-14.9956 107.358-14.9644C112.026-14.438 114.054-20.6942 109.967-23.011C109.747-23.1358 109.544-23.276 109.358-23.425C109.935-25.8286 110.346-28.2954 110.577-30.8156C110.784-30.8912 111.004-30.9485 111.233-30.9954C115.838-31.9353 115.837-38.5159 111.233-39.4562C111.029-39.4981 110.834-39.5631 110.647-39.6282C110.454-42.1927 110.074-44.704 109.522-47.1516C109.662-47.2538 109.81-47.3512 109.967-47.4406C114.056-49.757 112.026-56.0146 107.358-55.4875C107.203-55.4699 107.047-55.4818 106.897-55.4797C105.91-57.8762 104.754-60.1844 103.436-62.3859C103.515-62.4883 103.596-62.592 103.686-62.6906C106.859-66.1576 102.987-71.4808 98.7097-69.5344C98.6033-69.4861 98.4881-69.4642 98.3817-69.425C96.6929-71.4092 94.8537-73.2606 92.8897-74.9719C92.9249-75.0645 92.9569-75.1606 92.9985-75.2531C94.9449-79.5296 89.6217-83.3978 86.1553-80.2297C86.0953-80.175 86.0209-80.1318 85.9601-80.0813C83.7241-81.4577 81.3785-82.6745 78.9361-83.7062C78.9409-83.768 78.9449-83.8313 78.9521-83.8938C79.4817-88.5635 73.2221-90.5992 70.905-86.511C70.8765-86.461 70.8332-86.4186 70.8035-86.3703C68.2563-86.9779 65.6366-87.3938 62.9597-87.6125C62.9468-87.6662 62.932-87.7216 62.9207-87.7766Z"/>
   <path class="monochrome-1 multicolor-1:tintColor hierarchical-1:primary SFSymbolsPreviewWireframe" d="M58.7019-59.23C55.9405-59.23 53.7019-56.9914 53.7019-54.23L53.7019-40.2925L39.7878-40.2925C36.979-40.2906 34.7019-38.008 34.7019-35.1987C34.7028-32.3902 36.9796-30.1147 39.7878-30.1128L53.7019-30.1128L53.7019-16.23C53.7039-13.47 55.9417-11.23 58.7019-11.23C61.462-11.23 63.6999-13.47 63.7019-16.23L63.7019-30.1128L77.5849-30.1128C80.3937-30.1139 82.6697-32.3898 82.6705-35.1987C82.6705-38.0085 80.3945-40.2914 77.5849-40.2925L63.7019-40.2925L63.7019-54.23C63.7019-56.9914 61.4632-59.2298 58.7019-59.23Z"/>
  </g>
  <g id="Black-S" transform="matrix(1 0 0 1 2883.2 696)">
   <path class="monochrome-0 multicolor-0:labelColor hierarchical-0:tertiary SFSymbolsPreviewWireframe" d="M53.3751-74.6394C52.6703-78.0928 47.7347-78.0923 47.0294-74.6394C47.021-74.5994 46.9977-74.5614 46.9883-74.5222C44.9804-74.3602 43.0164-74.0445 41.1056-73.5906C41.0852-73.6238 41.0606-73.656 41.0411-73.6902C39.3036-76.7572 34.6089-75.2299 35.0059-71.7273C35.0103-71.6868 35.0028-71.6444 35.0059-71.6043C33.1683-70.8303 31.4027-69.9195 29.7207-68.8855C29.6832-68.9171 29.6405-68.9457 29.6036-68.9793C27.0033-71.3587 23.0108-68.4551 24.4707-65.2468C24.4962-65.1904 24.5072-65.1275 24.5294-65.0711C23.0463-63.7819 21.6611-62.3836 20.3868-60.8875C20.3204-60.9129 20.2481-60.9278 20.1817-60.9578C16.9734-62.4177 14.0699-58.4252 16.4493-55.825C16.5051-55.7638 16.5515-55.6947 16.6016-55.6316C15.6057-53.971 14.7387-52.2255 13.9942-50.4168C13.8983-50.4196 13.7998-50.4116 13.7012-50.4226C10.1987-50.8197 8.6713-46.125 11.7383-44.3875C11.8421-44.3286 11.9378-44.2603 12.0313-44.1941C11.6141-42.3474 11.3275-40.452 11.1817-38.5164C11.0551-38.4746 10.9259-38.4271 10.7891-38.3992C7.33622-37.6939 7.33575-32.7583 10.7891-32.0535C10.9421-32.0223 11.0883-31.9789 11.2286-31.9305C11.4026-30.028 11.7178-28.1661 12.1544-26.3523C12.0249-26.2516 11.8892-26.1507 11.7383-26.0652C8.67214-24.3274 10.1989-19.6331 13.7012-20.0303C13.8876-20.0513 14.0697-20.0615 14.2461-20.0537C14.9862-18.3383 15.8445-16.6859 16.8126-15.1079C16.7085-14.9447 16.589-14.7803 16.4493-14.6279C14.0736-12.0275 16.9744-8.0357 20.1817-9.4949C20.3909-9.5903 20.6004-9.6623 20.8086-9.7115C22.0089-8.3477 23.3045-7.0709 24.6817-5.8853C24.6324-5.6633 24.5722-5.4353 24.4707-5.2115C23.0115-2.0033 27.0035 0.9001 29.6036-1.4795C29.7913-1.6511 29.9918-1.7891 30.1954-1.9073C31.7301-0.9929 33.3331-0.1817 34.9942 0.5185C35.0208 0.7603 35.0355 1.0135 35.0059 1.2745C34.611 4.7755 39.3037 6.2977 41.0411 3.2317C41.1753 2.9953 41.3337 2.7889 41.504 2.6047C43.218 2.9929 44.9744 3.2641 46.7657 3.4189C46.876 3.6535 46.973 3.9049 47.0294 4.1809C47.7348 7.6333 52.6698 7.6333 53.3751 4.1809C53.4314 3.9055 53.5227 3.6529 53.6329 3.4189C55.4207 3.2629 57.1721 2.9821 58.8829 2.5927C59.0582 2.7805 59.2258 2.9893 59.3633 3.2317C61.1009 6.2965 65.7928 4.7749 65.3986 1.2745C65.3686 1.0093 65.3704 0.7519 65.3986 0.5071C67.0552-0.1931 68.6488-1.0115 70.18-1.9247C70.393-1.8035 70.6048-1.6583 70.801-1.4795C73.4008 0.8971 77.392-2.0045 75.9334-5.2115C75.8272-5.4461 75.7546-5.6819 75.7054-5.9147C77.071-7.0931 78.3514-8.3639 79.543-9.7175C79.7662-9.6683 79.9924-9.5969 80.2168-9.4949C83.4238-8.0363 86.3254-12.0275 83.9494-14.6279C83.7982-14.7929 83.6722-14.9711 83.5624-15.1493C84.5194-16.7129 85.3666-18.3497 86.0998-20.0477C86.2942-20.0597 86.4964-20.0537 86.7034-20.0303C90.2038-19.6355 91.7254-24.3277 88.66-26.0652C88.495-26.1588 88.3426-26.264 88.2034-26.3758C88.636-28.1785 88.9438-30.0285 89.1172-31.9187C89.2726-31.9754 89.4376-32.0184 89.6092-32.0535C93.0628-32.7585 93.0622-37.6939 89.6092-38.3992C89.4562-38.4306 89.3104-38.4793 89.17-38.5281C89.0248-40.4515 88.7398-42.335 88.3264-44.1707C88.4314-44.2473 88.5418-44.3204 88.66-44.3875C91.7266-46.1247 90.2044-50.818 86.7034-50.4226C86.587-50.4094 86.47-50.4184 86.3572-50.4168C85.6174-52.2141 84.7498-53.9453 83.7616-55.5964C83.821-55.6732 83.8816-55.751 83.9494-55.825C86.329-58.4252 83.425-62.4176 80.2168-60.9578C80.137-60.9216 80.0506-60.9051 79.9708-60.8758C78.7042-62.3639 77.3248-63.7524 75.8518-65.0359C75.8782-65.1054 75.9022-65.1775 75.9334-65.2468C77.3932-68.4542 73.4008-71.3553 70.801-68.9793C70.756-68.9382 70.7002-68.9059 70.6546-68.868C68.9776-69.9003 67.2184-70.8129 65.3866-71.5867C65.3902-71.633 65.3932-71.6805 65.3986-71.7273C65.7958-75.2296 61.1012-76.7564 59.3633-73.6902C59.342-73.6527 59.3094-73.6209 59.2872-73.5847C57.3768-74.0404 55.412-74.3524 53.4044-74.5164C53.3946-74.5567 53.3835-74.5982 53.3751-74.6394Z"/>
   <path class="monochrome-1 multicolor-1:tintColor hierarchical-1:primary SFSymbolsPreviewWireframe" d="M50.211-53.2295C48.1399-53.2295 46.461-51.5506 46.461-49.4795L46.461-39.0264L36.0254-39.0264C33.9188-39.0249 32.211-37.313 32.211-35.206C32.2116-33.0997 33.9192-31.393 36.0254-31.3916L46.461-31.3916L46.461-20.9795C46.4625-18.9095 48.1408-17.2295 50.211-17.2295C52.281-17.2295 53.9595-18.9095 53.961-20.9795L53.961-31.3916L64.3732-31.3916C66.4798-31.3924 68.1868-33.0993 68.1874-35.206C68.1874-37.3134 66.4804-39.0256 64.3732-39.0264L53.961-39.0264L53.961-49.4795C53.961-51.5505 52.2819-53.2294 50.211-53.2295Z"/>
  </g>
  <g id="Regular-S" transform="matrix(1 0 0 1 1401.75 696)">
   <path class="monochrome-0 multicolor-0:labelColor hierarchical-0:tertiary SFSymbolsPreviewWireframe" d="M51.2701-74.6394C50.5653-78.0928 45.6297-78.0923 44.9244-74.6394C44.916-74.5994 44.8927-74.5614 44.8833-74.5222C42.8754-74.3602 40.9114-74.0445 39.0006-73.5906C38.9802-73.6238 38.9556-73.656 38.9361-73.6902C37.1986-76.7572 32.5039-75.2299 32.9009-71.7273C32.9053-71.6868 32.8978-71.6444 32.9009-71.6043C31.0633-70.8303 29.2977-69.9195 27.6157-68.8855C27.5782-68.9171 27.5355-68.9457 27.4986-68.9793C24.8983-71.3587 20.9058-68.4551 22.3657-65.2468C22.3912-65.1904 22.4022-65.1275 22.4244-65.0711C20.9413-63.7819 19.5561-62.3836 18.2818-60.8875C18.2154-60.9129 18.1431-60.9278 18.0767-60.9578C14.8684-62.4177 11.9649-58.4252 14.3443-55.825C14.4001-55.7638 14.4465-55.6947 14.4966-55.6316C13.5007-53.971 12.6337-52.2255 11.8892-50.4168C11.7933-50.4196 11.6948-50.4116 11.5962-50.4226C8.09366-50.8197 6.5663-46.125 9.63332-44.3875C9.73706-44.3286 9.83276-44.2603 9.9263-44.1941C9.50906-42.3474 9.2225-40.452 9.0767-38.5164C8.9501-38.4746 8.82092-38.4271 8.68412-38.3992C5.23122-37.6939 5.23075-32.7583 8.68412-32.0535C8.83706-32.0223 8.98334-31.9789 9.12356-31.9305C9.29762-30.028 9.6128-28.1661 10.0494-26.3523C9.91994-26.2516 9.78422-26.1507 9.63332-26.0652C6.56714-24.3274 8.0939-19.6331 11.5962-20.0303C11.7826-20.0513 11.9647-20.0615 12.1411-20.0537C12.8812-18.3383 13.7395-16.6859 14.7076-15.1079C14.6035-14.9447 14.484-14.7803 14.3443-14.6279C11.9686-12.0275 14.8694-8.0357 18.0767-9.4949C18.2859-9.5903 18.4954-9.6623 18.7036-9.7115C19.9039-8.3477 21.1995-7.0709 22.5767-5.8853C22.5274-5.6633 22.4672-5.4353 22.3657-5.2115C20.9065-2.0033 24.8985 0.9001 27.4986-1.4795C27.6863-1.6511 27.8868-1.7891 28.0904-1.9073C29.6251-0.9929 31.2281-0.1817 32.8892 0.5185C32.9158 0.7603 32.9305 1.0135 32.9009 1.2745C32.506 4.7755 37.1987 6.2977 38.9361 3.2317C39.0703 2.9953 39.2287 2.7889 39.399 2.6047C41.113 2.9929 42.8694 3.2641 44.6607 3.4189C44.771 3.6535 44.868 3.9049 44.9244 4.1809C45.6298 7.6333 50.5648 7.6333 51.2701 4.1809C51.3264 3.9055 51.4177 3.6529 51.5279 3.4189C53.3157 3.2629 55.0671 2.9821 56.7779 2.5927C56.9532 2.7805 57.1208 2.9893 57.2583 3.2317C58.9959 6.2965 63.6878 4.7749 63.2936 1.2745C63.2636 1.0093 63.2654 0.7519 63.2936 0.5071C64.9502-0.1931 66.5438-1.0115 68.075-1.9247C68.288-1.8035 68.4998-1.6583 68.696-1.4795C71.2958 0.8971 75.287-2.0045 73.8284-5.2115C73.7222-5.4461 73.6496-5.6819 73.6004-5.9147C74.966-7.0931 76.2464-8.3639 77.438-9.7175C77.6612-9.6683 77.8874-9.5969 78.1118-9.4949C81.3188-8.0363 84.2204-12.0275 81.8444-14.6279C81.6932-14.7929 81.5672-14.9711 81.4574-15.1493C82.4144-16.7129 83.2616-18.3497 83.9948-20.0477C84.1892-20.0597 84.3914-20.0537 84.5984-20.0303C88.0988-19.6355 89.6204-24.3277 86.555-26.0652C86.39-26.1588 86.2376-26.264 86.0984-26.3758C86.531-28.1785 86.8388-30.0285 87.0122-31.9187C87.1676-31.9754 87.3326-32.0184 87.5042-32.0535C90.9578-32.7585 90.9572-37.6939 87.5042-38.3992C87.3512-38.4306 87.2054-38.4793 87.065-38.5281C86.9198-40.4515 86.6348-42.335 86.2214-44.1707C86.3264-44.2473 86.4368-44.3204 86.555-44.3875C89.6216-46.1247 88.0994-50.818 84.5984-50.4226C84.482-50.4094 84.365-50.4184 84.2522-50.4168C83.5124-52.2141 82.6448-53.9453 81.6566-55.5964C81.716-55.6732 81.7766-55.751 81.8444-55.825C84.224-58.4252 81.32-62.4176 78.1118-60.9578C78.032-60.9216 77.9456-60.9051 77.8658-60.8758C76.5992-62.3639 75.2198-63.7524 73.7468-65.0359C73.7732-65.1054 73.7972-65.1775 73.8284-65.2468C75.2882-68.4542 71.2958-71.3553 68.696-68.9793C68.651-68.9382 68.5952-68.9059 68.5496-68.868C66.8726-69.9003 65.1134-70.8129 63.2816-71.5867C63.2852-71.633 63.2882-71.6805 63.2936-71.7273C63.6908-75.2296 58.9962-76.7564 57.2583-73.6902C57.237-73.6527 57.2044-73.6209 57.1822-73.5847C55.2718-74.0404 53.307-74.3524 51.2994-74.5164C51.2896-74.5567 51.2785-74.5982 51.2701-74.6394Z"/>
   <path class="monochrome-1 multicolor-1:tintColor hierarchical-1:primary SFSymbolsPreviewWireframe" d="M48.106-53.2295C46.0349-53.2295 44.356-51.5506 44.356-49.4795L44.356-39.0264L33.9204-39.0264C31.8138-39.0249 30.106-37.313 30.106-35.206C30.1066-33.0997 31.8142-31.393 33.9204-31.3916L44.356-31.3916L44.356-20.9795C44.3575-18.9095 46.0358-17.2295 48.106-17.2295C50.176-17.2295 51.8545-18.9095 51.856-20.9795L51.856-31.3916L62.2682-31.3916C64.3748-31.3924 66.0818-33.0993 66.0824-35.206C66.0824-37.3134 64.3754-39.0256 62.2682-39.0264L51.856-39.0264L51.856-49.4795C51.856-51.5505 50.1769-53.2294 48.106-53.2295Z"/>
  </g>
  <g id="Ultralight-S" transform="matrix(1 0 0 1 515.351 696)">
   <path class="monochrome-0 multicolor-0:labelColor hierarchical-0:tertiary SFSymbolsPreviewWireframe" d="M47.5351-74.6394C46.8303-78.0928 41.8947-78.0923 41.1894-74.6394C41.181-74.5994 41.1577-74.5614 41.1483-74.5222C39.1404-74.3602 37.1764-74.0445 35.2656-73.5906C35.2452-73.6238 35.2206-73.656 35.2011-73.6902C33.4636-76.7572 28.7689-75.2299 29.1659-71.7273C29.1703-71.6868 29.1628-71.6444 29.1659-71.6043C27.3283-70.8303 25.5627-69.9195 23.8807-68.8855C23.8432-68.9171 23.8005-68.9457 23.7636-68.9793C21.1633-71.3587 17.1708-68.4551 18.6307-65.2468C18.6562-65.1904 18.6672-65.1275 18.6894-65.0711C17.2063-63.7819 15.8211-62.3836 14.5468-60.8875C14.4804-60.9129 14.4081-60.9278 14.3417-60.9578C11.1334-62.4177 8.22992-58.4252 10.6093-55.825C10.6651-55.7638 10.7115-55.6947 10.7616-55.6316C9.76574-53.971 8.89874-52.2255 8.1542-50.4168C8.05832-50.4196 7.9598-50.4116 7.86122-50.4226C4.35866-50.8197 2.8313-46.125 5.89832-44.3875C6.00206-44.3286 6.09776-44.2603 6.1913-44.1941C5.77406-42.3474 5.4875-40.452 5.3417-38.5164C5.2151-38.4746 5.08592-38.4271 4.94912-38.3992C1.49622-37.6939 1.49575-32.7583 4.94912-32.0535C5.10206-32.0223 5.24834-31.9789 5.38856-31.9305C5.56262-30.028 5.8778-28.1661 6.31436-26.3523C6.18494-26.2516 6.04922-26.1507 5.89832-26.0652C2.83214-24.3274 4.3589-19.6331 7.86122-20.0303C8.04764-20.0513 8.22968-20.0615 8.40614-20.0537C9.14624-18.3383 10.0045-16.6859 10.9726-15.1079C10.8685-14.9447 10.749-14.7803 10.6093-14.6279C8.23358-12.0275 11.1344-8.0357 14.3417-9.4949C14.5509-9.5903 14.7604-9.6623 14.9686-9.7115C16.1689-8.3477 17.4645-7.0709 18.8417-5.8853C18.7924-5.6633 18.7322-5.4353 18.6307-5.2115C17.1715-2.0033 21.1635 0.9001 23.7636-1.4795C23.9513-1.6511 24.1518-1.7891 24.3554-1.9073C25.8901-0.9929 27.4931-0.1817 29.1542 0.5185C29.1808 0.7603 29.1955 1.0135 29.1659 1.2745C28.771 4.7755 33.4637 6.2977 35.2011 3.2317C35.3353 2.9953 35.4937 2.7889 35.664 2.6047C37.378 2.9929 39.1344 3.2641 40.9257 3.4189C41.036 3.6535 41.133 3.9049 41.1894 4.1809C41.8948 7.6333 46.8298 7.6333 47.5351 4.1809C47.5914 3.9055 47.6827 3.6529 47.7929 3.4189C49.5807 3.2629 51.3321 2.9821 53.0429 2.5927C53.2182 2.7805 53.3858 2.9893 53.5233 3.2317C55.2609 6.2965 59.9528 4.7749 59.5586 1.2745C59.5286 1.0093 59.5304 0.7519 59.5586 0.5071C61.2152-0.1931 62.8088-1.0115 64.34-1.9247C64.553-1.8035 64.7648-1.6583 64.961-1.4795C67.5608 0.8971 71.552-2.0045 70.0934-5.2115C69.9872-5.4461 69.9146-5.6819 69.8654-5.9147C71.231-7.0931 72.5114-8.3639 73.703-9.7175C73.9262-9.6683 74.1524-9.5969 74.3768-9.4949C77.5838-8.0363 80.4854-12.0275 78.1094-14.6279C77.9582-14.7929 77.8322-14.9711 77.7224-15.1493C78.6794-16.7129 79.5266-18.3497 80.2598-20.0477C80.4542-20.0597 80.6564-20.0537 80.8634-20.0303C84.3638-19.6355 85.8854-24.3277 82.82-26.0652C82.655-26.1588 82.5026-26.264 82.3634-26.3758C82.796-28.1785 83.1038-30.0285 83.2772-31.9187C83.4326-31.9754 83.5976-32.0184 83.7692-32.0535C87.2228-32.7585 87.2222-37.6939 83.7692-38.3992C83.6162-38.4306 83.4704-38.4793 83.33-38.5281C83.1848-40.4515 82.8998-42.335 82.4864-44.1707C82.5914-44.2473 82.7018-44.3204 82.82-44.3875C85.8866-46.1247 84.3644-50.818 80.8634-50.4226C80.747-50.4094 80.63-50.4184 80.5172-50.4168C79.7774-52.2141 78.9098-53.9453 77.9216-55.5964C77.981-55.6732 78.0416-55.751 78.1094-55.825C80.489-58.4252 77.585-62.4176 74.3768-60.9578C74.297-60.9216 74.2106-60.9051 74.1308-60.8758C72.8642-62.3639 71.4848-63.7524 70.0118-65.0359C70.0382-65.1054 70.0622-65.1775 70.0934-65.2468C71.5532-68.4542 67.5608-71.3553 64.961-68.9793C64.916-68.9382 64.8602-68.9059 64.8146-68.868C63.1376-69.9003 61.3784-70.8129 59.5466-71.5867C59.5502-71.633 59.5532-71.6805 59.5586-71.7273C59.9558-75.2296 55.2612-76.7564 53.5233-73.6902C53.502-73.6527 53.4694-73.6209 53.4472-73.5847C51.5368-74.0404 49.572-74.3524 47.5644-74.5164C47.5546-74.5567 47.5435-74.5982 47.5351-74.6394Z"/>
   <path class="monochrome-1 multicolor-1:tintColor hierarchical-1:primary SFSymbolsPreviewWireframe" d="M44.371-53.2295C42.2999-53.2295 40.621-51.5506 40.621-49.4795L40.621-39.0264L30.1854-39.0264C28.0788-39.0249 26.371-37.313 26.371-35.206C26.3716-33.0997 28.0792-31.393 30.1854-31.3916L40.621-31.3916L40.621-20.9795C40.6225-18.9095 42.3008-17.2295 44.371-17.2295C46.441-17.2295 48.1195-18.9095 48.121-20.9795L48.121-31.3916L58.5332-31.3916C60.6398-31.3924 62.3468-33.0993 62.3474-35.206C62.3474-37.3134 60.6404-39.0256 58.5332-39.0264L48.121-39.0264L48.121-49.4795C48.121-51.5505 46.4419-53.2294 44.371-53.2295Z"/>
  </g>
 </g>
</svg>
